SplineFontDB: 3.2
FontName: ATM419-Regular
FullName: ATM419-Regular
FamilyName: ATM 419
Weight: Book
Copyright: Developed by AzhaguThamizh.
Version: 1.000
ItalicAngle: 0
UnderlinePosition: -143
UnderlineWidth: 20
Ascent: 800
Descent: 200
InvalidEm: 0
sfntRevision: 0x00010000
LayerCount: 2
Layer: 0 1 "Back" 1
Layer: 1 1 "Fore" 0
XUID: [1021 192 2086997156 11224]
StyleMap: 0x0040
FSType: 4
OS2Version: 3
OS2_WeightWidthSlopeOnly: 0
OS2_UseTypoMetrics: 0
CreationTime: 1537611069
ModificationTime: 1545657455
PfmFamily: 81
TTFWeight: 400
TTFWidth: 5
LineGap: 0
VLineGap: 0
Panose: 0 0 4 0 0 0 0 0 0 0
OS2TypoAscent: 825
OS2TypoAOffset: 0
OS2TypoDescent: -300
OS2TypoDOffset: 0
OS2TypoLinegap: 0
OS2WinAscent: 825
OS2WinAOffset: 0
OS2WinDescent: 300
OS2WinDOffset: 0
HheadAscent: 825
HheadAOffset: 0
HheadDescent: -300
HheadDOffset: 0
OS2SubXSize: 700
OS2SubYSize: 650
OS2SubXOff: 0
OS2SubYOff: 143
OS2SupXSize: 700
OS2SupYSize: 650
OS2SupXOff: 0
OS2SupYOff: 453
OS2StrikeYSize: 50
OS2StrikeYPos: 259
OS2CapHeight: 716
OS2XHeight: 520
OS2Vendor: 'MACR'
OS2CodePages: 00000001.00000000
OS2UnicodeRanges: 00100003.00000000.00000000.00000000
Lookup: 4 0 0 "'abvs' Above Base Substitutions in Tamil lookup 0" { "'abvs' Above Base Substitutions in Tamil lookup 0 subtable"  } ['abvs' ('taml' <'dflt' > ) ]
Lookup: 4 0 0 "'abvs' Above Base Substitutions in Tamil lookup 1" { "'abvs' Above Base Substitutions in Tamil lookup 1 subtable"  } ['abvs' ('taml' <'dflt' > ) ]
Lookup: 4 0 0 "'abvs' Above Base Substitutions in Tamil lookup 2" { "'abvs' Above Base Substitutions in Tamil lookup 2 subtable"  } ['abvs' ('taml' <'dflt' > ) ]
Lookup: 4 0 0 "'abvs' Above Base Substitutions in Tamil lookup 3" { "'abvs' Above Base Substitutions in Tamil lookup 3 subtable"  } ['abvs' ('taml' <'dflt' > ) ]
Lookup: 4 0 0 "'abvs' Above Base Substitutions in Tamil lookup 4" { "'abvs' Above Base Substitutions in Tamil lookup 4 subtable"  } ['abvs' ('taml' <'dflt' > ) ]

StartChar: .notdef
Encoding: 65536 -1 0
Width: 500
GlyphClass: 2
Flags: W
LayerCount: 2
Fore
SplineSet
63 0 m 1,0,-1
 63 800 l 1,1,-1
 438 800 l 1,2,-1
 438 0 l 1,3,-1
 63 0 l 1,0,-1
125 63 m 1,4,-1
 375 63 l 1,5,-1
 375 738 l 1,6,-1
 125 738 l 1,7,-1
 125 63 l 1,4,-1
EndSplineSet
EndChar

StartChar: exclam
Encoding: 33 33 4
Width: 313
GlyphClass: 2
Flags: W
LayerCount: 2
Fore
SplineSet
300 450 m 2,0,-1
 295 420 l 1,1,-1
 250 190 l 2,2,3
 247 176 247 176 235 170 c 1,4,5
 223 170 223 170 220 190 c 2,6,-1
 175 450 l 1,7,-1
 176 470 l 2,8,9
 177 481 177 481 185.5 490.5 c 128,-1,10
 194 500 194 500 205 500 c 2,11,-1
 265 500 l 2,12,13
 279 500 279 500 289.5 482.5 c 128,-1,14
 300 465 300 465 300 450 c 2,0,-1
285 70 m 0,15,16
 285 47 285 47 272 25 c 0,17,18
 257 0 257 0 235 0 c 0,19,20
 210 0 210 0 197 24 c 0,21,22
 185 44 185 44 185 70 c 0,23,24
 185 95 185 95 198 117.5 c 128,-1,25
 211 140 211 140 235 140 c 256,26,27
 259 140 259 140 273 116 c 0,28,29
 285 96 285 96 285 70 c 0,15,16
EndSplineSet
EndChar

StartChar: quotedbl
Encoding: 34 34 5
Width: 509
GlyphClass: 2
Flags: W
LayerCount: 2
Fore
SplineSet
420 740 m 2,0,-1
 415 710 l 1,1,-1
 370 480 l 2,2,3
 367 466 367 466 355 460 c 1,4,5
 343 460 343 460 340 480 c 2,6,-1
 295 740 l 1,7,-1
 296 760 l 2,8,9
 297 771 297 771 305.5 780.5 c 128,-1,10
 314 790 314 790 325 790 c 2,11,-1
 385 790 l 2,12,13
 399 790 399 790 409.5 772.5 c 128,-1,14
 420 755 420 755 420 740 c 2,0,-1
230 740 m 2,15,-1
 225 710 l 1,16,-1
 180 480 l 2,17,18
 177 466 177 466 165 460 c 1,19,20
 153 460 153 460 150 480 c 2,21,-1
 105 740 l 1,22,-1
 106 760 l 2,23,24
 107 771 107 771 115.5 780.5 c 128,-1,25
 124 790 124 790 135 790 c 2,26,-1
 195 790 l 2,27,28
 209 790 209 790 219.5 772.5 c 128,-1,29
 230 755 230 755 230 740 c 2,15,-1
EndSplineSet
EndChar

StartChar: numbersign
Encoding: 35 35 6
Width: 706
GlyphClass: 2
Flags: W
LayerCount: 2
Fore
SplineSet
691 248 m 1,0,-1
 449 248 l 1,1,-1
 406 21 l 1,2,-1
 360 21 l 1,3,-1
 401 248 l 1,4,-1
 189 248 l 1,5,-1
 146 21 l 1,6,-1
 100 21 l 1,7,-1
 141 248 l 1,8,-1
 2 248 l 1,9,-1
 2 294 l 1,10,-1
 149 294 l 1,11,-1
 195 548 l 1,12,-1
 2 548 l 1,13,-1
 2 594 l 1,14,-1
 203 594 l 1,15,-1
 233 762 l 1,16,-1
 285 762 l 1,17,-1
 253 594 l 1,18,-1
 463 594 l 1,19,-1
 493 762 l 1,20,-1
 545 762 l 1,21,-1
 513 594 l 1,22,-1
 691 594 l 1,23,-1
 691 548 l 1,24,-1
 505 548 l 1,25,-1
 457 294 l 1,26,-1
 691 294 l 1,27,-1
 691 248 l 1,0,-1
455 548 m 1,28,-1
 245 548 l 1,29,-1
 197 294 l 1,30,-1
 409 294 l 1,31,-1
 455 548 l 1,28,-1
EndSplineSet
EndChar

StartChar: dollar
Encoding: 36 36 7
Width: 466
GlyphClass: 2
Flags: W
LayerCount: 2
Fore
SplineSet
399 143 m 0,0,1
 399 21 399 21 250 -8 c 1,2,-1
 250 -45 l 1,3,-1
 219 -45 l 1,4,-1
 219 -10 l 1,5,6
 149 -10 149 -10 61 29 c 1,7,-1
 72 72 l 1,8,9
 104 44 104 44 145 29 c 0,10,11
 175 21 175 21 219 21 c 1,12,-1
 219 247 l 1,13,14
 70 303 70 303 70 411 c 0,15,16
 70 458 70 458 103 494 c 1,17,18
 136 524 136 524 219 537 c 1,19,-1
 219 567 l 1,20,-1
 250 567 l 1,21,-1
 250 537 l 1,22,-1
 266 538 l 2,23,24
 309 541 309 541 353 514 c 2,25,-1
 394 489 l 1,26,-1
 371 463 l 1,27,28
 325 509 325 509 285 507 c 2,29,-1
 268 506 l 1,30,-1
 250 506 l 1,31,-1
 249 289 l 1,32,33
 334 254 334 254 362 231 c 0,34,35
 399 201 399 201 399 143 c 0,0,1
219 505 m 1,36,37
 122 489 122 489 122 412 c 0,38,39
 122 343 122 343 218 303 c 1,40,-1
 219 505 l 1,36,37
347 146 m 0,41,42
 347 174 347 174 334 188.5 c 128,-1,43
 321 203 321 203 250 234 c 1,44,-1
 250 21 l 1,45,46
 277 27 277 27 312 60 c 1,47,48
 347 100 347 100 347 146 c 0,41,42
EndSplineSet
EndChar

StartChar: percent
Encoding: 37 37 8
Width: 642
GlyphClass: 2
Flags: W
LayerCount: 2
Fore
SplineSet
586 90 m 2,0,1
 586 54 586 54 561.5 27 c 128,-1,2
 537 0 537 0 501 0 c 2,3,-1
 471 0 l 2,4,5
 436 0 436 0 411 27.5 c 128,-1,6
 386 55 386 55 386 90 c 2,7,-1
 386 220 l 2,8,9
 386 253 386 253 412 276.5 c 128,-1,10
 438 300 438 300 471 300 c 2,11,-1
 506 300 l 2,12,13
 537 300 537 300 561.5 275.5 c 128,-1,14
 586 251 586 251 586 220 c 2,15,-1
 586 90 l 2,0,1
436 480 m 1,16,-1
 431 460 l 1,17,-1
 231 20 l 2,18,19
 224 4 224 4 211 0 c 1,20,21
 196 0 196 0 196 21 c 0,22,23
 196 29 196 29 201 40 c 2,24,-1
 401 480 l 2,25,26
 408 496 408 496 421 500 c 1,27,28
 436 500 436 500 436 480 c 1,16,-1
256 290 m 2,29,30
 256 254 256 254 231.5 227 c 128,-1,31
 207 200 207 200 171 200 c 2,32,-1
 141 200 l 2,33,34
 106 200 106 200 81 227.5 c 128,-1,35
 56 255 56 255 56 290 c 2,36,-1
 56 420 l 2,37,38
 56 453 56 453 82 476.5 c 128,-1,39
 108 500 108 500 141 500 c 2,40,-1
 176 500 l 2,41,42
 207 500 207 500 231.5 475.5 c 128,-1,43
 256 451 256 451 256 420 c 2,44,-1
 256 290 l 2,29,30
546 90 m 2,45,-1
 546 220 l 2,46,47
 546 235 546 235 533.5 247.5 c 128,-1,48
 521 260 521 260 506 260 c 2,49,-1
 471 260 l 2,50,51
 453 260 453 260 439.5 249 c 128,-1,52
 426 238 426 238 426 220 c 2,53,-1
 426 90 l 2,54,55
 426 70 426 70 438.5 55 c 128,-1,56
 451 40 451 40 471 40 c 2,57,-1
 501 40 l 2,58,59
 519 40 519 40 532.5 56 c 128,-1,60
 546 72 546 72 546 90 c 2,45,-1
216 290 m 2,61,-1
 216 420 l 2,62,63
 216 435 216 435 203.5 447.5 c 128,-1,64
 191 460 191 460 176 460 c 2,65,-1
 141 460 l 2,66,67
 123 460 123 460 109.5 449 c 128,-1,68
 96 438 96 438 96 420 c 2,69,-1
 96 290 l 2,70,71
 96 270 96 270 108.5 255 c 128,-1,72
 121 240 121 240 141 240 c 2,73,-1
 171 240 l 2,74,75
 189 240 189 240 202.5 256 c 128,-1,76
 216 272 216 272 216 290 c 2,61,-1
EndSplineSet
EndChar

StartChar: ampersand
Encoding: 38 38 9
Width: 517
GlyphClass: 2
Flags: W
LayerCount: 2
Fore
SplineSet
483 -2 m 1,0,-1
 463 -2 l 1,1,-1
 425 0 l 1,2,-1
 377 -2 l 1,3,-1
 338 49 l 1,4,5
 299 16 299 16 262 1 c 1,6,-1
 231 -7 l 1,7,-1
 208 -11 l 1,8,-1
 185 -12 l 2,9,10
 115 -15 115 -15 66.5 29 c 128,-1,11
 18 73 18 73 18 142 c 0,12,13
 18 203 18 203 59 244 c 0,14,15
 84 269 84 269 130 293 c 2,16,-1
 155 306 l 1,17,-1
 124 365 l 1,18,-1
 116 389 l 1,19,-1
 113 414 l 1,20,21
 113 469 113 469 155 505.5 c 128,-1,22
 197 542 197 542 252 542 c 0,23,24
 287 542 287 542 317.5 514 c 128,-1,25
 348 486 348 486 348 451 c 0,26,27
 348 407 348 407 327 377 c 128,-1,28
 306 347 306 347 249 316 c 2,29,-1
 223 302 l 1,30,31
 251 255 251 255 299 191 c 2,32,-1
 363 106 l 1,33,34
 375 120 375 120 389 160 c 128,-1,35
 403 200 403 200 403 220 c 0,36,37
 403 242 403 242 392 253 c 1,38,-1
 398 272 l 1,39,-1
 451 272 l 1,40,-1
 448 253 l 1,41,42
 433 235 433 235 413.5 166.5 c 128,-1,43
 394 98 394 98 381 82 c 1,44,-1
 419 42 l 1,45,-1
 427 29 l 1,46,-1
 445 24 l 2,47,48
 449 21 449 21 470 16 c 1,49,-1
 483 16 l 1,50,-1
 483 -2 l 1,0,-1
308 445 m 0,51,52
 308 473 308 473 288 491.5 c 128,-1,53
 268 510 268 510 237 510 c 0,54,55
 210 510 210 510 187 487 c 128,-1,56
 164 464 164 464 164 437 c 0,57,58
 164 407 164 407 179 377 c 2,59,-1
 192 351 l 1,60,-1
 205 331 l 1,61,-1
 266 370 l 1,62,63
 308 405 308 405 308 445 c 0,51,52
326 62 m 1,64,-1
 285 116 l 1,65,-1
 245 172 l 1,66,-1
 170 286 l 1,67,-1
 111 243 l 1,68,69
 68 203 68 203 68 156 c 0,70,71
 68 94 68 94 115 55 c 0,72,73
 156 21 156 21 211 21 c 0,74,75
 267 21 267 21 326 62 c 1,64,-1
EndSplineSet
EndChar

StartChar: quotesingle
Encoding: 39 39 10
Width: 323
GlyphClass: 2
Flags: W
LayerCount: 2
Fore
SplineSet
230 740 m 2,0,-1
 225 710 l 1,1,-1
 180 480 l 2,2,3
 177 466 177 466 165 460 c 1,4,5
 153 460 153 460 150 480 c 2,6,-1
 105 740 l 1,7,-1
 106 760 l 2,8,9
 107 771 107 771 115.5 780.5 c 128,-1,10
 124 790 124 790 135 790 c 2,11,-1
 195 790 l 2,12,13
 209 790 209 790 219.5 772.5 c 128,-1,14
 230 755 230 755 230 740 c 2,0,-1
EndSplineSet
EndChar

StartChar: parenleft
Encoding: 40 40 11
Width: 362
GlyphClass: 2
Flags: W
LayerCount: 2
Fore
SplineSet
285 -275 m 1,0,-1
 255 -275 l 1,1,2
 75 -59 75 -59 75 220 c 0,3,4
 75 454 75 454 255 670 c 1,5,-1
 285 670 l 1,6,7
 105 454 105 454 105 220 c 0,8,9
 105 -59 105 -59 285 -275 c 1,0,-1
EndSplineSet
EndChar

StartChar: parenright
Encoding: 41 41 12
Width: 346
GlyphClass: 2
Flags: W
LayerCount: 2
Fore
SplineSet
271 200 m 0,0,1
 271 -74 271 -74 106 -275 c 1,2,-1
 81 -275 l 1,3,4
 241 -85 241 -85 241 200 c 0,5,6
 241 467 241 467 76 670 c 1,7,-1
 106 670 l 1,8,9
 271 476 271 476 271 200 c 0,0,1
EndSplineSet
EndChar

StartChar: asterisk
Encoding: 42 42 13
Width: 730
GlyphClass: 2
Flags: W
LayerCount: 2
Fore
SplineSet
674 310 m 1,0,-1
 474 170 l 1,1,-1
 544 -60 l 1,2,-1
 369 85 l 1,3,-1
 169 -60 l 1,4,-1
 244 170 l 1,5,-1
 54 310 l 1,6,-1
 294 310 l 1,7,-1
 359 530 l 1,8,-1
 424 310 l 1,9,-1
 674 310 l 1,0,-1
EndSplineSet
EndChar

StartChar: plus
Encoding: 43 43 14
Width: 510
GlyphClass: 2
Flags: W
LayerCount: 2
Fore
SplineSet
496 150 m 1,0,1
 496 130 496 130 476 130 c 256,2,3
 456 130 456 130 456 150 c 0,4,5
 456 159 456 159 448 166 c 2,6,-1
 434 179 l 1,7,-1
 276 180 l 1,8,-1
 276 60 l 2,9,10
 276 54 276 54 284.5 47 c 128,-1,11
 293 40 293 40 306 40 c 0,12,13
 326 40 326 40 326 20 c 256,14,15
 326 0 326 0 306 0 c 0,16,17
 299 0 299 0 275 10 c 2,18,-1
 256 15 l 2,19,20
 249 15 249 15 225 5 c 2,21,-1
 206 0 l 1,22,23
 186 0 186 0 186 20 c 256,24,25
 186 40 186 40 206 40 c 0,26,27
 236 40 236 40 236 60 c 2,28,-1
 236 180 l 1,29,-1
 76 180 l 2,30,31
 69 180 69 180 62 173 c 0,32,33
 59 169 59 169 54 150 c 1,34,35
 54 130 54 130 34 130 c 256,36,37
 14 130 14 130 14 150 c 0,38,39
 14 157 14 157 24 181 c 2,40,-1
 29 200 l 2,41,42
 29 207 29 207 19 231 c 2,43,-1
 14 250 l 1,44,45
 14 270 14 270 34 270 c 256,46,47
 54 270 54 270 54 250 c 0,48,49
 54 241 54 241 61 233 c 2,50,-1
 76 221 l 1,51,-1
 236 220 l 1,52,-1
 236 340 l 2,53,54
 234 344 234 344 227 352 c 0,55,56
 220 357 220 357 206 360 c 0,57,58
 186 360 186 360 186 380 c 256,59,60
 186 400 186 400 206 400 c 0,61,62
 213 400 213 400 237 390 c 2,63,-1
 256 385 l 2,64,65
 263 385 263 385 287 395 c 2,66,-1
 306 400 l 1,67,68
 326 400 326 400 326 380 c 256,69,70
 326 360 326 360 306 360 c 0,71,72
 276 360 276 360 276 340 c 2,73,-1
 276 220 l 1,74,-1
 436 220 l 2,75,76
 450 220 450 220 456 250 c 0,77,78
 456 270 456 270 476 270 c 256,79,80
 496 270 496 270 496 250 c 0,81,82
 496 243 496 243 486 219 c 2,83,-1
 481 200 l 2,84,85
 481 193 481 193 491 169 c 2,86,-1
 496 150 l 1,0,1
EndSplineSet
EndChar

StartChar: comma
Encoding: 44 44 15
Width: 238
GlyphClass: 2
Flags: W
LayerCount: 2
Fore
SplineSet
184 60 m 2,0,1
 189 -4 189 -4 157 -75 c 0,2,3
 129 -134 129 -134 74 -170 c 1,4,-1
 67 -172 l 2,5,6
 53 -172 53 -172 53 -154 c 1,7,-1
 59 -140 l 1,8,9
 135 -78 135 -78 154 0 c 1,10,11
 128 -3 128 -3 111 18 c 128,-1,12
 94 39 94 39 94 65 c 256,13,14
 94 91 94 91 104 112 c 0,15,16
 116 140 116 140 139 140 c 0,17,18
 151 140 151 140 171 116 c 1,19,-1
 179 95 l 1,20,-1
 183 73 l 1,21,-1
 184 60 l 2,0,1
EndSplineSet
EndChar

StartChar: hyphen
Encoding: 45 45 16
Width: 410
GlyphClass: 2
Flags: W
LayerCount: 2
Fore
SplineSet
356 200 m 256,0,1
 356 180 356 180 336 180 c 2,2,-1
 76 180 l 2,3,4
 56 180 56 180 56 200 c 0,5,6
 56 215 56 215 71 220 c 1,7,-1
 341 220 l 2,8,9
 356 220 356 220 356 200 c 256,0,1
EndSplineSet
EndChar

StartChar: period
Encoding: 46 46 17
Width: 198
GlyphClass: 2
Flags: W
LayerCount: 2
Fore
SplineSet
144 70 m 0,0,1
 144 46 144 46 134 25 c 0,2,3
 121 0 121 0 99 0 c 0,4,5
 81 0 81 0 67 20 c 1,6,-1
 59 39 l 1,7,-1
 54 70 l 2,8,9
 54 94 54 94 65 114 c 0,10,11
 78 140 78 140 99 140 c 0,12,13
 111 140 111 140 131 119 c 1,14,-1
 139 100 l 2,15,16
 144 88 144 88 144 70 c 0,0,1
EndSplineSet
EndChar

StartChar: slash
Encoding: 47 47 18
Width: 550
GlyphClass: 2
Flags: W
LayerCount: 2
Fore
SplineSet
496 580 m 0,0,1
 494 566 494 566 491 560 c 2,2,-1
 91 -80 l 2,3,4
 82 -94 82 -94 71 -100 c 1,5,6
 56 -100 56 -100 56 -78 c 0,7,8
 56 -68 56 -68 61 -60 c 2,9,-1
 461 580 l 2,10,11
 470 594 470 594 481 600 c 1,12,13
 496 600 496 600 496 580 c 0,0,1
EndSplineSet
EndChar

StartChar: zero
Encoding: 48 48 19
Width: 357
GlyphClass: 2
Flags: W
LayerCount: 2
Fore
SplineSet
320 222 m 0,0,1
 320 131 320 131 294 74 c 0,2,3
 258 -6 258 -6 179 -6 c 0,4,5
 101 -6 101 -6 64 75 c 0,6,7
 36 135 36 135 36 222 c 0,8,9
 36 313 36 313 63 370 c 0,10,11
 99 450 99 450 179 450 c 0,12,13
 241 450 241 450 282 389 c 1,14,15
 320 323 320 323 320 222 c 0,0,1
293 222 m 256,16,17
 293 299 293 299 273 351 c 0,18,19
 244 425 244 425 179 425 c 0,20,21
 116 425 116 425 85 351 c 0,22,23
 64 295 64 295 64 222 c 0,24,25
 64 144 64 144 84 94 c 0,26,27
 112 20 112 20 179 20 c 0,28,29
 243 20 243 20 272 94 c 0,30,31
 293 145 293 145 293 222 c 256,16,17
EndSplineSet
EndChar

StartChar: one
Encoding: 49 49 20
Width: 360
GlyphClass: 2
Flags: W
LayerCount: 2
Fore
SplineSet
246 0 m 1,0,-1
 218 0 l 1,1,-1
 218 342 l 1,2,-1
 115 342 l 1,3,-1
 115 362 l 1,4,-1
 138 362 l 2,5,6
 201 362 201 362 225 445 c 1,7,-1
 246 445 l 1,8,-1
 246 0 l 1,0,-1
EndSplineSet
EndChar

StartChar: two
Encoding: 50 50 21
Width: 360
GlyphClass: 2
Flags: W
LayerCount: 2
Fore
SplineSet
316 0 m 1,0,-1
 43 0 l 1,1,-1
 43 40 l 2,2,3
 43 89 43 89 95 136 c 0,4,5
 135 173 135 173 191 199 c 0,6,7
 229 216 229 216 255.5 250.5 c 128,-1,8
 282 285 282 285 282 325 c 0,9,10
 282 364 282 364 250 393 c 128,-1,11
 218 422 218 422 180 422 c 0,12,13
 140 422 140 422 111 386 c 128,-1,14
 82 350 82 350 82 308 c 1,15,-1
 51 308 l 1,16,17
 51 366 51 366 87 408 c 128,-1,18
 123 450 123 450 180 450 c 0,19,20
 235 450 235 450 275 416 c 0,21,22
 316 379 316 379 316 325 c 0,23,24
 316 279 316 279 279 236 c 0,25,26
 248 197 248 197 203 176 c 128,-1,27
 158 155 158 155 123 125 c 0,28,29
 77 85 77 85 77 48 c 2,30,-1
 77 28 l 1,31,-1
 316 28 l 1,32,-1
 316 0 l 1,0,-1
EndSplineSet
EndChar

StartChar: three
Encoding: 51 51 22
Width: 357
GlyphClass: 2
Flags: W
LayerCount: 2
Fore
SplineSet
320 125 m 0,0,1
 320 69 320 69 277.5 31.5 c 128,-1,2
 235 -6 235 -6 179 -6 c 256,3,4
 123 -6 123 -6 81 27 c 0,5,6
 36 61 36 61 36 114 c 2,7,-1
 36 119 l 1,8,-1
 66 119 l 1,9,-1
 66 114 l 2,10,11
 66 72 66 72 102 45 c 0,12,13
 135 20 135 20 179 20 c 0,14,15
 221 20 221 20 255.5 51 c 128,-1,16
 290 82 290 82 290 125 c 0,17,18
 290 162 290 162 264 189.5 c 128,-1,19
 238 217 238 217 200 217 c 2,20,-1
 150 217 l 1,21,-1
 150 245 l 1,22,-1
 200 245 l 2,23,24
 225 245 225 245 251 271 c 0,25,26
 273 297 273 297 273 332 c 0,27,28
 273 369 273 369 242 392.5 c 128,-1,29
 211 416 211 416 173 416 c 256,30,31
 135 416 135 416 105.5 391.5 c 128,-1,32
 76 367 76 367 76 328 c 2,33,-1
 76 313 l 1,34,-1
 45 313 l 1,35,-1
 47 335 l 1,36,37
 47 385 47 385 86 416 c 0,38,39
 123 445 123 445 173 445 c 0,40,41
 222 445 222 445 261 413 c 0,42,43
 303 379 303 379 303 332 c 0,44,45
 303 257 303 257 241 231 c 1,46,47
 276 223 276 223 298 192.5 c 128,-1,48
 320 162 320 162 320 125 c 0,0,1
EndSplineSet
EndChar

StartChar: four
Encoding: 52 52 23
Width: 360
GlyphClass: 2
Flags: W
LayerCount: 2
Fore
SplineSet
328 108 m 1,0,-1
 259 108 l 1,1,-1
 259 0 l 1,2,-1
 230 0 l 1,3,-1
 230 108 l 1,4,-1
 30 108 l 1,5,-1
 30 142 l 1,6,-1
 236 445 l 1,7,-1
 259 445 l 1,8,-1
 259 137 l 1,9,-1
 328 137 l 1,10,-1
 328 108 l 1,0,-1
230 137 m 1,11,-1
 230 392 l 1,12,-1
 60 137 l 1,13,-1
 230 137 l 1,11,-1
EndSplineSet
EndChar

StartChar: five
Encoding: 53 53 24
Width: 357
GlyphClass: 2
Flags: W
LayerCount: 2
Fore
SplineSet
320 142 m 0,0,1
 320 82 320 82 278.5 38 c 128,-1,2
 237 -6 237 -6 179 -6 c 0,3,4
 124 -6 124 -6 85 26 c 0,5,6
 43 56 43 56 36 108 c 1,7,-1
 64 108 l 1,8,9
 69 77 69 77 103 47 c 1,10,11
 137 24 137 24 179 24 c 0,12,13
 224 24 224 24 258.5 58.5 c 128,-1,14
 293 93 293 93 293 137 c 0,15,16
 293 183 293 183 258.5 219.5 c 128,-1,17
 224 256 224 256 179 256 c 0,18,19
 111 256 111 256 79 211 c 1,20,-1
 53 211 l 1,21,-1
 93 445 l 1,22,-1
 298 445 l 1,23,-1
 298 416 l 1,24,-1
 116 416 l 1,25,-1
 86 248 l 1,26,27
 111 282 111 282 184 282 c 0,28,29
 241 282 241 282 280.5 240.5 c 128,-1,30
 320 199 320 199 320 142 c 0,0,1
EndSplineSet
EndChar

StartChar: six
Encoding: 54 54 25
Width: 357
GlyphClass: 2
Flags: W
LayerCount: 2
Fore
SplineSet
320 137 m 0,0,1
 320 78 320 78 281.5 36 c 128,-1,2
 243 -6 243 -6 184 -6 c 0,3,4
 36 -6 36 -6 36 199 c 0,5,6
 36 298 36 298 66 364 c 0,7,8
 107 450 107 450 196 450 c 0,9,10
 243 450 243 450 280 424 c 0,11,12
 320 393 320 393 320 348 c 1,13,-1
 290 348 l 1,14,15
 290 382 290 382 259 403 c 0,16,17
 231 422 231 422 196 422 c 0,18,19
 138 422 138 422 99 356 c 0,20,21
 66 300 66 300 66 239 c 2,22,-1
 66 199 l 1,23,24
 80 236 80 236 112.5 257.5 c 128,-1,25
 145 279 145 279 184 279 c 0,26,27
 242 279 242 279 281 237 c 128,-1,28
 320 195 320 195 320 137 c 0,0,1
293 137 m 0,29,30
 293 184 293 184 262 219 c 128,-1,31
 231 254 231 254 184 254 c 0,32,33
 138 254 138 254 107 219 c 128,-1,34
 76 184 76 184 76 137 c 0,35,36
 76 89 76 89 106.5 54.5 c 128,-1,37
 137 20 137 20 184 20 c 0,38,39
 230 20 230 20 261.5 55.5 c 128,-1,40
 293 91 293 91 293 137 c 0,29,30
EndSplineSet
EndChar

StartChar: seven
Encoding: 55 55 26
Width: 360
GlyphClass: 2
Flags: W
LayerCount: 2
Fore
SplineSet
316 416 m 1,0,1
 237 336 237 336 189 225 c 0,2,3
 140 110 140 110 140 0 c 1,4,-1
 105 0 l 1,5,6
 105 107 105 107 158 224 c 0,7,8
 207 333 207 333 285 416 c 1,9,-1
 43 416 l 1,10,-1
 43 445 l 1,11,-1
 316 445 l 1,12,-1
 316 416 l 1,0,1
EndSplineSet
EndChar

StartChar: eight
Encoding: 56 56 27
Width: 357
GlyphClass: 2
Flags: W
LayerCount: 2
Fore
SplineSet
320 119 m 2,0,1
 325 71 325 71 279 31 c 0,2,3
 237 -6 237 -6 179 -6 c 0,4,5
 123 -6 123 -6 81 28 c 0,6,7
 36 65 36 65 36 119 c 0,8,9
 36 200 36 200 124 239 c 1,10,11
 56 272 56 272 56 335 c 0,12,13
 56 383 56 383 93.5 416.5 c 128,-1,14
 131 450 131 450 179 450 c 0,15,16
 226 450 226 450 263 417 c 128,-1,17
 300 384 300 384 300 335 c 0,18,19
 300 271 300 271 233 239 c 1,20,21
 267 226 267 226 297 192 c 0,22,23
 309 175 309 175 315 157 c 2,24,-1
 318 139 l 1,25,-1
 320 119 l 2,0,1
273 338 m 0,26,27
 273 376 273 376 245 400.5 c 128,-1,28
 217 425 217 425 179 425 c 0,29,30
 142 425 142 425 113.5 399 c 128,-1,31
 85 373 85 373 85 338 c 0,32,33
 85 300 85 300 112.5 275.5 c 128,-1,34
 140 251 140 251 179 251 c 0,35,36
 214 251 214 251 243.5 277 c 128,-1,37
 273 303 273 303 273 338 c 0,26,27
293 119 m 256,38,39
 293 162 293 162 258 192 c 128,-1,40
 223 222 223 222 179 222 c 256,41,42
 135 222 135 222 99.5 192 c 128,-1,43
 64 162 64 162 64 119 c 0,44,45
 64 77 64 77 101 47 c 0,46,47
 135 20 135 20 179 20 c 256,48,49
 223 20 223 20 258 48 c 128,-1,50
 293 76 293 76 293 119 c 256,38,39
EndSplineSet
EndChar

StartChar: nine
Encoding: 57 57 28
Width: 357
GlyphClass: 2
Flags: W
LayerCount: 2
Fore
SplineSet
320 228 m 0,0,1
 320 135 320 135 293 76 c 0,2,3
 255 -6 255 -6 173 -6 c 0,4,5
 127 -6 127 -6 93.5 20 c 128,-1,6
 60 46 60 46 47 91 c 1,7,-1
 76 91 l 1,8,9
 81 65 81 65 109 38 c 0,10,11
 136 17 136 17 173 17 c 0,12,13
 231 17 231 17 265 82 c 0,14,15
 293 136 293 136 293 199 c 2,16,-1
 293 243 l 1,17,18
 279 206 279 206 248 183 c 128,-1,19
 217 160 217 160 179 160 c 0,20,21
 115 160 115 160 75.5 199 c 128,-1,22
 36 238 36 238 36 301 c 0,23,24
 36 366 36 366 75.5 405.5 c 128,-1,25
 115 445 115 445 179 445 c 0,26,27
 255 445 255 445 292 370 c 0,28,29
 320 313 320 313 320 228 c 0,0,1
281 301 m 256,30,31
 281 346 281 346 250 381 c 128,-1,32
 219 416 219 416 176 416 c 0,33,34
 126 416 126 416 94.5 383.5 c 128,-1,35
 63 351 63 351 64 301 c 2,36,-1
 65 276 l 1,37,-1
 66 267 l 1,38,-1
 71 250 l 2,39,40
 77 237 77 237 94 218 c 0,41,42
 124 188 124 188 176 188 c 0,43,44
 221 188 221 188 251 222 c 128,-1,45
 281 256 281 256 281 301 c 256,30,31
EndSplineSet
EndChar

StartChar: colon
Encoding: 58 58 29
Width: 198
GlyphClass: 2
Flags: W
LayerCount: 2
Fore
SplineSet
144 330 m 0,0,1
 144 306 144 306 134 285 c 0,2,3
 121 260 121 260 99 260 c 0,4,5
 81 260 81 260 67 280 c 1,6,-1
 59 299 l 1,7,-1
 54 330 l 2,8,9
 54 354 54 354 65 374 c 0,10,11
 78 400 78 400 99 400 c 0,12,13
 111 400 111 400 131 379 c 1,14,-1
 139 360 l 2,15,16
 144 348 144 348 144 330 c 0,0,1
144 70 m 0,17,18
 144 46 144 46 134 25 c 0,19,20
 121 0 121 0 99 0 c 0,21,22
 81 0 81 0 67 20 c 1,23,-1
 59 39 l 1,24,-1
 54 70 l 2,25,26
 54 94 54 94 65 114 c 0,27,28
 78 140 78 140 99 140 c 0,29,30
 111 140 111 140 131 119 c 1,31,-1
 139 100 l 2,32,33
 144 88 144 88 144 70 c 0,17,18
EndSplineSet
EndChar

StartChar: semicolon
Encoding: 59 59 30
Width: 242
GlyphClass: 2
Flags: W
LayerCount: 2
Fore
SplineSet
188 330 m 0,0,1
 188 306 188 306 178 285 c 0,2,3
 165 260 165 260 143 260 c 0,4,5
 125 260 125 260 111 280 c 1,6,-1
 103 299 l 1,7,-1
 98 330 l 2,8,9
 98 354 98 354 109 374 c 0,10,11
 122 400 122 400 143 400 c 0,12,13
 155 400 155 400 175 379 c 1,14,-1
 183 360 l 2,15,16
 188 348 188 348 188 330 c 0,0,1
188 65 m 0,17,18
 188 -94 188 -94 78 -170 c 0,19,20
 70 -175 70 -175 58 -165 c 1,21,-1
 57 -161 l 1,22,-1
 53 -150 l 1,23,24
 55 -141 55 -141 63 -135 c 0,25,26
 153 -72 153 -72 153 0 c 1,27,28
 127 -3 127 -3 110 18 c 128,-1,29
 93 39 93 39 93 65 c 0,30,31
 93 90 93 90 106 112.5 c 128,-1,32
 119 135 119 135 143 135 c 0,33,34
 155 135 155 135 175 114 c 1,35,-1
 183 95 l 2,36,37
 188 83 188 83 188 65 c 0,17,18
EndSplineSet
EndChar

StartChar: less
Encoding: 60 60 31
Width: 567
GlyphClass: 2
Flags: W
LayerCount: 2
Fore
SplineSet
371 345 m 0,0,1
 371 338 371 338 365 329 c 1,2,-1
 347 321 l 2,3,4
 342 321 342 321 331 327 c 0,5,6
 328 331 328 331 311 335 c 1,7,-1
 286 334 l 1,8,-1
 151 201 l 1,9,-1
 283 68 l 1,10,-1
 297 63 l 1,11,12
 312 63 312 63 325 76 c 0,13,14
 332 83 332 83 343 83 c 0,15,16
 367 83 367 83 367 59 c 0,17,18
 367 53 367 53 360 43 c 1,19,-1
 305 13 l 1,20,-1
 294 -7 l 1,21,22
 282 -38 282 -38 275 -44 c 128,-1,23
 268 -50 268 -50 258 -50 c 0,24,25
 241 -50 241 -50 234 -26 c 0,26,27
 234 -20 234 -20 241 -9 c 0,28,29
 255 3 255 3 255 22 c 0,30,31
 255 29 255 29 250 34 c 2,32,-1
 83 201 l 1,33,-1
 253 370 l 1,34,-1
 258 383 l 1,35,36
 258 398 258 398 245 412 c 0,37,38
 239 418 239 418 238 429 c 0,39,40
 238 453 238 453 262 453 c 1,41,-1
 279 447 l 1,42,-1
 309 392 l 2,43,44
 311 391 311 391 315 388.5 c 128,-1,45
 319 386 319 386 328 381 c 0,46,47
 359 369 359 369 364 361 c 0,48,49
 371 357 371 357 371 345 c 0,0,1
EndSplineSet
EndChar

StartChar: equal
Encoding: 61 61 32
Width: 558
GlyphClass: 2
Flags: W
LayerCount: 2
Fore
SplineSet
504 315 m 0,0,1
 504 290 504 290 484 290 c 2,2,-1
 84 290 l 2,3,4
 54 290 54 290 54 310 c 256,5,6
 54 330 54 330 79 330 c 2,7,-1
 489 330 l 2,8,9
 504 328 504 328 504 315 c 0,0,1
504 115 m 0,10,11
 504 90 504 90 484 90 c 2,12,-1
 84 90 l 2,13,14
 54 90 54 90 54 110 c 256,15,16
 54 130 54 130 79 130 c 2,17,-1
 489 130 l 2,18,19
 504 128 504 128 504 115 c 0,10,11
EndSplineSet
EndChar

StartChar: greater
Encoding: 62 62 33
Width: 657
GlyphClass: 2
Flags: W
LayerCount: 2
Fore
SplineSet
467 201 m 1,0,-1
 300 34 l 2,1,2
 295 28 295 28 295 20 c 0,3,4
 295 3 295 3 309 -9 c 0,5,6
 316 -20 316 -20 316 -26 c 0,7,8
 307 -50 307 -50 292 -50 c 0,9,10
 282 -50 282 -50 275 -44 c 128,-1,11
 268 -38 268 -38 256 -7 c 1,12,-1
 245 13 l 1,13,-1
 190 43 l 1,14,15
 183 53 183 53 183 59 c 0,16,17
 183 83 183 83 208 83 c 0,18,19
 219 82 219 82 225 76 c 0,20,21
 238 63 238 63 253 63 c 1,22,-1
 267 68 l 1,23,-1
 399 201 l 1,24,-1
 264 334 l 1,25,-1
 239 335 l 2,26,27
 232 334 232 334 220 327.5 c 128,-1,28
 208 321 208 321 203 321 c 2,29,-1
 185 328 l 1,30,31
 179 339 179 339 179 345 c 0,32,33
 179 360 179 360 194 369 c 0,34,35
 197 371 197 371 222 381 c 0,36,37
 229 384 229 384 241 392 c 1,38,-1
 271 447 l 1,39,-1
 288 453 l 1,40,41
 312 453 312 453 312 429 c 0,42,43
 311 418 311 418 305 412 c 0,44,45
 292 398 292 398 292 383 c 1,46,-1
 297 370 l 1,47,-1
 467 201 l 1,0,-1
EndSplineSet
EndChar

StartChar: question
Encoding: 63 63 34
Width: 390
GlyphClass: 2
Flags: W
LayerCount: 2
Fore
SplineSet
336 370 m 2,0,1
 336 325 336 325 306 310 c 1,2,-1
 236 260 l 1,3,4
 216 252 216 252 216 230 c 2,5,-1
 216 180 l 2,6,7
 216 160 216 160 196 160 c 256,8,9
 176 160 176 160 176 180 c 2,10,-1
 176 240 l 2,11,12
 176 270 176 270 206 285 c 1,13,-1
 276 335 l 1,14,15
 296 343 296 343 296 370 c 2,16,-1
 296 530 l 2,17,18
 296 560 296 560 266 560 c 2,19,-1
 126 560 l 2,20,21
 96 560 96 560 96 530 c 2,22,-1
 96 400 l 2,23,24
 96 389 96 389 111 372 c 0,25,26
 126 360 126 360 151 360 c 0,27,28
 166 360 166 360 166 340 c 0,29,30
 166 326 166 326 151 320 c 1,31,32
 116 320 116 320 83 344 c 0,33,34
 56 368 56 368 56 400 c 2,35,-1
 56 530 l 2,36,37
 56 559 56 559 76.5 579.5 c 128,-1,38
 97 600 97 600 126 600 c 2,39,-1
 266 600 l 2,40,41
 292 600 292 600 314 578 c 128,-1,42
 336 556 336 556 336 530 c 2,43,-1
 336 370 l 2,0,1
241 70 m 0,44,45
 241 46 241 46 231 25 c 0,46,47
 218 0 218 0 196 0 c 0,48,49
 171 0 171 0 158 24 c 0,50,51
 146 44 146 44 146 70 c 0,52,53
 146 93 146 93 160 114 c 128,-1,54
 174 135 174 135 196 135 c 0,55,56
 209 135 209 135 228 116 c 1,57,-1
 236 99 l 2,58,59
 241 88 241 88 241 70 c 0,44,45
EndSplineSet
EndChar

StartChar: at
Encoding: 64 64 35
Width: 650
GlyphClass: 2
Flags: W
LayerCount: 2
Fore
SplineSet
626 6 m 1,0,1
 621 -5 621 -5 606 -27 c 0,2,3
 583 -58 583 -58 529 -91 c 0,4,5
 511 -102 511 -102 482 -114 c 0,6,7
 468 -119 468 -119 420 -129 c 0,8,9
 391 -134 391 -134 350 -134 c 2,10,-1
 309 -134 l 1,11,-1
 272 -129 l 2,12,13
 260 -129 260 -129 222 -117 c 0,14,15
 106 -80 106 -80 61 19 c 0,16,17
 34 78 34 78 34 146 c 0,18,19
 34 228 34 228 70 300 c 0,20,21
 107 377 107 377 174 420 c 0,22,23
 245 466 245 466 344 466 c 0,24,25
 510 466 510 466 581 341 c 0,26,27
 611 288 611 288 611 222 c 0,28,29
 611 134 611 134 547 62 c 0,30,31
 490 -2 490 -2 423 -2 c 2,32,-1
 414 -2 l 1,33,-1
 402 0 l 1,34,-1
 388 5 l 2,35,36
 377 12 377 12 370 22 c 0,37,38
 363 36 363 36 363 51 c 1,39,40
 347 33 347 33 318 14 c 1,41,-1
 292 2 l 1,42,-1
 267 -1 l 1,43,44
 201 -1 201 -1 170 65 c 0,45,46
 154 99 154 99 154 139 c 0,47,48
 154 189 154 189 177 237 c 0,49,50
 202 289 202 289 242.5 313.5 c 128,-1,51
 283 338 283 338 316 338 c 2,52,-1
 344 335 l 2,53,54
 358 332 358 332 369 324 c 0,55,56
 389 313 389 313 410 281 c 1,57,-1
 421 330 l 1,58,-1
 477 330 l 1,59,-1
 422 72 l 2,60,61
 422 64 422 64 429 57.5 c 128,-1,62
 436 51 436 51 444 51 c 0,63,64
 460 51 460 51 484 67 c 0,65,66
 505 81 505 81 518.5 98 c 128,-1,67
 532 115 532 115 544 137 c 0,68,69
 565 178 565 178 565 224 c 0,70,71
 565 336 565 336 457 393 c 0,72,73
 403 421 403 421 342 421 c 0,74,75
 184 421 184 421 115 288 c 0,76,77
 81 223 81 223 81 152 c 0,78,79
 81 86 81 86 98 50 c 0,80,81
 134 -28 134 -28 210 -60 c 0,82,83
 276 -88 276 -88 350 -88 c 0,84,85
 497 -88 497 -88 570 6 c 1,86,-1
 626 6 l 1,0,1
392 203 m 0,87,88
 392 239 392 239 374 264 c 0,89,90
 354 293 354 293 320 293 c 0,91,92
 281 293 281 293 249 250 c 0,93,94
 229 222 229 222 222 194 c 2,95,-1
 215 164 l 1,96,-1
 212 136 l 2,97,98
 212 102 212 102 227 76 c 0,99,100
 246 46 246 46 278 46 c 0,101,102
 319 46 319 46 351 84 c 0,103,104
 392 132 392 132 392 203 c 0,87,88
EndSplineSet
EndChar

StartChar: A
Encoding: 65 65 36
Width: 604
GlyphClass: 2
Flags: W
LayerCount: 2
Fore
SplineSet
301 472 m 1,0,1
 290 449 290 449 280.5 425 c 128,-1,2
 271 401 271 401 260 377 c 0,3,4
 250 352 250 352 240 328.5 c 128,-1,5
 230 305 230 305 219 281 c 1,6,-1
 379 281 l 1,7,-1
 301 472 l 1,0,1
515 94 m 2,8,9
 535 46 535 46 564 40 c 2,10,-1
 575 37 l 2,11,12
 577 36 577 36 579 35.5 c 128,-1,13
 581 35 581 35 584 35 c 2,14,-1
 586 34 l 1,15,-1
 590 34 l 2,16,17
 605 32 605 32 605 13 c 0,18,19
 605 2 605 2 601.5 -1.5 c 128,-1,20
 598 -5 598 -5 586 -5 c 0,21,22
 581 -5 581 -5 573 -3 c 128,-1,23
 565 -1 565 -1 553 2 c 0,24,25
 540 6 540 6 530 7.5 c 128,-1,26
 520 9 520 9 514 9 c 0,27,28
 497 9 497 9 475 2 c 0,29,30
 462 -1 462 -1 453.5 -3 c 128,-1,31
 445 -5 445 -5 440 -5 c 0,32,33
 430 -5 430 -5 426 -1.5 c 128,-1,34
 422 2 422 2 422 16 c 0,35,36
 422 33 422 33 438 34 c 2,37,-1
 443 35 l 1,38,-1
 456 38 l 2,39,40
 469 41 469 41 469 51 c 0,41,42
 469 53 469 53 467 57 c 2,43,-1
 467 60 l 2,44,45
 466 62 466 62 466 62 c 2,46,47
 466 63 466 63 465.5 63.5 c 128,-1,48
 465 64 465 64 465 65 c 0,49,50
 465 71 465 71 462.5 77 c 128,-1,51
 460 83 460 83 456 90 c 2,52,-1
 394 240 l 1,53,-1
 201 240 l 1,54,-1
 130 77 l 1,55,-1
 127 69 l 2,56,57
 126 67 126 67 125.5 66 c 128,-1,58
 125 65 125 65 124 63 c 2,59,-1
 124 58 l 2,60,61
 123 56 123 56 123 53 c 0,62,63
 123 47 123 47 126 44 c 2,64,-1
 126 45 l 2,65,66
 127 44 127 44 136 40 c 1,67,-1
 135 40 l 1,68,-1
 157 35 l 2,69,70
 158 35 158 35 158.5 34.5 c 128,-1,71
 159 34 159 34 160 34 c 2,72,-1
 161 34 l 2,73,74
 178 33 178 33 178 13 c 0,75,76
 178 2 178 2 175 -1.5 c 128,-1,77
 172 -5 172 -5 161 -5 c 0,78,79
 155 -5 155 -5 146 -3 c 128,-1,80
 137 -1 137 -1 123 2 c 0,81,82
 110 6 110 6 100 7.5 c 128,-1,83
 90 9 90 9 84 9 c 0,84,85
 61 9 61 9 36 2 c 256,86,87
 11 -5 11 -5 -1 -5 c 0,88,89
 -10 -5 -10 -5 -12.5 -1.5 c 128,-1,90
 -15 2 -15 2 -15 15 c 0,91,92
 -15 33 -15 33 2 34 c 2,93,-1
 4 34 l 1,94,-1
 26 39 l 2,95,96
 59 47 59 47 87 106 c 2,97,-1
 267 512 l 2,98,99
 272 520 272 520 275.5 531.5 c 128,-1,100
 279 543 279 543 284 557 c 0,101,102
 294 586 294 586 307 586 c 0,103,104
 312 586 312 586 319 575.5 c 128,-1,105
 326 565 326 565 331 546 c 0,106,107
 339 512 339 512 351 486 c 2,108,-1
 515 94 l 2,8,9
EndSplineSet
EndChar

StartChar: B
Encoding: 66 66 37
Width: 522
GlyphClass: 2
Flags: W
LayerCount: 2
Fore
SplineSet
171 321 m 1,0,-1
 174 321 l 2,1,2
 176 320 176 320 178 320 c 2,3,-1
 196 320 l 2,4,5
 273 320 273 320 313 349 c 128,-1,6
 353 378 353 378 353 433 c 0,7,8
 353 486 353 486 319 515 c 128,-1,9
 285 544 285 544 222 544 c 2,10,-1
 199 543 l 2,11,12
 195 543 195 543 188 543 c 128,-1,13
 181 543 181 543 171 541 c 1,14,-1
 171 321 l 1,0,-1
171 284 m 1,15,-1
 171 104 l 2,16,17
 171 64 171 64 193 46.5 c 128,-1,18
 215 29 215 29 265 29 c 0,19,20
 298 29 298 29 325.5 38 c 128,-1,21
 353 47 353 47 372 63 c 0,22,23
 388 80 388 80 398.5 103.5 c 128,-1,24
 409 127 409 127 409 155 c 0,25,26
 409 285 409 285 199 285 c 2,27,-1
 180 285 l 1,28,-1
 171 284 l 1,15,-1
414 446 m 0,29,30
 414 402 414 402 387 366.5 c 128,-1,31
 360 331 360 331 312 310 c 1,32,33
 389 295 389 295 429 257 c 128,-1,34
 469 219 469 219 469 156 c 0,35,36
 469 81 469 81 413 37 c 0,37,38
 356 -8 356 -8 265 -8 c 0,39,40
 252 -8 252 -8 237 -6.5 c 128,-1,41
 222 -5 222 -5 200 -2 c 2,42,-1
 170 1 l 1,43,-1
 168 1 l 2,44,45
 160 3 160 3 154 3 c 128,-1,46
 148 3 148 3 146 3 c 0,47,48
 126 3 126 3 107 2 c 128,-1,49
 88 1 88 1 70 -2 c 2,50,-1
 27 -6 l 2,51,52
 10 -6 10 -6 10 11 c 256,53,54
 10 28 10 28 31 31 c 2,55,-1
 83 35 l 2,56,57
 102 35 102 35 110 44 c 0,58,59
 117 53 117 53 117 76 c 2,60,-1
 117 525 l 2,61,62
 117 538 117 538 86 544 c 2,63,-1
 81 545 l 2,64,65
 78 546 78 546 74.5 546 c 128,-1,66
 71 546 71 546 68 547 c 2,67,-1
 59 549 l 2,68,69
 57 549 57 549 55 550 c 2,70,-1
 56 550 l 1,71,-1
 53 550 l 2,72,73
 38 553 38 553 38 568 c 0,74,75
 38 580 38 580 41 582.5 c 128,-1,76
 44 585 44 585 54 586 c 2,77,-1
 84 581 l 2,78,79
 99 579 99 579 113.5 578 c 128,-1,80
 128 577 128 577 142 577 c 2,81,-1
 157 577 l 2,82,83
 172 579 172 579 181.5 579 c 128,-1,84
 191 579 191 579 196 579 c 0,85,86
 202 579 202 579 211 579 c 128,-1,87
 220 579 220 579 228 580 c 256,88,89
 236 581 236 581 242 581 c 128,-1,90
 248 581 248 581 251 581 c 0,91,92
 325 581 325 581 370 545 c 0,93,94
 391 527 391 527 402.5 502.5 c 128,-1,95
 414 478 414 478 414 446 c 0,29,30
EndSplineSet
EndChar

StartChar: C
Encoding: 67 67 38
Width: 639
GlyphClass: 2
Flags: W
LayerCount: 2
Fore
SplineSet
570 18 m 1,0,1
 543 13 543 13 516.5 8 c 128,-1,2
 490 3 490 3 465 0 c 0,3,4
 440 -4 440 -4 419.5 -6 c 128,-1,5
 399 -8 399 -8 382 -8 c 0,6,7
 301 -8 301 -8 239.5 12 c 128,-1,8
 178 32 178 32 132 71 c 0,9,10
 43 149 43 149 43 292 c 0,11,12
 43 432 43 432 128 508 c 0,13,14
 215 585 215 585 371 585 c 0,15,16
 414 585 414 585 479 576 c 0,17,18
 511 571 511 571 532.5 568 c 128,-1,19
 554 565 554 565 566 565 c 1,20,-1
 574 481 l 1,21,-1
 574 470 l 2,22,23
 574 454 574 454 554 454 c 0,24,25
 543 454 543 454 538 464 c 0,26,27
 536 464 536 464 534 474 c 2,28,-1
 528 497 l 2,29,30
 521 517 521 517 478 533 c 1,31,-1
 479 533 l 1,32,33
 454 541 454 541 425 545 c 128,-1,34
 396 549 396 549 361 549 c 0,35,36
 302 549 302 549 256 531.5 c 128,-1,37
 210 514 210 514 176 481 c 0,38,39
 107 410 107 410 107 294 c 0,40,41
 107 172 107 172 180 102 c 0,42,43
 255 30 255 30 380 30 c 0,44,45
 445 30 445 30 485.5 44.5 c 128,-1,46
 526 59 526 59 540 88 c 0,47,48
 542 94 542 94 544 100 c 128,-1,49
 546 106 546 106 548 114 c 0,50,51
 554 135 554 135 573 135 c 0,52,53
 593 135 593 135 593 121 c 2,54,-1
 593 114 l 1,55,-1
 593 111 l 1,56,-1
 570 18 l 1,0,1
EndSplineSet
EndChar

StartChar: D
Encoding: 68 68 39
Width: 686
GlyphClass: 2
Flags: W
LayerCount: 2
Fore
SplineSet
173 119 m 2,0,1
 173 70 173 70 201 49 c 0,2,3
 231 31 231 31 312 31 c 0,4,5
 373 31 373 31 421 48 c 128,-1,6
 469 65 469 65 503 100 c 0,7,8
 575 167 575 167 575 287 c 0,9,10
 575 408 575 408 501 477 c 0,11,12
 425 545 425 545 294 545 c 2,13,-1
 276 545 l 1,14,-1
 272 545 l 2,15,16
 270 545 270 545 268 544.5 c 128,-1,17
 266 544 266 544 264 544 c 2,18,-1
 245 544 l 2,19,20
 243 544 243 544 241 543.5 c 128,-1,21
 239 543 239 543 237 543 c 0,22,23
 227 543 227 543 215 542.5 c 128,-1,24
 203 542 203 542 189 541 c 2,25,-1
 173 539 l 1,26,-1
 173 119 l 2,0,1
69 38 m 2,27,28
 83 38 83 38 92.5 41 c 128,-1,29
 102 44 102 44 107 49 c 0,30,31
 118 58 118 58 118 83 c 2,32,-1
 118 522 l 2,33,34
 118 540 118 540 98 543 c 0,35,36
 91 543 91 543 88 544 c 2,37,-1
 79 545 l 2,38,39
 73 546 73 546 67.5 547 c 128,-1,40
 62 548 62 548 57 549 c 0,41,42
 54 549 54 549 53 550 c 2,43,-1
 54 550 l 1,44,-1
 51 550 l 2,45,46
 37 553 37 553 37 567 c 0,47,48
 37 578 37 578 40.5 581.5 c 128,-1,49
 44 585 44 585 52 585 c 2,50,-1
 87 579 l 2,51,52
 104 577 104 577 121.5 575.5 c 128,-1,53
 139 574 139 574 155 574 c 0,54,55
 157 574 157 574 165 574.5 c 128,-1,56
 173 575 173 575 188 576 c 0,57,58
 203 578 203 578 214.5 578 c 128,-1,59
 226 578 226 578 234 578 c 0,60,61
 255 578 255 578 272.5 578.5 c 128,-1,62
 290 579 290 579 313 581 c 0,63,64
 385 581 385 581 444.5 561.5 c 128,-1,65
 504 542 504 542 549 504 c 0,66,67
 593 466 593 466 616 414 c 128,-1,68
 639 362 639 362 639 299 c 0,69,70
 639 166 639 166 551 79 c 0,71,72
 463 -7 463 -7 327 -7 c 0,73,74
 307 -7 307 -7 283 -5.5 c 128,-1,75
 259 -4 259 -4 229 0 c 0,76,77
 200 5 200 5 180 6.5 c 128,-1,78
 160 8 160 8 150 8 c 0,79,80
 115 8 115 8 69 2 c 2,81,-1
 22 -5 l 2,82,83
 11 -5 11 -5 8 0 c 0,84,85
 7 0 7 0 7 1 c 256,86,87
 7 2 7 2 6.5 3 c 128,-1,88
 6 4 6 4 6 6 c 2,89,-1
 5 13 l 2,90,91
 5 24 5 24 8.5 28 c 128,-1,92
 12 32 12 32 26 34 c 2,93,-1
 69 38 l 2,27,28
EndSplineSet
EndChar

StartChar: E
Encoding: 69 69 40
Width: 486
GlyphClass: 2
Flags: W
LayerCount: 2
Fore
SplineSet
117 518 m 2,0,1
 117 535 117 535 112 538 c 0,2,3
 110 540 110 540 104 541.5 c 128,-1,4
 98 543 98 543 90 545 c 2,5,-1
 75 547 l 2,6,7
 70 548 70 548 66.5 548.5 c 128,-1,8
 63 549 63 549 58 549 c 0,9,10
 39 552 39 552 39 569 c 0,11,12
 39 580 39 580 42 582.5 c 128,-1,13
 45 585 45 585 55 585 c 2,14,-1
 87 581 l 2,15,16
 100 579 100 579 117 578.5 c 128,-1,17
 134 578 134 578 146 578 c 2,18,-1
 189 578 l 1,19,-1
 223 578 l 2,20,21
 249 579 249 579 263.5 579 c 128,-1,22
 278 579 278 579 280 579 c 0,23,24
 290 579 290 579 299 579 c 128,-1,25
 308 579 308 579 317 580 c 0,26,27
 328 581 328 581 343.5 582.5 c 128,-1,28
 359 584 359 584 376 586 c 1,29,30
 376 567 376 567 377.5 547.5 c 128,-1,31
 379 528 379 528 383 505 c 2,32,-1
 384 496 l 2,33,34
 384 482 384 482 366 482 c 0,35,36
 352 482 352 482 348 503 c 2,37,-1
 346 514 l 2,38,39
 341 528 341 528 332 535 c 0,40,41
 320 541 320 541 287 541 c 2,42,-1
 174 541 l 1,43,-1
 174 313 l 1,44,-1
 304 313 l 2,45,46
 333 313 333 313 341 317 c 0,47,48
 350 323 350 323 353 337 c 2,49,-1
 357 351 l 1,50,-1
 357 353 l 1,51,-1
 357 354 l 2,52,53
 357 355 357 355 357.5 355 c 128,-1,54
 358 355 358 355 358 356 c 0,55,56
 361 371 361 371 376 371 c 0,57,58
 386 371 386 371 389 368 c 128,-1,59
 392 365 392 365 392 356 c 2,60,-1
 390 339 l 1,61,-1
 389 302 l 1,62,-1
 389 281 l 1,63,-1
 392 262 l 1,64,-1
 396 235 l 2,65,66
 396 219 396 219 379 219 c 0,67,68
 371 219 371 219 362 225 c 0,69,70
 361 225 361 225 358 237 c 2,71,-1
 355 255 l 2,72,73
 353 257 353 257 351.5 260 c 128,-1,74
 350 263 350 263 348 265 c 2,75,-1
 348 264 l 1,76,77
 340 268 340 268 320 268 c 2,78,-1
 174 268 l 1,79,-1
 174 113 l 2,80,81
 174 69 174 69 190 54 c 0,82,83
 199 47 199 47 219.5 43.5 c 128,-1,84
 240 40 240 40 275 40 c 2,85,-1
 315 40 l 2,86,87
 361 40 361 40 379 48 c 0,88,89
 397 59 397 59 405 85 c 1,90,-1
 405 84 l 1,91,-1
 408 95 l 2,92,93
 414 116 414 116 435 116 c 0,94,95
 450 116 450 116 453 104 c 0,96,97
 453 100 453 100 450.5 90 c 128,-1,98
 448 80 448 80 443 64 c 0,99,100
 438 47 438 47 433.5 30.5 c 128,-1,101
 429 14 429 14 427 -2 c 1,102,103
 413 -2 413 -2 399 -2 c 128,-1,104
 385 -2 385 -2 374 -1 c 0,105,106
 294 2 294 2 279 2 c 0,107,108
 244 2 244 2 218.5 3 c 128,-1,109
 193 4 193 4 173 6 c 0,110,111
 150 5 150 5 119 2.5 c 128,-1,112
 88 0 88 0 62 -5 c 2,113,-1
 40 -8 l 2,114,115
 30 -8 30 -8 28 -6 c 0,116,117
 24 2 24 2 24 9 c 0,118,119
 24 20 24 20 26.5 23.5 c 128,-1,120
 29 27 29 27 43 29 c 2,121,-1
 80 33 l 2,122,123
 100 36 100 36 108.5 45.5 c 128,-1,124
 117 55 117 55 117 80 c 2,125,-1
 117 518 l 2,0,1
EndSplineSet
EndChar

StartChar: F
Encoding: 70 70 41
Width: 457
GlyphClass: 2
Flags: W
LayerCount: 2
Fore
SplineSet
117 519 m 2,0,1
 117 536 117 536 112 539 c 0,2,3
 109 542 109 542 89 545 c 2,4,-1
 90 545 l 2,5,6
 86 546 86 546 81 546 c 128,-1,7
 76 546 76 546 72 547 c 2,8,-1
 59 549 l 1,9,-1
 57 549 l 1,10,-1
 56 550 l 1,11,12
 38 551 38 551 38 567 c 0,13,14
 38 579 38 579 41 581.5 c 128,-1,15
 44 584 44 584 53 584 c 0,16,17
 58 584 58 584 67 583 c 128,-1,18
 76 582 76 582 91 580 c 0,19,20
 107 579 107 579 120 578.5 c 128,-1,21
 133 578 133 578 144 578 c 2,22,-1
 192 578 l 1,23,-1
 226 578 l 2,24,25
 252 579 252 579 267 579 c 128,-1,26
 282 579 282 579 284 579 c 0,27,28
 301 579 301 579 322.5 580.5 c 128,-1,29
 344 582 344 582 379 586 c 1,30,31
 379 563 379 563 380.5 542 c 128,-1,32
 382 521 382 521 387 495 c 2,33,-1
 388 487 l 2,34,35
 388 480 388 480 384 476 c 0,36,37
 374 472 374 472 369 472 c 0,38,39
 353 472 353 472 351 500 c 2,40,-1
 351 506 l 1,41,42
 347 527 347 527 335 534 c 0,43,44
 324 541 324 541 291 541 c 2,45,-1
 174 541 l 1,46,-1
 174 309 l 1,47,-1
 294 309 l 2,48,49
 308 309 308 309 317.5 310.5 c 128,-1,50
 327 312 327 312 332 313 c 0,51,52
 339 318 339 318 344 334 c 0,53,54
 344 338 344 338 346 342 c 2,55,-1
 348 349 l 1,56,-1
 350 353 l 1,57,-1
 349 353 l 1,58,59
 352 368 352 368 366 368 c 0,60,61
 369 368 369 368 373 367 c 128,-1,62
 377 366 377 366 379 365 c 0,63,64
 383 361 383 361 383 354 c 2,65,-1
 381 336 l 1,66,-1
 379 298 l 1,67,-1
 379 278 l 1,68,-1
 382 259 l 1,69,-1
 387 231 l 2,70,71
 387 223 387 223 384 220 c 0,72,73
 379 218 379 218 375.5 218 c 128,-1,74
 372 218 372 218 368 218 c 0,75,76
 361 218 361 218 354 221 c 0,77,78
 351 226 351 226 349 236 c 2,79,-1
 345 253 l 2,80,81
 343 260 343 260 336.5 263 c 128,-1,82
 330 266 330 266 311 266 c 2,83,-1
 174 266 l 1,84,-1
 174 88 l 2,85,86
 174 63 174 63 180 54 c 0,87,88
 182 49 182 49 190.5 46 c 128,-1,89
 199 43 199 43 210 41 c 2,90,-1
 227 38 l 2,91,92
 232 37 232 37 236.5 36.5 c 128,-1,93
 241 36 241 36 246 35 c 2,94,-1
 248 34 l 1,95,-1
 252 34 l 2,96,97
 266 32 266 32 266 16 c 0,98,99
 266 1 266 1 263 -2 c 128,-1,100
 260 -5 260 -5 249 -5 c 0,101,102
 241 -5 241 -5 227 -3 c 128,-1,103
 213 -1 213 -1 198 3 c 0,104,105
 165 9 165 9 145 9 c 0,106,107
 139 9 139 9 126.5 7.5 c 128,-1,108
 114 6 114 6 95 1 c 0,109,110
 59 -8 59 -8 41 -8 c 0,111,112
 30 -8 30 -8 27.5 -6 c 128,-1,113
 25 -4 25 -4 23 7 c 0,114,115
 23 26 23 26 43 29 c 2,116,-1
 79 36 l 2,117,118
 103 41 103 41 110 48 c 0,119,120
 117 58 117 58 117 83 c 2,121,-1
 117 519 l 2,0,1
EndSplineSet
EndChar

StartChar: G
Encoding: 71 71 42
Width: 649
GlyphClass: 2
Flags: W
LayerCount: 2
Fore
SplineSet
575 0 m 1,0,-1
 541 1 l 2,1,2
 540 1 540 1 538 1 c 128,-1,3
 536 1 536 1 534 2 c 2,4,-1
 528 2 l 2,5,6
 514 2 514 2 494 0.5 c 128,-1,7
 474 -1 474 -1 446 -3 c 0,8,9
 392 -9 392 -9 369 -9 c 0,10,11
 219 -9 219 -9 130 71 c 0,12,13
 43 150 43 150 43 293 c 0,14,15
 43 431 43 431 130 508 c 256,16,17
 217 585 217 585 377 585 c 0,18,19
 414 585 414 585 471 579 c 2,20,-1
 553 572 l 1,21,-1
 566 492 l 1,22,-1
 568 487 l 1,23,-1
 569 481 l 2,24,25
 569 471 569 471 562 467 c 0,26,27
 559 464 559 464 547 464 c 0,28,29
 541 464 541 464 537.5 467 c 128,-1,30
 534 470 534 470 529 482 c 2,31,-1
 522 503 l 2,32,33
 513 526 513 526 477 537 c 128,-1,34
 441 548 441 548 369 548 c 0,35,36
 238 548 238 548 172 485.5 c 128,-1,37
 106 423 106 423 106 295 c 256,38,39
 106 167 106 167 175 100 c 1,40,41
 241 30 241 30 367 30 c 0,42,43
 447 30 447 30 482.5 44.5 c 128,-1,44
 518 59 518 59 518 91 c 2,45,-1
 518 142 l 2,46,47
 518 147 518 147 515 150 c 128,-1,48
 512 153 512 153 498 155 c 2,49,-1
 476 158 l 1,50,-1
 471 158 l 1,51,52
 455 162 455 162 455 176 c 0,53,54
 455 187 455 187 458.5 190.5 c 128,-1,55
 462 194 462 194 472 194 c 0,56,57
 475 194 475 194 505 188 c 2,58,-1
 511 187 l 2,59,60
 513 187 513 187 515 186.5 c 128,-1,61
 517 186 517 186 519 186 c 0,62,63
 526 185 526 185 531.5 184.5 c 128,-1,64
 537 184 537 184 540 184 c 0,65,66
 553 184 553 184 576 189 c 0,67,68
 585 191 585 191 592 192 c 128,-1,69
 599 193 599 193 604 194 c 0,70,71
 614 194 614 194 617.5 190.5 c 128,-1,72
 621 187 621 187 621 176 c 0,73,74
 621 159 621 159 603 158 c 2,75,-1
 588 155 l 2,76,77
 581 155 581 155 578 149 c 2,78,-1
 578 150 l 2,79,80
 575 142 575 142 575 131 c 2,81,-1
 575 0 l 1,0,-1
EndSplineSet
EndChar

StartChar: H
Encoding: 72 72 43
Width: 712
GlyphClass: 2
Flags: W
LayerCount: 2
Fore
SplineSet
212 545 m 2,0,1
 201 543 201 543 192.5 540 c 128,-1,2
 184 537 184 537 180 532 c 0,3,4
 173 520 173 520 173 498 c 2,5,-1
 173 318 l 1,6,-1
 533 318 l 1,7,-1
 533 498 l 2,8,9
 533 520 533 520 526 532 c 0,10,11
 523 537 523 537 515.5 540 c 128,-1,12
 508 543 508 543 497 545 c 0,13,14
 494 546 494 546 491 546 c 128,-1,15
 488 546 488 546 485 547 c 2,16,-1
 474 549 l 2,17,18
 471 549 471 549 470 550 c 2,19,-1
 471 550 l 1,20,-1
 468 550 l 2,21,22
 453 553 453 553 453 567 c 0,23,24
 453 580 453 580 456 582.5 c 128,-1,25
 459 585 459 585 470 585 c 0,26,27
 487 585 487 585 515 578 c 0,28,29
 549 570 549 570 560 570 c 0,30,31
 569 570 569 570 581 572 c 128,-1,32
 593 574 593 574 609 578 c 0,33,34
 638 585 638 585 652 585 c 0,35,36
 661 585 661 585 664 582 c 0,37,38
 668 576 668 576 668 567 c 0,39,40
 668 553 668 553 653 550 c 2,41,-1
 652 550 l 2,42,43
 650 549 650 549 650 549 c 1,44,-1
 627 545 l 2,45,46
 616 543 616 543 607 540 c 128,-1,47
 598 537 598 537 596 532 c 0,48,49
 590 523 590 523 590 498 c 2,50,-1
 590 85 l 2,51,52
 590 60 590 60 596 51 c 0,53,54
 600 44 600 44 627 39 c 2,55,-1
 648 35 l 2,56,57
 649 34 649 34 650 34 c 2,58,-1
 652 34 l 2,59,60
 668 31 668 31 668 16 c 0,61,62
 668 2 668 2 665 -1.5 c 128,-1,63
 662 -5 662 -5 649 -5 c 0,64,65
 644 -5 644 -5 634 -3 c 128,-1,66
 624 -1 624 -1 608 3 c 0,67,68
 594 8 594 8 581.5 9.5 c 128,-1,69
 569 11 569 11 560 11 c 0,70,71
 552 11 552 11 540.5 9.5 c 128,-1,72
 529 8 529 8 514 3 c 0,73,74
 498 -1 498 -1 487.5 -3 c 128,-1,75
 477 -5 477 -5 471 -5 c 0,76,77
 461 -5 461 -5 457 -1 c 128,-1,78
 453 3 453 3 453 14 c 0,79,80
 453 33 453 33 470 34 c 2,81,-1
 474 35 l 1,82,-1
 497 39 l 2,83,84
 519 44 519 44 526 51 c 0,85,86
 533 63 533 63 533 85 c 2,87,-1
 533 275 l 1,88,-1
 173 275 l 1,89,-1
 173 85 l 2,90,91
 173 62 173 62 180 52 c 0,92,93
 185 44 185 44 211 39 c 2,94,-1
 233 35 l 2,95,96
 233 34 233 34 234 34 c 2,97,-1
 236 34 l 2,98,99
 254 32 254 32 254 16 c 0,100,101
 254 2 254 2 250 -1.5 c 128,-1,102
 246 -5 246 -5 235 -5 c 0,103,104
 229 -5 229 -5 219 -3 c 128,-1,105
 209 -1 209 -1 193 3 c 0,106,107
 177 8 177 8 165.5 9.5 c 128,-1,108
 154 11 154 11 146 11 c 256,109,110
 138 11 138 11 125.5 9.5 c 128,-1,111
 113 8 113 8 97 3 c 0,112,113
 81 -1 81 -1 72 -3 c 128,-1,114
 63 -5 63 -5 59 -5 c 0,115,116
 48 -5 48 -5 44 -1 c 0,117,118
 39 3 39 3 39 14 c 0,119,120
 39 33 39 33 56 34 c 0,121,122
 57 34 57 34 57 35 c 2,123,-1
 80 39 l 2,124,125
 104 43 104 43 110 51 c 0,126,127
 118 61 118 61 118 85 c 2,128,-1
 118 498 l 2,129,130
 118 522 118 522 110 532 c 0,131,132
 107 537 107 537 99 540 c 128,-1,133
 91 543 91 543 80 545 c 0,134,135
 77 546 77 546 74 546 c 128,-1,136
 71 546 71 546 68 547 c 2,137,-1
 59 549 l 2,138,139
 57 549 57 549 56 550 c 2,140,-1
 57 550 l 1,141,-1
 54 550 l 2,142,143
 39 553 39 553 39 567 c 0,144,145
 39 578 39 578 41.5 580.5 c 128,-1,146
 44 583 44 583 55 585 c 0,147,148
 61 585 61 585 72 583.5 c 128,-1,149
 83 582 83 582 99 578 c 0,150,151
 134 570 134 570 146 570 c 0,152,153
 159 570 159 570 193 578 c 0,154,155
 224 585 224 585 236 585 c 0,156,157
 246 585 246 585 250 581.5 c 128,-1,158
 254 578 254 578 254 567 c 0,159,160
 254 553 254 553 237 550 c 0,161,162
 236 550 236 550 235 549 c 2,163,-1
 212 545 l 2,0,1
EndSplineSet
EndChar

StartChar: I
Encoding: 73 73 44
Width: 300
GlyphClass: 2
Flags: W
LayerCount: 2
Fore
SplineSet
215 545 m 2,0,1
 191 540 191 540 184 532 c 0,2,3
 178 523 178 523 178 498 c 2,4,-1
 178 85 l 2,5,6
 178 60 178 60 184 51 c 0,7,8
 187 47 187 47 195 44 c 128,-1,9
 203 41 203 41 214 39 c 2,10,-1
 239 35 l 2,11,12
 257 32 257 32 257 16 c 0,13,14
 257 2 257 2 254 -1.5 c 128,-1,15
 251 -5 251 -5 239 -5 c 0,16,17
 228 -5 228 -5 197 4 c 0,18,19
 168 11 168 11 151 11 c 0,20,21
 140 11 140 11 127.5 9.5 c 128,-1,22
 115 8 115 8 99 3 c 0,23,24
 83 -1 83 -1 74 -3 c 128,-1,25
 65 -5 65 -5 61 -5 c 0,26,27
 49 -5 49 -5 45 -2.5 c 128,-1,28
 41 0 41 0 41 14 c 0,29,30
 41 32 41 32 58 34 c 2,31,-1
 57 34 l 2,32,33
 59 34 59 34 59.5 34.5 c 128,-1,34
 60 35 60 35 61 35 c 2,35,-1
 83 39 l 2,36,37
 105 43 105 43 114 52 c 0,38,39
 121 64 121 64 121 85 c 2,40,-1
 121 498 l 2,41,42
 121 520 121 520 114 531 c 0,43,44
 111 536 111 536 102.5 539 c 128,-1,45
 94 542 94 542 83 545 c 0,46,47
 80 546 80 546 77 546 c 128,-1,48
 74 546 74 546 71 547 c 2,49,-1
 62 549 l 2,50,51
 60 549 60 549 58 550 c 2,52,-1
 59 550 l 1,53,-1
 56 550 l 2,54,55
 43 553 43 553 41 567 c 0,56,57
 41 580 41 580 44.5 582.5 c 128,-1,58
 48 585 48 585 57 585 c 0,59,60
 64 585 64 585 75 583 c 128,-1,61
 86 581 86 581 100 578 c 0,62,63
 134 570 134 570 151 570 c 0,64,65
 167 570 167 570 197 578 c 0,66,67
 226 585 226 585 240 585 c 0,68,69
 251 585 251 585 254 580 c 0,70,71
 257 578 257 578 257 567 c 0,72,73
 257 553 257 553 243 550 c 0,74,75
 241 550 241 550 239 549 c 2,76,-1
 215 545 l 2,0,1
EndSplineSet
EndChar

StartChar: J
Encoding: 74 74 45
Width: 301
GlyphClass: 2
Flags: W
LayerCount: 2
Fore
SplineSet
218 545 m 2,0,1
 193 540 193 540 187 534 c 0,2,3
 183 529 183 529 181 520 c 128,-1,4
 179 511 179 511 177 496 c 2,5,-1
 175 85 l 2,6,7
 174 -21 174 -21 130 -79.5 c 128,-1,8
 86 -138 86 -138 11 -138 c 1,9,-1
 11 -75 l 1,10,-1
 30 -75 l 1,11,-1
 41 -76 l 2,12,13
 85 -76 85 -76 103 -52 c 0,14,15
 120 -29 120 -29 120 43 c 2,16,-1
 120 498 l 2,17,18
 120 522 120 522 114 531 c 0,19,20
 111 536 111 536 102.5 539.5 c 128,-1,21
 94 543 94 543 83 545 c 0,22,23
 80 546 80 546 77 546 c 128,-1,24
 74 546 74 546 72 547 c 2,25,-1
 62 549 l 2,26,27
 60 549 60 549 59 550 c 2,28,-1
 60 550 l 1,29,-1
 57 550 l 2,30,31
 42 553 42 553 42 568 c 0,32,33
 42 580 42 580 45.5 582.5 c 128,-1,34
 49 585 49 585 58 585 c 0,35,36
 64 585 64 585 75 583.5 c 128,-1,37
 86 582 86 582 101 578 c 0,38,39
 118 574 118 574 129.5 572 c 128,-1,40
 141 570 141 570 151 570 c 0,41,42
 168 570 168 570 200 578 c 0,43,44
 216 582 216 582 227.5 583.5 c 128,-1,45
 239 585 239 585 245 585 c 0,46,47
 254 585 254 585 257 581.5 c 128,-1,48
 260 578 260 578 260 568 c 0,49,50
 260 553 260 553 244 550 c 2,51,-1
 242 550 l 1,52,-1
 242 549 l 1,53,-1
 218 545 l 2,0,1
EndSplineSet
EndChar

StartChar: K
Encoding: 75 75 46
Width: 590
GlyphClass: 2
Flags: W
LayerCount: 2
Fore
SplineSet
210 545 m 2,0,1
 186 542 186 542 180 532 c 0,2,3
 173 521 173 521 173 498 c 2,4,-1
 173 85 l 2,5,6
 173 73 173 73 175 64.5 c 128,-1,7
 177 56 177 56 180 50 c 0,8,9
 185 44 185 44 210 39 c 2,10,-1
 233 35 l 2,11,12
 234 34 234 34 235 34 c 2,13,-1
 237 34 l 2,14,15
 254 32 254 32 254 16 c 0,16,17
 254 2 254 2 251 -0.5 c 128,-1,18
 248 -3 248 -3 238 -5 c 0,19,20
 225 -5 225 -5 193 3 c 0,21,22
 176 8 176 8 164.5 9.5 c 128,-1,23
 153 11 153 11 146 11 c 0,24,25
 126 11 126 11 98 4 c 0,26,27
 81 -1 81 -1 71 -3 c 128,-1,28
 61 -5 61 -5 54 -5 c 0,29,30
 45 -5 45 -5 42 -1 c 128,-1,31
 39 3 39 3 39 13 c 0,32,33
 39 33 39 33 55 34 c 2,34,-1
 54 34 l 2,35,36
 56 34 56 34 56.5 34.5 c 128,-1,37
 57 35 57 35 58 35 c 2,38,-1
 80 39 l 2,39,40
 106 43 106 43 112 51 c 0,41,42
 114 56 114 56 116 64 c 128,-1,43
 118 72 118 72 118 85 c 2,44,-1
 118 498 l 2,45,46
 118 521 118 521 111 532 c 0,47,48
 108 537 108 537 99.5 540 c 128,-1,49
 91 543 91 543 80 545 c 0,50,51
 77 546 77 546 74 546 c 128,-1,52
 71 546 71 546 68 547 c 2,53,-1
 58 549 l 2,54,55
 56 549 56 549 55 550 c 2,56,-1
 56 550 l 1,57,-1
 53 550 l 2,58,59
 39 553 39 553 39 568 c 0,60,61
 39 580 39 580 42 582.5 c 128,-1,62
 45 585 45 585 54 585 c 0,63,64
 61 585 61 585 72.5 583 c 128,-1,65
 84 581 84 581 98 578 c 0,66,67
 133 570 133 570 146 570 c 256,68,69
 159 570 159 570 193 578 c 0,70,71
 209 582 209 582 220 583.5 c 128,-1,72
 231 585 231 585 237 585 c 0,73,74
 247 585 247 585 250.5 582 c 128,-1,75
 254 579 254 579 254 568 c 0,76,77
 254 553 254 553 237 550 c 0,78,79
 235 550 235 550 235 549 c 2,80,-1
 210 545 l 2,0,1
493 547 m 2,81,82
 470 542 470 542 441 510 c 2,83,-1
 439 508 l 1,84,-1
 242 303 l 1,85,-1
 454 97 l 2,86,87
 506 46 506 46 533 28 c 256,88,89
 560 10 560 10 589 4 c 1,90,-1
 589 -10 l 1,91,-1
 566 -14 l 1,92,-1
 550 -15 l 2,93,94
 519 -15 519 -15 494 -3 c 0,95,96
 481 4 481 4 464 17 c 128,-1,97
 447 30 447 30 431 45 c 2,98,-1
 180 292 l 1,99,-1
 389 514 l 2,100,101
 389 515 389 515 394 522 c 2,102,-1
 396 524 l 1,103,-1
 398 526 l 1,104,-1
 399 527 l 1,105,-1
 399 526 l 2,106,107
 400 529 400 529 402 535 c 1,108,109
 399 542 399 542 384 545 c 0,110,111
 381 546 381 546 378 546 c 128,-1,112
 375 546 375 546 372 547 c 2,113,-1
 362 549 l 2,114,115
 360 549 360 549 359 550 c 2,116,-1
 360 550 l 1,117,-1
 357 550 l 2,118,119
 342 553 342 553 342 568 c 0,120,121
 342 578 342 578 344.5 581.5 c 128,-1,122
 347 585 347 585 356 585 c 0,123,124
 363 585 363 585 372 583.5 c 128,-1,125
 381 582 381 582 395 579 c 0,126,127
 422 573 422 573 435 573 c 0,128,129
 449 573 449 573 478 579 c 0,130,131
 505 585 505 585 516 585 c 0,132,133
 524 585 524 585 527.5 582 c 128,-1,134
 531 579 531 579 531 569 c 0,135,136
 531 553 531 553 515 552 c 0,137,138
 510 552 510 552 509 551 c 2,139,-1
 493 547 l 2,81,82
EndSplineSet
EndChar

StartChar: L
Encoding: 76 76 47
Width: 455
GlyphClass: 2
Flags: W
LayerCount: 2
Fore
SplineSet
116 498 m 2,0,1
 116 511 116 511 114 519 c 128,-1,2
 112 527 112 527 110 532 c 0,3,4
 107 537 107 537 98.5 539.5 c 128,-1,5
 90 542 90 542 79 545 c 0,6,7
 76 546 76 546 73 546 c 128,-1,8
 70 546 70 546 67 547 c 2,9,-1
 57 549 l 1,10,-1
 51 551 l 2,11,12
 37 553 37 553 37 567 c 0,13,14
 37 578 37 578 40.5 580.5 c 128,-1,15
 44 583 44 583 52 585 c 0,16,17
 59 585 59 585 70.5 583.5 c 128,-1,18
 82 582 82 582 97 578 c 0,19,20
 132 570 132 570 143 570 c 0,21,22
 152 570 152 570 162 571.5 c 128,-1,23
 172 573 172 573 189 578 c 0,24,25
 221 585 221 585 234 585 c 0,26,27
 242 585 242 585 246 582 c 128,-1,28
 250 579 250 579 250 568 c 0,29,30
 250 553 250 553 234 550 c 2,31,-1
 232 550 l 1,32,-1
 232 549 l 1,33,-1
 208 545 l 2,34,35
 197 543 197 543 189 540 c 128,-1,36
 181 537 181 537 178 532 c 0,37,38
 171 521 171 521 171 498 c 2,39,-1
 171 113 l 2,40,41
 171 66 171 66 196 51 c 0,42,43
 221 37 221 37 317 37 c 0,44,45
 365 37 365 37 383 47 c 0,46,47
 391 51 391 51 397.5 61.5 c 128,-1,48
 404 72 404 72 408 85 c 2,49,-1
 410 93 l 2,50,51
 414 116 414 116 439 116 c 0,52,53
 455 116 455 116 455 103 c 0,54,55
 455 94 455 94 446 63 c 0,56,57
 434 27 434 27 428 -2 c 1,58,-1
 358 -2 l 2,59,60
 338 0 338 0 316 0.5 c 128,-1,61
 294 1 294 1 277 1 c 0,62,63
 265 1 265 1 254.5 1.5 c 128,-1,64
 244 2 244 2 233 2 c 2,65,-1
 180 4 l 2,66,67
 177 4 177 4 175 4.5 c 128,-1,68
 173 5 173 5 171 5 c 0,69,70
 151 5 151 5 128 3.5 c 128,-1,71
 105 2 105 2 80 -2 c 2,72,-1
 29 -8 l 2,73,74
 19 -8 19 -8 16 -4 c 0,75,76
 12 0 12 0 12 10 c 0,77,78
 12 22 12 22 15 25 c 128,-1,79
 18 28 18 28 32 29 c 2,80,-1
 80 34 l 2,81,82
 99 36 99 36 107.5 45.5 c 128,-1,83
 116 55 116 55 116 81 c 2,84,-1
 116 498 l 2,0,1
EndSplineSet
EndChar

StartChar: M
Encoding: 77 77 48
Width: 858
GlyphClass: 2
Flags: W
LayerCount: 2
Fore
SplineSet
134 559 m 2,0,1
 135 568 135 568 137.5 575 c 128,-1,2
 140 582 140 582 145 582 c 2,3,-1
 152 581 l 1,4,-1
 155 576 l 1,5,-1
 158 572 l 1,6,-1
 157 572 l 1,7,-1
 431 111 l 1,8,-1
 670 574 l 2,9,10
 674 581 674 581 678 582 c 0,11,12
 687 582 687 582 690 564 c 2,13,-1
 690 560 l 1,14,-1
 764 90 l 2,15,16
 768 71 768 71 777.5 57.5 c 128,-1,17
 787 44 787 44 800 39 c 2,18,-1
 821 35 l 2,19,20
 822 35 822 35 822.5 34.5 c 128,-1,21
 823 34 823 34 824 34 c 2,22,-1
 827 34 l 2,23,24
 842 32 842 32 842 16 c 0,25,26
 842 2 842 2 839 -1 c 128,-1,27
 836 -4 836 -4 826 -4 c 0,28,29
 819 -4 819 -4 784 4 c 0,30,31
 769 8 769 8 756 9.5 c 128,-1,32
 743 11 743 11 733 11 c 0,33,34
 716 11 716 11 688 4 c 0,35,36
 671 -1 671 -1 661 -3 c 128,-1,37
 651 -5 651 -5 644 -5 c 0,38,39
 635 -5 635 -5 632 0 c 0,40,41
 629 4 629 4 629 14 c 0,42,43
 629 30 629 30 645 33 c 2,44,-1
 651 33 l 1,45,-1
 650 33 l 1,46,-1
 660 35 l 1,47,-1
 673 37 l 2,48,49
 688 41 688 41 698 51 c 128,-1,50
 708 61 708 61 708 78 c 2,51,-1
 708 89 l 1,52,-1
 706 92 l 2,53,54
 707 92 707 92 707 95 c 2,55,-1
 707 104 l 1,56,-1
 705 113 l 1,57,-1
 657 451 l 1,58,-1
 441 30 l 2,59,60
 436 22 436 22 434.5 21 c 128,-1,61
 433 20 433 20 430 18 c 0,62,63
 423 18 423 18 423 19 c 2,64,-1
 414 31 l 1,65,-1
 172 448 l 1,66,-1
 149 123 l 2,67,68
 149 121 149 121 148.5 117 c 128,-1,69
 148 113 148 113 148 110 c 2,70,-1
 148 96 l 2,71,72
 148 44 148 44 190 37 c 2,73,-1
 213 34 l 1,74,-1
 216 34 l 2,75,76
 234 31 234 31 234 14 c 0,77,78
 234 5 234 5 230 -1 c 0,79,80
 227 -4 227 -4 220 -5 c 0,81,82
 207 -5 207 -5 176 4 c 0,83,84
 145 11 145 11 123 11 c 0,85,86
 115 11 115 11 104.5 9.5 c 128,-1,87
 94 8 94 8 80 3 c 0,88,89
 50 -5 50 -5 43 -5 c 0,90,91
 33 -5 33 -5 30.5 -1 c 128,-1,92
 28 3 28 3 28 13 c 0,93,94
 28 28 28 28 42 32 c 1,95,-1
 41 32 l 1,96,-1
 47 33 l 1,97,-1
 69 39 l 2,98,99
 80 43 80 43 85.5 53 c 128,-1,100
 91 63 91 63 94 86 c 2,101,-1
 134 559 l 2,0,1
EndSplineSet
EndChar

StartChar: N
Encoding: 78 78 49
Width: 711
GlyphClass: 2
Flags: W
LayerCount: 2
Fore
SplineSet
109 568 m 1,0,-1
 109 574 l 2,1,2
 109 578 109 578 111 581.5 c 128,-1,3
 113 585 113 585 122 586 c 1,4,-1
 127 582 l 1,5,-1
 130 579 l 1,6,-1
 548 107 l 1,7,-1
 548 479 l 2,8,9
 548 509 548 509 537.5 524.5 c 128,-1,10
 527 540 527 540 507 545 c 0,11,12
 504 546 504 546 501.5 546 c 128,-1,13
 499 546 499 546 496 547 c 2,14,-1
 486 549 l 2,15,16
 484 549 484 549 484 550 c 2,17,-1
 482 550 l 2,18,19
 465 553 465 553 465 568 c 0,20,21
 465 579 465 579 467.5 581.5 c 128,-1,22
 470 584 470 584 480 586 c 0,23,24
 486 586 486 586 497 584 c 128,-1,25
 508 582 508 582 522 579 c 0,26,27
 537 574 537 574 548.5 572.5 c 128,-1,28
 560 571 560 571 568 571 c 256,29,30
 576 571 576 571 588.5 572.5 c 128,-1,31
 601 574 601 574 617 579 c 0,32,33
 633 582 633 582 643 584 c 128,-1,34
 653 586 653 586 657 586 c 0,35,36
 664 586 664 586 668 582.5 c 128,-1,37
 672 579 672 579 672 568 c 0,38,39
 672 554 672 554 655 549 c 1,40,-1
 653 549 l 1,41,-1
 632 545 l 2,42,43
 615 542 615 542 604 533 c 1,44,45
 598 522 598 522 598 496 c 2,46,-1
 596 6 l 1,47,-1
 596 -1 l 2,48,49
 596 -7 596 -7 594 -9 c 2,50,-1
 583 -13 l 1,51,-1
 579 -10 l 1,52,-1
 577 -7 l 1,53,-1
 154 470 l 1,54,-1
 154 102 l 2,55,56
 154 85 154 85 156 73.5 c 128,-1,57
 158 62 158 62 161 55 c 0,58,59
 168 44 168 44 196 39 c 2,60,-1
 217 35 l 2,61,62
 218 35 218 35 218 34.5 c 128,-1,63
 218 34 218 34 219 34 c 0,64,65
 237 33 237 33 237 15 c 0,66,67
 237 3 237 3 234 0 c 0,68,69
 231 -5 231 -5 222 -5 c 0,70,71
 217 -5 217 -5 207 -3 c 128,-1,72
 197 -1 197 -1 181 3 c 0,73,74
 166 8 166 8 153.5 9.5 c 128,-1,75
 141 11 141 11 132 11 c 0,76,77
 125 11 125 11 113.5 9.5 c 128,-1,78
 102 8 102 8 85 3 c 0,79,80
 71 -2 71 -2 61 -3.5 c 128,-1,81
 51 -5 51 -5 45 -5 c 0,82,83
 36 -5 36 -5 33 -2 c 128,-1,84
 30 1 30 1 30 15 c 0,85,86
 30 32 30 32 47 34 c 2,87,-1
 50 35 l 1,88,-1
 71 39 l 2,89,90
 89 42 89 42 96 51 c 0,91,92
 98 59 98 59 100.5 72 c 128,-1,93
 103 85 103 85 103 105 c 2,94,-1
 109 568 l 1,0,-1
EndSplineSet
EndChar

StartChar: O
Encoding: 79 79 50
Width: 715
GlyphClass: 2
Flags: W
LayerCount: 2
Fore
SplineSet
356 539 m 256,0,1
 299 539 299 539 251.5 520.5 c 128,-1,2
 204 502 204 502 169 470 c 0,3,4
 100 401 100 401 100 288 c 0,5,6
 100 176 100 176 169 107 c 0,7,8
 240 39 240 39 356 39 c 0,9,10
 470 39 470 39 541 108 c 0,11,12
 612 175 612 175 612 288 c 0,13,14
 612 343 612 343 593.5 389.5 c 128,-1,15
 575 436 575 436 541 470 c 0,16,17
 506 502 506 502 459.5 520.5 c 128,-1,18
 413 539 413 539 356 539 c 256,0,1
356 584 m 0,19,20
 424 584 424 584 480 564.5 c 128,-1,21
 536 545 536 545 580 503 c 0,22,23
 668 419 668 419 668 288 c 0,24,25
 668 155 668 155 580 74 c 0,26,27
 492 -8 492 -8 356 -8 c 0,28,29
 218 -8 218 -8 130 74 c 0,30,31
 43 155 43 155 43 288 c 0,32,33
 43 419 43 419 131 503 c 0,34,35
 216 584 216 584 356 584 c 0,19,20
EndSplineSet
EndChar

StartChar: P
Encoding: 80 80 51
Width: 454
GlyphClass: 2
Flags: W
LayerCount: 2
Fore
SplineSet
182 324 m 1,0,-1
 193 323 l 1,1,-1
 223 322 l 2,2,3
 257 323 257 323 287 330.5 c 128,-1,4
 317 338 317 338 337 352 c 0,5,6
 379 381 379 381 379 437 c 0,7,8
 379 487 379 487 339 515 c 256,9,10
 299 543 299 543 227 543 c 0,11,12
 187 543 187 543 178 540 c 0,13,14
 171 539 171 539 171 525 c 2,15,-1
 171 115 l 2,16,17
 171 78 171 78 181 61 c 0,18,19
 187 53 187 53 199.5 48 c 128,-1,20
 212 43 212 43 229 40 c 2,21,-1
 267 35 l 2,22,23
 281 33 281 33 285 28 c 0,24,25
 289 24 289 24 289 15 c 0,26,27
 289 1 289 1 286.5 -2 c 128,-1,28
 284 -5 284 -5 272 -5 c 0,29,30
 258 -5 258 -5 241 -3 c 128,-1,31
 224 -1 224 -1 203 3 c 0,32,33
 183 8 183 8 169 9.5 c 128,-1,34
 155 11 155 11 149 11 c 0,35,36
 126 11 126 11 95 4 c 0,37,38
 65 -5 65 -5 52 -5 c 0,39,40
 41 -5 41 -5 39.5 0.5 c 128,-1,41
 38 6 38 6 38 15 c 0,42,43
 38 33 38 33 55 34 c 0,44,45
 56 34 56 34 56 35 c 2,46,-1
 79 39 l 2,47,48
 105 43 105 43 111 51 c 0,49,50
 113 56 113 56 115 64 c 128,-1,51
 117 72 117 72 117 85 c 2,52,-1
 117 498 l 2,53,54
 117 521 117 521 110 532 c 0,55,56
 107 537 107 537 98.5 540 c 128,-1,57
 90 543 90 543 79 545 c 2,58,-1
 69 547 l 2,59,60
 63 549 63 549 58 549 c 0,61,62
 56 549 56 549 55 550 c 2,63,-1
 56 550 l 1,64,-1
 53 550 l 2,65,66
 38 553 38 553 38 568 c 0,67,68
 38 580 38 580 41 582.5 c 128,-1,69
 44 585 44 585 54 586 c 2,70,-1
 88 581 l 2,71,72
 105 579 105 579 120.5 577.5 c 128,-1,73
 136 576 136 576 150 576 c 0,74,75
 166 576 166 576 199 579 c 2,76,-1
 257 581 l 2,77,78
 340 581 340 581 384 546 c 128,-1,79
 428 511 428 511 428 442 c 0,80,81
 428 410 428 410 414 381 c 128,-1,82
 400 352 400 352 376 331 c 0,83,84
 323 287 323 287 247 287 c 0,85,86
 234 287 234 287 227 287.5 c 128,-1,87
 220 288 220 288 211 291 c 0,88,89
 204 293 204 293 197 296.5 c 128,-1,90
 190 300 190 300 182 307 c 1,91,-1
 182 324 l 1,0,-1
EndSplineSet
EndChar

StartChar: Q
Encoding: 81 81 52
Width: 714
GlyphClass: 2
Flags: W
LayerCount: 2
Fore
SplineSet
356 539 m 256,0,1
 299 539 299 539 252 520.5 c 128,-1,2
 205 502 205 502 169 470 c 0,3,4
 136 436 136 436 117.5 389.5 c 128,-1,5
 99 343 99 343 99 288 c 0,6,7
 99 178 99 178 168 107 c 1,8,9
 204 76 204 76 252 57.5 c 128,-1,10
 300 39 300 39 356 39 c 0,11,12
 470 39 470 39 541 108 c 0,13,14
 612 175 612 175 612 288 c 0,15,16
 612 343 612 343 593.5 389.5 c 128,-1,17
 575 436 575 436 541 470 c 0,18,19
 506 502 506 502 459.5 520.5 c 128,-1,20
 413 539 413 539 356 539 c 256,0,1
560 57 m 1,21,22
 476 -9 476 -9 362 -9 c 0,23,24
 221 -9 221 -9 131 73 c 0,25,26
 43 156 43 156 43 289 c 0,27,28
 43 419 43 419 130 503 c 0,29,30
 174 545 174 545 229.5 564.5 c 128,-1,31
 285 584 285 584 354 584 c 0,32,33
 495 584 495 584 580 503 c 0,34,35
 669 419 669 419 669 288 c 0,36,37
 669 260 669 260 664 232.5 c 128,-1,38
 659 205 659 205 651 182 c 0,39,40
 642 161 642 161 629 138.5 c 128,-1,41
 616 116 616 116 599 94 c 1,42,43
 613 80 613 80 629 65.5 c 128,-1,44
 645 51 645 51 659 39 c 0,45,46
 667 32 667 32 674 26.5 c 128,-1,47
 681 21 681 21 688 16 c 0,48,49
 693 11 693 11 701.5 7 c 128,-1,50
 710 3 710 3 717 -2 c 1,51,-1
 716 -9 l 1,52,53
 708 -9 708 -9 699 -9.5 c 128,-1,54
 690 -10 690 -10 679 -10 c 2,55,-1
 662 -12 l 2,56,57
 645 -12 645 -12 634 -7 c 128,-1,58
 623 -2 623 -2 612 9 c 2,59,-1
 560 57 l 1,21,22
EndSplineSet
EndChar

StartChar: R
Encoding: 82 82 53
Width: 592
GlyphClass: 2
Flags: W
LayerCount: 2
Fore
SplineSet
172 297 m 1,0,1
 177 297 177 297 180 296.5 c 128,-1,2
 183 296 183 296 188 296 c 2,3,-1
 221 296 l 2,4,5
 293 296 293 296 331 328.5 c 128,-1,6
 369 361 369 361 369 424 c 0,7,8
 369 544 369 544 236 544 c 1,9,-1
 203 543 l 1,10,-1
 195 543 l 2,11,12
 193 543 193 543 186.5 542.5 c 128,-1,13
 180 542 180 542 172 541 c 1,14,-1
 172 297 l 1,0,1
478 111 m 2,15,16
 479 110 479 110 479.5 108.5 c 128,-1,17
 480 107 480 107 481 106 c 0,18,19
 516 62 516 62 548 35 c 128,-1,20
 580 8 580 8 603 0 c 1,21,-1
 603 -15 l 1,22,-1
 591 -15 l 1,23,-1
 584 -15 l 2,24,25
 546 -15 546 -15 513 3.5 c 128,-1,26
 480 22 480 22 445 61 c 2,27,-1
 276 260 l 1,28,-1
 248 261 l 1,29,-1
 229 261 l 2,30,31
 224 261 224 261 219.5 261.5 c 128,-1,32
 215 262 215 262 211 262 c 2,33,-1
 190 261 l 1,34,-1
 172 261 l 1,35,-1
 172 85 l 2,36,37
 172 60 172 60 178 51 c 0,38,39
 180 47 180 47 188.5 44 c 128,-1,40
 197 41 197 41 208 39 c 2,41,-1
 230 35 l 2,42,43
 232 34 232 34 232 34 c 1,44,-1
 235 34 l 2,45,46
 251 33 251 33 251 16 c 0,47,48
 251 3 251 3 248.5 0 c 128,-1,49
 246 -3 246 -3 235 -5 c 0,50,51
 223 -5 223 -5 189 3 c 0,52,53
 173 8 173 8 162 9.5 c 128,-1,54
 151 11 151 11 144 11 c 0,55,56
 136 11 136 11 124.5 9.5 c 128,-1,57
 113 8 113 8 97 3 c 0,58,59
 81 -1 81 -1 70.5 -3 c 128,-1,60
 60 -5 60 -5 54 -5 c 0,61,62
 45 -5 45 -5 42 -1 c 128,-1,63
 39 3 39 3 39 13 c 0,64,65
 39 32 39 32 55 34 c 2,66,-1
 54 34 l 2,67,68
 56 34 56 34 56.5 34.5 c 128,-1,69
 57 35 57 35 58 35 c 2,70,-1
 80 39 l 2,71,72
 106 43 106 43 112 51 c 0,73,74
 114 56 114 56 116 64 c 128,-1,75
 118 72 118 72 118 85 c 2,76,-1
 118 498 l 2,77,78
 118 522 118 522 110 532 c 0,79,80
 107 537 107 537 99 540 c 128,-1,81
 91 543 91 543 80 545 c 0,82,83
 77 546 77 546 74 546 c 128,-1,84
 71 546 71 546 68 547 c 2,85,-1
 58 549 l 2,86,87
 56 549 56 549 55 550 c 2,88,-1
 56 550 l 1,89,-1
 53 550 l 2,90,91
 39 553 39 553 39 568 c 0,92,93
 39 580 39 580 41 582.5 c 128,-1,94
 43 585 43 585 51 585 c 2,95,-1
 85 581 l 2,96,97
 99 579 99 579 115.5 578.5 c 128,-1,98
 132 578 132 578 146 578 c 2,99,-1
 154 578 l 2,100,101
 157 578 157 578 159.5 578.5 c 128,-1,102
 162 579 162 579 166 579 c 2,103,-1
 173 579 l 1,104,-1
 179 579 l 1,105,-1
 199 579 l 2,106,107
 207 579 207 579 214.5 579 c 128,-1,108
 222 579 222 579 231 580 c 2,109,-1
 265 581 l 2,110,111
 344 581 344 581 386 546 c 128,-1,112
 428 511 428 511 428 444 c 0,113,114
 428 399 428 399 403 358 c 128,-1,115
 378 317 378 317 332 287 c 1,116,-1
 478 111 l 2,15,16
EndSplineSet
EndChar

StartChar: S
Encoding: 83 83 54
Width: 463
GlyphClass: 2
Flags: W
LayerCount: 2
Fore
SplineSet
58 9 m 1,0,-1
 53 108 l 1,1,-1
 53 114 l 2,2,3
 53 125 53 125 56 128 c 128,-1,4
 59 131 59 131 67 133 c 0,5,6
 86 133 86 133 91 106 c 1,7,-1
 91 105 l 2,8,9
 92 104 92 104 92 100 c 256,10,11
 92 96 92 96 92.5 94 c 128,-1,12
 93 92 93 92 94 89 c 0,13,14
 102 60 102 60 130.5 45 c 128,-1,15
 159 30 159 30 202 30 c 0,16,17
 266 30 266 30 306 62 c 0,18,19
 346 95 346 95 346 146 c 0,20,21
 346 178 346 178 310.5 211 c 128,-1,22
 275 244 275 244 217 271 c 2,23,-1
 186 284 l 2,24,25
 120 314 120 314 92 348 c 0,26,27
 78 365 78 365 72 386.5 c 128,-1,28
 66 408 66 408 66 432 c 0,29,30
 66 506 66 506 114 544 c 0,31,32
 161 584 161 584 248 584 c 0,33,34
 260 584 260 584 277.5 583.5 c 128,-1,35
 295 583 295 583 313 581 c 2,36,-1
 378 577 l 1,37,-1
 379 488 l 1,38,-1
 379 479 l 2,39,40
 379 474 379 474 375.5 469.5 c 128,-1,41
 372 465 372 465 364 465 c 0,42,43
 358 465 358 465 353 469.5 c 128,-1,44
 348 474 348 474 346 479 c 0,45,46
 345 480 345 480 344 482 c 0,47,48
 342 486 342 486 342 486 c 1,49,-1
 336 503 l 2,50,51
 325 534 325 534 307 541 c 0,52,53
 287 550 287 550 241 550 c 0,54,55
 183 550 183 550 153 521 c 0,56,57
 121 493 121 493 121 446 c 0,58,59
 121 406 121 406 143 383 c 0,60,61
 163 359 163 359 234 330 c 0,62,63
 339 283 339 283 373 248 c 0,64,65
 406 209 406 209 406 159 c 0,66,67
 406 83 406 83 351 37 c 0,68,69
 323 15 323 15 287.5 3.5 c 128,-1,70
 252 -8 252 -8 207 -8 c 0,71,72
 190 -8 190 -8 165.5 -5.5 c 128,-1,73
 141 -3 141 -3 107 2 c 2,74,-1
 58 9 l 1,0,-1
EndSplineSet
EndChar

StartChar: T
Encoding: 84 84 55
Width: 609
GlyphClass: 2
Flags: W
LayerCount: 2
Fore
SplineSet
269 538 m 1,0,-1
 111 538 l 2,1,2
 81 538 81 538 55 530.5 c 128,-1,3
 29 523 29 523 3 504 c 1,4,-1
 2 517 l 1,5,-1
 21 582 l 1,6,-1
 18 585 l 1,7,-1
 25 592 l 1,8,9
 39 582 39 582 48 580 c 0,10,11
 56 579 56 579 63.5 578.5 c 128,-1,12
 71 578 71 578 81 578 c 2,13,-1
 445 578 l 2,14,15
 478 578 478 578 501.5 579 c 128,-1,16
 525 580 525 580 538 582 c 256,17,18
 551 584 551 584 562 589.5 c 128,-1,19
 573 595 573 595 585 603 c 1,20,-1
 585 590 l 1,21,-1
 569 528 l 2,22,23
 570 527 570 527 572 527 c 2,24,-1
 568 518 l 1,25,26
 552 526 552 526 524.5 532 c 128,-1,27
 497 538 497 538 470 538 c 2,28,-1
 328 538 l 1,29,-1
 328 87 l 2,30,31
 328 74 328 74 329.5 66 c 128,-1,32
 331 58 331 58 333 53 c 2,33,-1
 333 54 l 2,34,35
 335 49 335 49 344 46 c 128,-1,36
 353 43 353 43 364 40 c 2,37,-1
 394 35 l 2,38,39
 395 35 395 35 395.5 34.5 c 128,-1,40
 396 34 396 34 397 34 c 2,41,-1
 399 34 l 2,42,43
 413 33 413 33 413 16 c 0,44,45
 413 4 413 4 409 -3 c 0,46,47
 407 -5 407 -5 398 -5 c 0,48,49
 386 -5 386 -5 351 3 c 0,50,51
 336 8 336 8 323 9.5 c 128,-1,52
 310 11 310 11 300 11 c 0,53,54
 289 11 289 11 275.5 9.5 c 128,-1,55
 262 8 262 8 247 4 c 0,56,57
 211 -5 211 -5 198 -5 c 0,58,59
 188 -5 188 -5 185 -1 c 128,-1,60
 182 3 182 3 182 14 c 0,61,62
 182 30 182 30 197 34 c 2,63,-1
 202 35 l 1,64,-1
 232 40 l 2,65,66
 258 46 258 46 263 54 c 0,67,68
 265 59 265 59 267 67 c 128,-1,69
 269 75 269 75 269 87 c 2,70,-1
 269 538 l 1,0,-1
EndSplineSet
EndChar

StartChar: U
Encoding: 85 85 56
Width: 685
GlyphClass: 2
Flags: W
LayerCount: 2
Fore
SplineSet
218 549 m 1,0,-1
 199 545 l 2,1,2
 190 543 190 543 182.5 539 c 128,-1,3
 175 535 175 535 172 530 c 0,4,5
 164 519 164 519 164 485 c 2,6,-1
 164 450 l 2,7,8
 164 323 164 323 175 240 c 128,-1,9
 186 157 186 157 207 113 c 0,10,11
 247 29 247 29 353 29 c 256,12,13
 459 29 459 29 502 127 c 0,14,15
 509 149 509 149 514 169 c 0,16,17
 522 201 522 201 522 230 c 0,18,19
 522 245 522 245 522 264 c 128,-1,20
 522 283 522 283 523 305 c 0,21,22
 523 311 523 311 523.5 318 c 128,-1,23
 524 325 524 325 524 332 c 0,24,25
 526 359 526 359 526.5 384.5 c 128,-1,26
 527 410 527 410 527 427 c 2,27,-1
 527 464 l 2,28,29
 527 515 527 515 521 530 c 0,30,31
 519 537 519 537 512.5 541 c 128,-1,32
 506 545 506 545 500 547 c 0,33,34
 495 547 495 547 493 548 c 2,35,-1
 485 549 l 2,36,37
 484 549 484 549 482 550 c 2,38,-1
 483 550 l 1,39,-1
 479 550 l 2,40,41
 465 551 465 551 465 567 c 0,42,43
 465 581 465 581 467 583 c 128,-1,44
 469 585 469 585 480 585 c 256,45,46
 491 585 491 585 512 579 c 0,47,48
 524 577 524 577 533.5 575.5 c 128,-1,49
 543 574 543 574 549 574 c 0,50,51
 562 574 562 574 590 579 c 2,52,-1
 615 584 l 2,53,54
 616 584 616 584 616.5 584.5 c 128,-1,55
 617 585 617 585 618 585 c 2,56,-1
 625 585 l 2,57,58
 633 585 633 585 636.5 582 c 128,-1,59
 640 579 640 579 640 568 c 0,60,61
 640 551 640 551 625 550 c 2,62,-1
 620 549 l 1,63,-1
 607 545 l 2,64,65
 588 541 588 541 585 524 c 0,66,67
 584 519 584 519 583.5 509.5 c 128,-1,68
 583 500 583 500 582 489 c 0,69,70
 581 476 581 476 581 464 c 128,-1,71
 581 452 581 452 581 443 c 0,72,73
 581 429 581 429 580.5 416.5 c 128,-1,74
 580 404 580 404 580 391 c 0,75,76
 578 353 578 353 577 333.5 c 128,-1,77
 576 314 576 314 576 312 c 0,78,79
 576 260 576 260 571 223 c 128,-1,80
 566 186 566 186 558 157 c 0,81,82
 551 132 551 132 541.5 112.5 c 128,-1,83
 532 93 532 93 518 74 c 0,84,85
 486 34 486 34 443 13 c 128,-1,86
 400 -8 400 -8 346 -8 c 0,87,88
 283 -8 283 -8 235.5 16.5 c 128,-1,89
 188 41 188 41 160 85 c 0,90,91
 149 102 149 102 140.5 125 c 128,-1,92
 132 148 132 148 126 172 c 0,93,94
 122 186 122 186 119.5 203 c 128,-1,95
 117 220 117 220 115 237 c 0,96,97
 112 259 112 259 110.5 284 c 128,-1,98
 109 309 109 309 109 334 c 2,99,-1
 105 425 l 2,100,101
 105 479 105 479 95.5 510.5 c 128,-1,102
 86 542 86 542 72 547 c 2,103,-1
 61 549 l 1,104,-1
 58 549 l 2,105,106
 44 552 44 552 44 567 c 0,107,108
 44 580 44 580 47 582.5 c 128,-1,109
 50 585 50 585 59 585 c 0,110,111
 70 585 70 585 92 578 c 0,112,113
 118 570 118 570 131 570 c 0,114,115
 146 570 146 570 180 578 c 0,116,117
 209 585 209 585 221 585 c 0,118,119
 230 585 230 585 233.5 581.5 c 128,-1,120
 237 578 237 578 237 567 c 0,121,122
 237 553 237 553 223 551 c 2,123,-1
 218 549 l 1,0,-1
EndSplineSet
EndChar

StartChar: V
Encoding: 86 86 57
Width: 622
GlyphClass: 2
Flags: W
LayerCount: 2
Fore
SplineSet
137 550 m 2,0,1
 133 549 133 549 129.5 548 c 128,-1,2
 126 547 126 547 123 546 c 0,3,4
 117 544 117 544 114 542 c 128,-1,5
 111 540 111 540 111 535 c 2,6,-1
 111 530 l 1,7,-1
 113 525 l 1,8,-1
 315 86 l 1,9,-1
 492 503 l 1,10,-1
 497 515 l 1,11,-1
 498 525 l 2,12,13
 497 541 497 541 474 546 c 2,14,-1
 449 549 l 2,15,16
 440 550 440 550 434 555 c 0,17,18
 430 560 430 560 430 568 c 0,19,20
 430 579 430 579 433 581.5 c 128,-1,21
 436 584 436 584 445 585 c 0,22,23
 457 585 457 585 484 579 c 0,24,25
 512 574 512 574 520 574 c 0,26,27
 526 574 526 574 533.5 575.5 c 128,-1,28
 541 577 541 577 555 579 c 0,29,30
 577 585 577 585 591 585 c 0,31,32
 601 585 601 585 602.5 582 c 128,-1,33
 604 579 604 579 604 568 c 0,34,35
 604 560 604 560 601.5 556.5 c 128,-1,36
 599 553 599 553 587 549 c 2,37,-1
 583 548 l 2,38,39
 570 544 570 544 563 537 c 1,40,-1
 563 538 l 1,41,-1
 545 502 l 1,42,43
 491 381 491 381 437 258 c 128,-1,44
 383 135 383 135 329 14 c 1,45,-1
 328 10 l 2,46,47
 322 -6 322 -6 312 -8 c 0,48,49
 301 -8 301 -8 297 7 c 2,50,-1
 296 10 l 1,51,-1
 296 9 l 1,52,-1
 59 506 l 1,53,-1
 60 506 l 1,54,55
 41 541 41 541 23 549 c 1,56,-1
 14 550 l 2,57,58
 11 550 11 550 10 551 c 2,59,-1
 11 551 l 1,60,-1
 9 551 l 2,61,62
 -9 553 -9 553 -9 570 c 0,63,64
 -9 580 -9 580 -6.5 582.5 c 128,-1,65
 -4 585 -4 585 9 585 c 0,66,67
 25 585 25 585 46 579 c 256,68,69
 67 573 67 573 75 573 c 0,70,71
 88 573 88 573 109 579 c 256,72,73
 130 585 130 585 141 585 c 0,74,75
 151 585 151 585 154 582.5 c 128,-1,76
 157 580 157 580 157 569 c 0,77,78
 157 556 157 556 141 551 c 2,79,-1
 137 550 l 2,0,1
EndSplineSet
EndChar

StartChar: W
Encoding: 87 87 58
Width: 865
GlyphClass: 2
Flags: W
LayerCount: 2
Fore
SplineSet
65 500 m 2,0,1
 55 523 55 523 47 535 c 0,2,3
 43 539 43 539 38 541.5 c 128,-1,4
 33 544 33 544 27 547 c 2,5,-1
 12 552 l 1,6,-1
 6 554 l 2,7,8
 -8 559 -8 559 -8 569 c 256,9,10
 -8 579 -8 579 -5.5 581 c 128,-1,11
 -3 583 -3 583 8 585 c 0,12,13
 20 585 20 585 43 579 c 0,14,15
 55 577 55 577 63 575.5 c 128,-1,16
 71 574 71 574 76 574 c 0,17,18
 86 574 86 574 111 579 c 0,19,20
 135 585 135 585 144 585 c 0,21,22
 161 585 161 585 161 571 c 0,23,24
 161 558 161 558 143 554 c 1,25,-1
 142 553 l 1,26,-1
 123 550 l 2,27,28
 108 547 108 547 108 538 c 2,29,-1
 109 533 l 1,30,-1
 109 532 l 2,31,32
 109 531 109 531 110 531 c 2,33,-1
 111 528 l 1,34,-1
 265 101 l 1,35,36
 301 196 301 196 336 289.5 c 128,-1,37
 371 383 371 383 406 479 c 1,38,-1
 389 521 l 2,39,40
 381 541 381 541 352 549 c 2,41,-1
 332 554 l 1,42,-1
 328 554 l 1,43,-1
 327 554 l 2,44,45
 325 555 325 555 325 555 c 1,46,47
 312 556 312 556 312 569 c 0,48,49
 312 578 312 578 314 581.5 c 128,-1,50
 316 585 316 585 326 585 c 0,51,52
 337 585 337 585 370 579 c 0,53,54
 385 577 385 577 397.5 575.5 c 128,-1,55
 410 574 410 574 419 574 c 0,56,57
 427 574 427 574 439 575.5 c 128,-1,58
 451 577 451 577 468 579 c 0,59,60
 484 583 484 583 495 584.5 c 128,-1,61
 506 586 506 586 512 586 c 0,62,63
 520 586 520 586 522 583 c 128,-1,64
 524 580 524 580 526 572 c 0,65,66
 526 558 526 558 513 554 c 2,67,-1
 506 553 l 1,68,-1
 488 548 l 2,69,70
 484 547 484 547 480.5 546 c 128,-1,71
 477 545 477 545 473 544 c 2,72,-1
 468 543 l 2,73,74
 460 541 460 541 455 537 c 128,-1,75
 450 533 450 533 450 527 c 2,76,-1
 450 523 l 1,77,-1
 452 518 l 1,78,79
 490 412 490 412 526.5 311.5 c 128,-1,80
 563 211 563 211 600 105 c 1,81,82
 638 210 638 210 675.5 313 c 128,-1,83
 713 416 713 416 750 522 c 1,84,-1
 754 528 l 2,85,86
 754 533 754 533 755 535 c 2,87,-1
 756 541 l 2,88,89
 754 547 754 547 743 550 c 2,90,-1
 725 554 l 2,91,92
 713 557 713 557 709 560 c 128,-1,93
 705 563 705 563 705 571 c 256,94,95
 705 579 705 579 708 581.5 c 128,-1,96
 711 584 711 584 717 586 c 0,97,98
 732 586 732 586 756 580 c 0,99,100
 768 578 768 578 775.5 576.5 c 128,-1,101
 783 575 783 575 786 575 c 0,102,103
 793 575 793 575 818 580 c 0,104,105
 842 586 842 586 852 586 c 0,106,107
 858 586 858 586 862 579 c 2,108,-1
 863 571 l 2,109,110
 863 556 863 556 849 554 c 0,111,112
 846 554 846 554 845 553.5 c 128,-1,113
 844 553 844 553 843 553 c 2,114,-1
 833 551 l 2,115,116
 823 549 823 549 818 543 c 0,117,118
 813 541 813 541 810.5 537 c 128,-1,119
 808 533 808 533 807 528 c 2,120,-1
 616 15 l 1,121,-1
 611 5 l 2,122,123
 607 -10 607 -10 597 -10 c 0,124,125
 588 -10 588 -10 581 6 c 2,126,-1
 580 10 l 1,127,-1
 509 205 l 2,128,129
 489 258 489 258 469.5 311 c 128,-1,130
 450 364 450 364 430 418 c 1,131,132
 413 367 413 367 394.5 317 c 128,-1,133
 376 267 376 267 357 218 c 2,134,-1
 281 11 l 1,135,-1
 280 7 l 2,136,137
 279 6 279 6 279 6 c 1,138,-1
 279 5 l 1,139,140
 279 5 279 5 278 4 c 0,141,142
 277 2 277 2 277 1.5 c 128,-1,143
 277 1 277 1 276 -1 c 256,144,145
 275 -3 275 -3 275 -4 c 2,146,-1
 274 -6 l 1,147,-1
 274 -5 l 2,148,149
 271 -9 271 -9 269.5 -9.5 c 128,-1,150
 268 -10 268 -10 266 -10 c 0,151,152
 255 -10 255 -10 251 4 c 2,153,-1
 250 8 l 1,154,-1
 65 500 l 2,0,1
EndSplineSet
EndChar

StartChar: X
Encoding: 88 88 59
Width: 623
GlyphClass: 2
Flags: W
LayerCount: 2
Fore
SplineSet
275 297 m 1,0,1
 253 326 253 326 232 354.5 c 128,-1,2
 211 383 211 383 189 412 c 2,3,-1
 102 528 l 2,4,5
 98 533 98 533 90 537 c 128,-1,6
 82 541 82 541 72 543 c 0,7,8
 70 543 70 543 69 544 c 2,9,-1
 66 544 l 1,10,-1
 47 549 l 1,11,-1
 45 549 l 1,12,-1
 42 549 l 2,13,14
 28 552 28 552 28 567 c 0,15,16
 28 578 28 578 31.5 581.5 c 128,-1,17
 35 585 35 585 46 585 c 0,18,19
 54 585 54 585 80 579 c 0,20,21
 107 573 107 573 117 573 c 0,22,23
 133 573 133 573 162 579 c 0,24,25
 192 585 192 585 199 585 c 0,26,27
 211 585 211 585 214.5 582.5 c 128,-1,28
 218 580 218 580 218 571 c 0,29,30
 218 554 218 554 202 550 c 2,31,-1
 197 549 l 1,32,-1
 182 545 l 2,33,34
 177 543 177 543 172.5 541 c 128,-1,35
 168 539 168 539 168 535 c 256,36,37
 168 531 168 531 169 530 c 2,38,-1
 172 526 l 1,39,-1
 177 520 l 1,40,-1
 312 338 l 1,41,-1
 462 528 l 1,42,-1
 465 534 l 1,43,-1
 465 539 l 2,44,45
 465 540 465 540 450 543 c 0,46,47
 447 544 447 544 444.5 544.5 c 128,-1,48
 442 545 442 545 439 546 c 2,49,-1
 427 549 l 1,50,-1
 425 549 l 2,51,52
 424 549 424 549 423.5 549.5 c 128,-1,53
 423 550 423 550 422 550 c 0,54,55
 408 552 408 552 408 567 c 0,56,57
 408 579 408 579 411 581.5 c 128,-1,58
 414 584 414 584 423 585 c 0,59,60
 434 585 434 585 461 579 c 0,61,62
 489 574 489 574 503 574 c 0,63,64
 509 574 509 574 520 575.5 c 128,-1,65
 531 577 531 577 547 579 c 0,66,67
 578 585 578 585 591 585 c 0,68,69
 600 585 600 585 603 580 c 2,70,-1
 603 581 l 1,71,72
 607 578 607 578 607 567 c 0,73,74
 607 552 607 552 592 549 c 2,75,-1
 588 549 l 1,76,-1
 565 544 l 2,77,78
 550 542 550 542 533.5 530 c 128,-1,79
 517 518 517 518 501 500 c 0,80,81
 501 499 501 499 500.5 499 c 128,-1,82
 500 499 500 499 500 498 c 2,83,-1
 499 497 l 1,84,-1
 340 301 l 1,85,86
 381 247 381 247 421.5 194 c 128,-1,87
 462 141 462 141 503 87 c 0,88,89
 517 69 517 69 535 54 c 0,90,91
 542 49 542 49 551 45 c 128,-1,92
 560 41 560 41 567 39 c 2,93,-1
 584 35 l 2,94,95
 584 34 584 34 585 34 c 2,96,-1
 587 34 l 2,97,98
 604 32 604 32 604 16 c 0,99,100
 604 1 604 1 601.5 -2 c 128,-1,101
 599 -5 599 -5 585 -5 c 0,102,103
 580 -5 580 -5 572 -3 c 128,-1,104
 564 -1 564 -1 551 2 c 0,105,106
 526 9 526 9 506 9 c 0,107,108
 491 9 491 9 464 2 c 0,109,110
 450 -1 450 -1 439.5 -3 c 128,-1,111
 429 -5 429 -5 424 -5 c 256,112,113
 419 -5 419 -5 416.5 -4 c 128,-1,114
 414 -3 414 -3 411 -1 c 0,115,116
 408 3 408 3 408 14 c 0,117,118
 408 30 408 30 423 35 c 2,119,-1
 429 36 l 2,120,121
 432 36 432 36 434 37 c 2,122,-1
 433 37 l 1,123,-1
 438 37 l 2,124,125
 446 39 446 39 450 40.5 c 128,-1,126
 454 42 454 42 456 44 c 2,127,-1
 455 44 l 2,128,129
 458 45 458 45 458 50 c 0,130,131
 458 61 458 61 452 66 c 2,132,-1
 305 259 l 1,133,-1
 220 153 l 2,134,135
 203 130 203 130 185.5 109 c 128,-1,136
 168 88 168 88 151 66 c 2,137,-1
 147 60 l 1,138,-1
 145 53 l 2,139,140
 145 48 145 48 151 46 c 128,-1,141
 157 44 157 44 168 40 c 2,142,-1
 190 35 l 1,143,-1
 193 35 l 1,144,145
 209 30 209 30 209 16 c 0,146,147
 209 3 209 3 205.5 -1 c 128,-1,148
 202 -5 202 -5 192 -5 c 0,149,150
 187 -5 187 -5 176.5 -3.5 c 128,-1,151
 166 -2 166 -2 152 3 c 0,152,153
 125 9 125 9 111 9 c 0,154,155
 104 9 104 9 92 7.5 c 128,-1,156
 80 6 80 6 64 2 c 0,157,158
 48 -1 48 -1 37.5 -3 c 128,-1,159
 27 -5 27 -5 22 -5 c 0,160,161
 11 -5 11 -5 9.5 -1 c 128,-1,162
 8 3 8 3 8 12 c 2,163,-1
 8 15 l 2,164,165
 8 33 8 33 24 34 c 0,166,167
 26 35 26 35 28 35 c 2,168,-1
 48 39 l 2,169,170
 61 39 61 39 70 48 c 0,171,172
 83 60 83 60 105 86 c 2,173,-1
 275 297 l 1,0,1
EndSplineSet
EndChar

StartChar: Y
Encoding: 89 89 60
Width: 583
GlyphClass: 2
Flags: W
LayerCount: 2
Fore
SplineSet
258 239 m 1,0,-1
 56 522 l 2,1,2
 49 533 49 533 42 538 c 128,-1,3
 35 543 35 543 28 547 c 2,4,-1
 12 552 l 1,5,-1
 6 554 l 2,6,7
 -9 559 -9 559 -9 569 c 256,8,9
 -9 579 -9 579 -6.5 581 c 128,-1,10
 -4 583 -4 583 7 585 c 0,11,12
 20 585 20 585 41 579 c 0,13,14
 53 577 53 577 61 575.5 c 128,-1,15
 69 574 69 574 74 574 c 0,16,17
 82 574 82 574 91 575.5 c 128,-1,18
 100 577 100 577 113 579 c 0,19,20
 138 585 138 585 149 585 c 0,21,22
 156 585 156 585 158.5 582.5 c 128,-1,23
 161 580 161 580 161 569 c 0,24,25
 161 554 161 554 146 553 c 0,26,27
 143 553 143 553 142 552.5 c 128,-1,28
 141 552 141 552 140 552 c 2,29,-1
 125 549 l 2,30,31
 120 547 120 547 115.5 544.5 c 128,-1,32
 111 542 111 542 111 539 c 0,33,34
 112 538 112 538 113 536 c 256,35,36
 114 534 114 534 114.5 532.5 c 128,-1,37
 115 531 115 531 116 529 c 0,38,39
 161 466 161 466 205.5 404 c 128,-1,40
 250 342 250 342 294 279 c 1,41,42
 314 311 314 311 333 341 c 128,-1,43
 352 371 352 371 372 403 c 2,44,-1
 455 530 l 1,45,-1
 455 529 l 2,46,47
 456 531 456 531 457 534 c 128,-1,48
 458 537 458 537 458 541 c 0,49,50
 458 543 458 543 449 546 c 2,51,-1
 427 552 l 1,52,-1
 426 552 l 2,53,54
 408 555 408 555 408 569 c 0,55,56
 408 579 408 579 410 582 c 128,-1,57
 412 585 412 585 423 585 c 0,58,59
 428 585 428 585 434 584.5 c 128,-1,60
 440 584 440 584 452 581 c 0,61,62
 461 579 461 579 470.5 578.5 c 128,-1,63
 480 578 480 578 485 578 c 0,64,65
 500 578 500 578 523 582 c 0,66,67
 548 589 548 589 558 589 c 0,68,69
 573 589 573 589 573 572 c 0,70,71
 573 564 573 564 569.5 560.5 c 128,-1,72
 566 557 566 557 560 555 c 2,73,-1
 554 554 l 1,74,-1
 531 549 l 2,75,76
 525 547 525 547 522 544 c 0,77,78
 519 542 519 542 515.5 539 c 128,-1,79
 512 536 512 536 510 532 c 2,80,-1
 315 238 l 1,81,-1
 315 86 l 2,82,83
 315 67 315 67 326 55.5 c 128,-1,84
 337 44 337 44 354 39 c 2,85,-1
 375 35 l 2,86,87
 376 35 376 35 376.5 34.5 c 128,-1,88
 377 34 377 34 378 34 c 2,89,-1
 381 34 l 2,90,91
 397 33 397 33 397 16 c 0,92,93
 397 3 397 3 394.5 0 c 128,-1,94
 392 -3 392 -3 381 -5 c 0,95,96
 371 -5 371 -5 337 3 c 0,97,98
 321 8 321 8 309.5 9.5 c 128,-1,99
 298 11 298 11 290 11 c 0,100,101
 279 11 279 11 268.5 9.5 c 128,-1,102
 258 8 258 8 240 4 c 0,103,104
 205 -5 205 -5 196 -5 c 256,105,106
 187 -5 187 -5 183.5 -1 c 128,-1,107
 180 3 180 3 180 16 c 0,108,109
 180 33 180 33 197 34 c 1,110,-1
 200 35 l 1,111,-1
 222 39 l 2,112,113
 242 42 242 42 250 52.5 c 128,-1,114
 258 63 258 63 258 85 c 2,115,-1
 258 239 l 1,0,-1
EndSplineSet
EndChar

StartChar: Z
Encoding: 90 90 61
Width: 594
GlyphClass: 2
Flags: W
LayerCount: 2
Fore
SplineSet
121 48 m 1,0,-1
 493 48 l 2,1,2
 514 48 514 48 532.5 52 c 128,-1,3
 551 56 551 56 571 66 c 1,4,-1
 581 60 l 1,5,-1
 560 -3 l 1,6,-1
 552 -8 l 1,7,8
 543 -3 543 -3 531 -2 c 2,9,-1
 529 -2 l 2,10,11
 527 -1 527 -1 527 -1 c 2,12,13
 522 -1 522 -1 513.5 -0.5 c 128,-1,14
 505 0 505 0 491 0 c 2,15,-1
 31 0 l 1,16,-1
 31 10 l 1,17,-1
 446 531 l 1,18,-1
 123 531 l 2,19,20
 89 531 89 531 71 526 c 0,21,22
 56 523 56 523 47 511 c 1,23,-1
 39 518 l 1,24,-1
 54 590 l 1,25,-1
 66 591 l 1,26,27
 70 587 70 587 76.5 584.5 c 128,-1,28
 83 582 83 582 89 580 c 0,29,30
 97 579 97 579 110.5 578.5 c 128,-1,31
 124 578 124 578 146 578 c 2,32,-1
 535 578 l 1,33,-1
 535 567 l 1,34,-1
 121 48 l 1,0,-1
EndSplineSet
EndChar

StartChar: bracketleft
Encoding: 91 91 62
Width: 278
GlyphClass: 2
Flags: W
LayerCount: 2
Fore
SplineSet
262 -199 m 1,0,-1
 68 -199 l 1,1,-1
 68 716 l 1,2,-1
 262 716 l 1,3,-1
 262 643 l 1,4,-1
 156 643 l 1,5,-1
 156 -126 l 1,6,-1
 262 -126 l 1,7,-1
 262 -199 l 1,0,-1
EndSplineSet
EndChar

StartChar: backslash
Encoding: 92 92 63
Width: 278
GlyphClass: 2
Flags: W
LayerCount: 2
Fore
SplineSet
278 -12 m 1,0,-1
 208 -12 l 1,1,-1
 0 728 l 1,2,-1
 71 728 l 1,3,-1
 278 -12 l 1,0,-1
EndSplineSet
EndChar

StartChar: bracketright
Encoding: 93 93 64
Width: 278
GlyphClass: 2
Flags: W
LayerCount: 2
Fore
SplineSet
213 -199 m 1,0,-1
 19 -199 l 1,1,-1
 19 -126 l 1,2,-1
 125 -126 l 1,3,-1
 125 643 l 1,4,-1
 19 643 l 1,5,-1
 19 716 l 1,6,-1
 213 716 l 1,7,-1
 213 -199 l 1,0,-1
EndSplineSet
EndChar

StartChar: asciicircum
Encoding: 94 94 65
Width: 469
GlyphClass: 2
Flags: W
LayerCount: 2
Fore
SplineSet
443 337 m 1,0,-1
 354 337 l 1,1,-1
 234 628 l 1,2,-1
 117 337 l 1,3,-1
 26 337 l 1,4,-1
 199 728 l 1,5,-1
 270 728 l 1,6,-1
 443 337 l 1,0,-1
EndSplineSet
EndChar

StartChar: underscore
Encoding: 95 95 66
Width: 556
GlyphClass: 2
Flags: W
LayerCount: 2
Fore
SplineSet
567 -199 m 1,0,-1
 -15 -199 l 1,1,-1
 -15 -135 l 1,2,-1
 567 -135 l 1,3,-1
 567 -199 l 1,0,-1
EndSplineSet
EndChar

StartChar: grave
Encoding: 96 96 67
Width: 336
GlyphClass: 2
Flags: W
LayerCount: 2
Fore
SplineSet
345 495 m 1,0,-1
 313 480 l 1,1,-1
 225 638 l 2,2,3
 222 646 222 646 222 654 c 256,4,5
 222 662 222 662 224 669 c 0,6,7
 230 684 230 684 246 694 c 0,8,9
 252 697 252 697 264 699 c 0,10,11
 293 699 293 699 305 668 c 1,12,-1
 345 495 l 1,0,-1
EndSplineSet
EndChar

StartChar: a
Encoding: 97 97 68
Width: 413
GlyphClass: 2
Flags: W
LayerCount: 2
Fore
SplineSet
272 173 m 2,0,1
 272 185 272 185 263 185 c 0,2,3
 189 185 189 185 135 159 c 0,4,5
 83 133 83 133 83 93 c 0,6,7
 83 67 83 67 102 50.5 c 128,-1,8
 121 34 121 34 152 34 c 0,9,10
 201 34 201 34 237 59 c 0,11,12
 272 82 272 82 272 119 c 2,13,-1
 272 173 l 2,0,1
319 104 m 2,14,15
 319 74 319 74 333 55.5 c 128,-1,16
 347 37 347 37 379 30 c 1,17,-1
 379 17 l 1,18,19
 359 -6 359 -6 340 -6 c 0,20,21
 320 -6 320 -6 306 8 c 0,22,23
 293 18 293 18 275 48 c 1,24,25
 262 34 262 34 248.5 25 c 128,-1,26
 235 16 235 16 218 8 c 0,27,28
 184 -9 184 -9 143 -9 c 0,29,30
 94 -9 94 -9 63 20 c 0,31,32
 31 47 31 47 31 92 c 0,33,34
 31 119 31 119 45.5 142 c 128,-1,35
 60 165 60 165 88 180 c 0,36,37
 147 212 147 212 272 229 c 1,38,-1
 272 266 l 2,39,40
 272 305 272 305 251 318 c 0,41,42
 230 333 230 333 169 333 c 2,43,-1
 161 333 l 2,44,45
 156 333 156 333 151 333 c 128,-1,46
 146 333 146 333 142 332 c 0,47,48
 140 330 140 330 137.5 327.5 c 128,-1,49
 135 325 135 325 133 320 c 2,50,-1
 124 299 l 2,51,52
 113 275 113 275 101 275 c 0,53,54
 90 275 90 275 84.5 280 c 128,-1,55
 79 285 79 285 78 292 c 2,56,-1
 79 299 l 1,57,-1
 82 309 l 1,58,-1
 103 372 l 1,59,-1
 142 377 l 1,60,-1
 179 379 l 1,61,62
 257 379 257 379 288 351 c 256,63,64
 319 323 319 323 319 221 c 2,65,-1
 319 104 l 2,14,15
EndSplineSet
EndChar

StartChar: b
Encoding: 98 98 69
Width: 469
GlyphClass: 2
Flags: W
LayerCount: 2
Fore
SplineSet
130 137 m 2,0,1
 130 86 130 86 157 57 c 128,-1,2
 184 28 184 28 233 28 c 0,3,4
 264 28 264 28 291 40 c 128,-1,5
 318 52 318 52 338 73 c 0,6,7
 358 96 358 96 369.5 126 c 128,-1,8
 381 156 381 156 381 191 c 0,9,10
 381 254 381 254 352.5 288.5 c 128,-1,11
 324 323 324 323 270 323 c 0,12,13
 211 323 211 323 171 283 c 0,14,15
 130 243 130 243 130 185 c 2,16,-1
 130 137 l 2,0,1
131 285 m 1,17,18
 165 327 165 327 205.5 349.5 c 128,-1,19
 246 372 246 372 288 372 c 0,20,21
 355 372 355 372 394 327 c 0,22,23
 434 282 434 282 434 209 c 0,24,25
 434 119 434 119 373 57 c 0,26,27
 312 -7 312 -7 222 -7 c 0,28,29
 169 -7 169 -7 125 19 c 0,30,31
 105 32 105 32 93 47.5 c 128,-1,32
 81 63 81 63 81 79 c 2,33,-1
 81 508 l 2,34,35
 81 522 81 522 78.5 526 c 128,-1,36
 76 530 76 530 67 532 c 2,37,-1
 45 536 l 2,38,39
 44 537 44 537 43 537 c 0,40,41
 27 537 27 537 27 549 c 0,42,43
 27 560 27 560 41 566 c 1,44,-1
 41 565 l 1,45,-1
 50 570 l 1,46,-1
 122 598 l 1,47,-1
 130 600 l 1,48,-1
 137 601 l 2,49,50
 142 601 142 601 147 596.5 c 128,-1,51
 152 592 152 592 152 583 c 0,52,53
 152 580 152 580 148.5 576 c 128,-1,54
 145 572 145 572 140 566 c 0,55,56
 136 561 136 561 133.5 555.5 c 128,-1,57
 131 550 131 550 131 542 c 2,58,-1
 131 285 l 1,17,18
EndSplineSet
EndChar

StartChar: c
Encoding: 99 99 70
Width: 386
GlyphClass: 2
Flags: W
LayerCount: 2
Fore
SplineSet
229 379 m 0,0,1
 274 379 274 379 308 362 c 0,2,3
 341 345 341 345 341 322 c 0,4,5
 341 311 341 311 331.5 302.5 c 128,-1,6
 322 294 322 294 309 294 c 0,7,8
 300 294 300 294 268 317 c 0,9,10
 240 339 240 339 206 339 c 0,11,12
 181 339 181 339 159 328 c 128,-1,13
 137 317 137 317 120 299 c 0,14,15
 104 279 104 279 94.5 251.5 c 128,-1,16
 85 224 85 224 85 192 c 0,17,18
 85 158 85 158 95.5 129.5 c 128,-1,19
 106 101 106 101 123 80 c 0,20,21
 142 61 142 61 167 49.5 c 128,-1,22
 192 38 192 38 220 38 c 0,23,24
 256 38 256 38 294 62 c 0,25,26
 334 87 334 87 339 88 c 0,27,28
 348 88 348 88 352 84 c 0,29,30
 354 81 354 81 356 74 c 0,31,32
 356 52 356 52 303 22 c 0,33,34
 252 -8 252 -8 202 -8 c 0,35,36
 126 -8 126 -8 77 44 c 0,37,38
 29 95 29 95 29 174 c 0,39,40
 29 262 29 262 85 320 c 0,41,42
 142 379 142 379 229 379 c 0,0,1
EndSplineSet
EndChar

StartChar: d
Encoding: 100 100 71
Width: 470
GlyphClass: 2
Flags: W
LayerCount: 2
Fore
SplineSet
331 285 m 1,0,1
 311 309 311 309 285 323 c 128,-1,2
 259 337 259 337 231 337 c 0,3,4
 200 337 200 337 173.5 325 c 128,-1,5
 147 313 147 313 126 292 c 0,6,7
 107 269 107 269 96 238 c 128,-1,8
 85 207 85 207 85 173 c 0,9,10
 85 112 85 112 117 74 c 0,11,12
 150 39 150 39 202 39 c 0,13,14
 236 39 236 39 267.5 54 c 128,-1,15
 299 69 299 69 331 99 c 1,16,-1
 331 285 l 1,0,1
331 54 m 1,17,18
 294 26 294 26 255.5 9 c 128,-1,19
 217 -8 217 -8 185 -8 c 0,20,21
 119 -8 119 -8 74 39 c 0,22,23
 30 85 30 85 30 158 c 0,24,25
 30 250 30 250 87 310 c 0,26,27
 143 372 143 372 228 372 c 0,28,29
 256 372 256 372 280.5 364.5 c 128,-1,30
 305 357 305 357 331 339 c 1,31,-1
 331 519 l 2,32,33
 331 523 331 523 329 527 c 0,34,35
 327 530 327 530 318 532 c 2,36,-1
 294 536 l 2,37,38
 293 537 293 537 292 537 c 2,39,-1
 290 537 l 2,40,41
 276 537 276 537 276 549 c 0,42,43
 276 559 276 559 287 565 c 2,44,-1
 365 597 l 1,45,-1
 373 599 l 1,46,-1
 380 601 l 1,47,48
 397 601 397 601 397 583 c 0,49,50
 397 579 397 579 387 569 c 0,51,52
 381 564 381 564 381 558 c 2,53,-1
 381 68 l 2,54,55
 381 58 381 58 382.5 55.5 c 128,-1,56
 384 53 384 53 387 53 c 2,57,-1
 389 54 l 1,58,-1
 394 56 l 1,59,-1
 409 63 l 1,60,-1
 408 63 l 1,61,-1
 410 65 l 1,62,-1
 417 66 l 2,63,64
 424 66 424 66 427 58 c 0,65,66
 428 56 428 56 429.5 53.5 c 128,-1,67
 431 51 431 51 431 48 c 0,68,69
 431 41 431 41 424 37 c 2,70,-1
 422 35 l 1,71,-1
 356 -8 l 1,72,-1
 349 -10 l 1,73,-1
 344 -10 l 2,74,75
 336 -10 336 -10 331 -4.5 c 128,-1,76
 326 1 326 1 326 9 c 2,77,-1
 329 17 l 2,78,79
 330 21 330 21 330.5 24 c 128,-1,80
 331 27 331 27 331 30 c 2,81,-1
 331 54 l 1,17,18
EndSplineSet
EndChar

StartChar: e
Encoding: 101 101 72
Width: 387
GlyphClass: 2
Flags: W
LayerCount: 2
Fore
SplineSet
85 193 m 1,0,-1
 85 188 l 1,1,-1
 85 177 l 2,2,3
 85 116 85 116 118 75 c 1,4,5
 153 40 153 40 208 40 c 0,6,7
 250 40 250 40 292 66 c 2,8,-1
 338 94 l 1,9,10
 352 94 352 94 354 80 c 0,11,12
 354 59 354 59 298 24 c 0,13,14
 241 -10 241 -10 187 -10 c 0,15,16
 152 -10 152 -10 123.5 3 c 128,-1,17
 95 16 95 16 71 40 c 0,18,19
 27 90 27 90 27 167 c 0,20,21
 27 258 27 258 81 318 c 0,22,23
 136 379 136 379 215 379 c 0,24,25
 274 379 274 379 313 343 c 0,26,27
 332 324 332 324 342.5 299 c 128,-1,28
 353 274 353 274 353 240 c 1,29,-1
 85 193 l 1,0,-1
275 264 m 2,30,31
 279 264 279 264 282 268 c 0,32,33
 285 271 285 271 285 278 c 0,34,35
 285 303 285 303 263 322 c 0,36,37
 253 331 253 331 239.5 336.5 c 128,-1,38
 226 342 226 342 210 342 c 0,39,40
 164 342 164 342 132.5 313 c 128,-1,41
 101 284 101 284 89 232 c 1,42,-1
 275 264 l 2,30,31
EndSplineSet
EndChar

StartChar: f
Encoding: 102 102 73
Width: 303
GlyphClass: 2
Flags: W
LayerCount: 2
Fore
SplineSet
93 319 m 1,0,-1
 81 319 l 2,1,2
 70 319 70 319 66 323 c 128,-1,3
 62 327 62 327 62 337 c 2,4,-1
 62 344 l 1,5,-1
 67 348 l 2,6,7
 73 352 73 352 80 356 c 128,-1,8
 87 360 87 360 93 365 c 0,9,10
 93 367 93 367 92.5 368.5 c 128,-1,11
 92 370 92 370 92 371 c 2,12,-1
 92 379 l 1,13,-1
 92 395 l 2,14,15
 92 503 92 503 125 552 c 128,-1,16
 158 601 158 601 231 601 c 0,17,18
 264 601 264 601 283.5 589.5 c 128,-1,19
 303 578 303 578 303 560 c 0,20,21
 303 548 303 548 294 540.5 c 128,-1,22
 285 533 285 533 270 533 c 0,23,24
 261 533 261 533 237 544 c 0,25,26
 212 555 212 555 199 555 c 0,27,28
 168 555 168 555 157 532 c 0,29,30
 144 503 144 503 144 442 c 2,31,-1
 144 364 l 1,32,-1
 157 362 l 1,33,-1
 168 362 l 1,34,-1
 273 362 l 2,35,36
 282 362 282 362 284 360 c 0,37,38
 292 352 292 352 292 343 c 0,39,40
 292 329 292 329 288.5 324 c 128,-1,41
 285 319 285 319 270 319 c 2,42,-1
 144 319 l 1,43,-1
 144 90 l 2,44,45
 144 60 144 60 153 50 c 0,46,47
 157 46 157 46 168 42.5 c 128,-1,48
 179 39 179 39 193 36 c 2,49,-1
 233 30 l 2,50,51
 246 28 246 28 249.5 25 c 128,-1,52
 253 22 253 22 253 11 c 0,53,54
 253 1 253 1 249 -4.5 c 128,-1,55
 245 -10 245 -10 233 -10 c 0,56,57
 216 -10 216 -10 182 -2 c 0,58,59
 147 6 147 6 130 6 c 0,60,61
 115 6 115 6 88 0 c 2,62,-1
 71 -3 l 2,63,64
 65 -4 65 -4 60.5 -4.5 c 128,-1,65
 56 -5 56 -5 52 -5 c 0,66,67
 45 -5 45 -5 41 -2 c 0,68,69
 39 0 39 0 38.5 4 c 128,-1,70
 38 8 38 8 38 13 c 0,71,72
 38 21 38 21 42.5 25 c 128,-1,73
 47 29 47 29 56 31 c 2,74,-1
 58 31 l 1,75,-1
 70 34 l 2,76,77
 82 37 82 37 87.5 45.5 c 128,-1,78
 93 54 93 54 93 72 c 2,79,-1
 93 319 l 1,0,-1
EndSplineSet
EndChar

StartChar: g
Encoding: 103 103 74
Width: 427
GlyphClass: 2
Flags: W
LayerCount: 2
Fore
SplineSet
183 1 m 1,0,-1
 180 1 l 1,1,-1
 176 1 l 1,2,-1
 165 1 l 2,3,4
 145 1 145 1 126.5 -6.5 c 128,-1,5
 108 -14 108 -14 92 -27 c 0,6,7
 63 -56 63 -56 63 -92 c 0,8,9
 63 -130 63 -130 92.5 -152.5 c 128,-1,10
 122 -175 122 -175 176 -175 c 0,11,12
 211 -175 211 -175 243 -166 c 128,-1,13
 275 -157 275 -157 300 -142 c 0,14,15
 350 -106 350 -106 350 -62 c 0,16,17
 350 -33 350 -33 328 -24 c 0,18,19
 307 -11 307 -11 236 -5 c 2,20,-1
 183 1 l 1,0,-1
99 244 m 0,21,22
 99 203 99 203 126 177 c 0,23,24
 154 152 154 152 199 152 c 0,25,26
 243 152 243 152 271 178 c 0,27,28
 286 192 286 192 292.5 208.5 c 128,-1,29
 299 225 299 225 299 247 c 0,30,31
 299 288 299 288 272 312 c 0,32,33
 246 338 246 338 198 338 c 0,34,35
 154 338 154 338 127 311 c 0,36,37
 99 287 99 287 99 244 c 0,21,22
123 130 m 1,38,39
 50 166 50 166 50 244 c 0,40,41
 50 301 50 301 92 341 c 0,42,43
 136 379 136 379 198 379 c 0,44,45
 225 379 225 379 251 371 c 0,46,47
 262 369 262 369 273.5 364 c 128,-1,48
 285 359 285 359 299 352 c 1,49,50
 309 354 309 354 319 355.5 c 128,-1,51
 329 357 329 357 340 359 c 0,52,53
 352 361 352 361 363.5 361.5 c 128,-1,54
 375 362 375 362 389 362 c 2,55,-1
 405 362 l 1,56,-1
 405 314 l 1,57,-1
 381 314 l 1,58,-1
 371 315 l 1,59,-1
 353 315 l 1,60,-1
 349 314 l 2,61,62
 347 313 347 313 343 313 c 0,63,64
 340 313 340 313 336 313 c 128,-1,65
 332 313 332 313 329 312 c 1,66,67
 351 279 351 279 351 240 c 0,68,69
 351 214 351 214 339.5 190 c 128,-1,70
 328 166 328 166 310 148 c 0,71,72
 268 112 268 112 206 112 c 2,73,-1
 188 112 l 1,74,-1
 178 113 l 2,75,76
 176 113 176 113 174 113.5 c 128,-1,77
 172 114 172 114 170 114 c 2,78,-1
 161 116 l 1,79,-1
 151 119 l 1,80,81
 134 108 134 108 127.5 100 c 128,-1,82
 121 92 121 92 121 82 c 0,83,84
 121 68 121 68 151 57.5 c 128,-1,85
 181 47 181 47 237 42 c 2,86,-1
 254 40 l 2,87,88
 297 35 297 35 326.5 28.5 c 128,-1,89
 356 22 356 22 370 12 c 0,90,91
 385 1 385 1 394 -14 c 128,-1,92
 403 -29 403 -29 403 -49 c 0,93,94
 403 -81 403 -81 384 -110 c 128,-1,95
 365 -139 365 -139 330 -165 c 0,96,97
 257 -217 257 -217 165 -217 c 0,98,99
 130 -217 130 -217 102 -210 c 128,-1,100
 74 -203 74 -203 53 -187 c 0,101,102
 10 -155 10 -155 10 -105 c 0,103,104
 10 -69 10 -69 36 -38 c 128,-1,105
 62 -7 62 -7 109 15 c 1,106,107
 99 20 99 20 91.5 24 c 128,-1,108
 84 28 84 28 79 33 c 1,109,-1
 80 33 l 1,110,111
 64 46 64 46 64 66 c 0,112,113
 64 71 64 71 65 76.5 c 128,-1,114
 66 82 66 82 70 87 c 256,115,116
 74 92 74 92 81 98.5 c 128,-1,117
 88 105 88 105 96 110 c 2,118,-1
 123 130 l 1,38,39
EndSplineSet
EndChar

StartChar: h
Encoding: 104 104 75
Width: 503
GlyphClass: 2
Flags: W
LayerCount: 2
Fore
SplineSet
88 508 m 2,0,1
 88 522 88 522 85.5 526 c 128,-1,2
 83 530 83 530 75 532 c 2,3,-1
 52 536 l 1,4,-1
 51 536 l 2,5,6
 49 537 49 537 49 537 c 1,7,8
 34 538 34 538 33 549 c 0,9,10
 33 559 33 559 48 567 c 1,11,-1
 53 568 l 1,12,-1
 52 568 l 1,13,-1
 132 598 l 1,14,-1
 136 600 l 1,15,-1
 143 601 l 2,16,17
 159 601 159 601 159 583 c 0,18,19
 159 578 159 578 148 567 c 1,20,-1
 148 568 l 1,21,22
 140 559 140 559 140 542 c 2,23,-1
 140 318 l 1,24,25
 160 335 160 335 177.5 346 c 128,-1,26
 195 357 195 357 209 364 c 0,27,28
 224 371 224 371 240.5 375 c 128,-1,29
 257 379 257 379 274 379 c 0,30,31
 339 379 339 379 373 332 c 0,32,33
 408 285 408 285 408 189 c 2,34,-1
 410 90 l 2,35,36
 410 65 410 65 417 51 c 0,37,38
 421 48 421 48 427 44 c 128,-1,39
 433 40 433 40 440 38 c 2,40,-1
 458 33 l 1,41,-1
 460 33 l 2,42,43
 461 32 461 32 464 32 c 0,44,45
 480 28 480 28 480 11 c 0,46,47
 480 2 480 2 477.5 -1.5 c 128,-1,48
 475 -5 475 -5 465 -5 c 0,49,50
 459 -5 459 -5 450 -3.5 c 128,-1,51
 441 -2 441 -2 427 3 c 0,52,53
 414 7 414 7 403.5 8.5 c 128,-1,54
 393 10 393 10 385 10 c 0,55,56
 379 10 379 10 368 8.5 c 128,-1,57
 357 7 357 7 341 3 c 0,58,59
 327 -2 327 -2 316 -3.5 c 128,-1,60
 305 -5 305 -5 298 -5 c 0,61,62
 284 -5 284 -5 284 12 c 0,63,64
 284 28 284 28 300 32 c 2,65,-1
 304 33 l 1,66,-1
 324 38 l 2,67,68
 335 41 335 41 343 44.5 c 128,-1,69
 351 48 351 48 353 52 c 0,70,71
 355 57 355 57 357 65 c 128,-1,72
 359 73 359 73 359 85 c 2,73,-1
 359 89 l 1,74,-1
 358 186 l 2,75,76
 358 263 358 263 334 297 c 128,-1,77
 310 331 310 331 256 331 c 0,78,79
 204 331 204 331 140 277 c 1,80,-1
 140 90 l 2,81,82
 140 62 140 62 146 53 c 0,83,84
 149 48 149 48 157 45 c 128,-1,85
 165 42 165 42 176 38 c 2,86,-1
 194 33 l 1,87,-1
 197 33 l 2,88,89
 198 32 198 32 198 32 c 1,90,91
 216 30 216 30 216 13 c 0,92,93
 216 2 216 2 213 -1 c 128,-1,94
 210 -4 210 -4 201 -5 c 0,95,96
 196 -5 196 -5 186.5 -3.5 c 128,-1,97
 177 -2 177 -2 163 3 c 0,98,99
 150 7 150 7 139.5 8.5 c 128,-1,100
 129 10 129 10 121 10 c 0,101,102
 107 10 107 10 78 3 c 0,103,104
 63 -2 63 -2 52.5 -3.5 c 128,-1,105
 42 -5 42 -5 34 -5 c 2,106,-1
 26 -5 l 1,107,108
 20 2 20 2 20 12 c 0,109,110
 20 21 20 21 24.5 25.5 c 128,-1,111
 29 30 29 30 38 33 c 2,112,-1
 41 33 l 1,113,-1
 61 38 l 2,114,115
 68 40 68 40 73.5 43.5 c 128,-1,116
 79 47 79 47 82 50 c 0,117,118
 85 57 85 57 86.5 65.5 c 128,-1,119
 88 74 88 74 88 89 c 2,120,-1
 88 508 l 2,0,1
EndSplineSet
EndChar

StartChar: i
Encoding: 105 105 76
Width: 238
GlyphClass: 2
Flags: W
LayerCount: 2
Fore
SplineSet
103 551 m 0,0,1
 118 551 118 551 131 541 c 0,2,3
 140 532 140 532 140 518 c 256,4,5
 140 504 140 504 129.5 494.5 c 128,-1,6
 119 485 119 485 103 485 c 256,7,8
 87 485 87 485 77 494.5 c 128,-1,9
 67 504 67 504 67 518 c 0,10,11
 67 533 67 533 77 542 c 128,-1,12
 87 551 87 551 103 551 c 0,0,1
105 377 m 1,13,-1
 117 381 l 1,14,-1
 129 383 l 2,15,16
 148 383 148 383 148 364 c 1,17,-1
 144 351 l 1,18,-1
 144 352 l 2,19,20
 141 341 141 341 141 335 c 2,21,-1
 141 90 l 2,22,23
 141 60 141 60 148 52 c 256,24,25
 155 44 155 44 178 37 c 2,26,-1
 185 35 l 2,27,28
 187 34 187 34 190 34 c 128,-1,29
 193 34 193 34 196 33 c 0,30,31
 197 33 197 33 197 32.5 c 128,-1,32
 197 32 197 32 198 32 c 2,33,-1
 199 32 l 1,34,35
 218 28 218 28 218 11 c 0,36,37
 218 1 218 1 215 -1 c 0,38,39
 212 -5 212 -5 202 -5 c 0,40,41
 197 -5 197 -5 188 -3.5 c 128,-1,42
 179 -2 179 -2 166 2 c 0,43,44
 152 7 152 7 141.5 8 c 128,-1,45
 131 9 131 9 123 9 c 0,46,47
 109 9 109 9 82 2 c 0,48,49
 68 -2 68 -2 56.5 -3.5 c 128,-1,50
 45 -5 45 -5 37 -5 c 0,51,52
 28 -5 28 -5 28 -4 c 0,53,54
 24 3 24 3 24 12 c 0,55,56
 24 28 24 28 39 32 c 2,57,-1
 45 33 l 1,58,-1
 44 33 l 1,59,-1
 52 35 l 2,60,61
 55 36 55 36 57.5 36.5 c 128,-1,62
 60 37 60 37 63 37 c 0,63,64
 69 39 69 39 75.5 42.5 c 128,-1,65
 82 46 82 46 85 50 c 0,66,67
 87 56 87 56 88.5 65 c 128,-1,68
 90 74 90 74 90 88 c 2,69,-1
 90 313 l 1,70,71
 81 314 81 314 72 315.5 c 128,-1,72
 63 317 63 317 53 318 c 0,73,74
 51 318 51 318 51 319 c 2,75,-1
 48 319 l 2,76,77
 41 320 41 320 38 324.5 c 128,-1,78
 35 329 35 329 35 334 c 0,79,80
 35 345 35 345 45 349 c 2,81,-1
 49 351 l 1,82,-1
 105 377 l 1,13,-1
EndSplineSet
EndChar

StartChar: j
Encoding: 106 106 77
Width: 250
GlyphClass: 2
Flags: W
LayerCount: 2
Fore
SplineSet
113 551 m 0,0,1
 127 551 127 551 137.5 542 c 128,-1,2
 148 533 148 533 148 518 c 0,3,4
 148 504 148 504 137.5 494.5 c 128,-1,5
 127 485 127 485 113 485 c 0,6,7
 96 485 96 485 85.5 494.5 c 128,-1,8
 75 504 75 504 75 518 c 0,9,10
 75 533 75 533 85.5 542 c 128,-1,11
 96 551 96 551 113 551 c 0,0,1
150 336 m 1,12,-1
 150 -106 l 2,13,14
 150 -139 150 -139 143.5 -155 c 128,-1,15
 137 -171 137 -171 123 -182 c 0,16,17
 109 -192 109 -192 87.5 -200 c 128,-1,18
 66 -208 66 -208 50 -208 c 256,19,20
 34 -208 34 -208 34 -186 c 0,21,22
 34 -179 34 -179 69 -165 c 0,23,24
 99 -156 99 -156 99 -126 c 2,25,-1
 99 313 l 1,26,27
 88 314 88 314 79 315.5 c 128,-1,28
 70 317 70 317 61 318 c 0,29,30
 59 318 59 318 58 318.5 c 128,-1,31
 57 319 57 319 56 319 c 0,32,33
 41 321 41 321 41 334 c 0,34,35
 41 346 41 346 52 349 c 2,36,-1
 57 351 l 2,37,38
 71 357 71 357 85 363.5 c 128,-1,39
 99 370 99 370 113 376 c 2,40,-1
 125 382 l 1,41,-1
 127 382 l 1,42,-1
 137 384 l 2,43,44
 145 384 145 384 150.5 379 c 128,-1,45
 156 374 156 374 156 366 c 0,46,47
 156 362 156 362 155 359 c 2,48,-1
 155 356 l 1,49,-1
 153 351 l 1,50,-1
 150 336 l 1,12,-1
EndSplineSet
EndChar

StartChar: k
Encoding: 107 107 78
Width: 463
GlyphClass: 2
Flags: W
LayerCount: 2
Fore
SplineSet
206 210 m 1,0,1
 249 173 249 173 292 135 c 128,-1,2
 335 97 335 97 379 60 c 0,3,4
 409 31 409 31 439 31 c 2,5,-1
 446 31 l 2,6,7
 447 31 447 31 450 32 c 128,-1,8
 453 33 453 33 456 34 c 2,9,-1
 456 20 l 1,10,11
 435 -11 435 -11 406 -11 c 0,12,13
 394 -11 394 -11 383.5 -6.5 c 128,-1,14
 373 -2 373 -2 361 9 c 2,15,-1
 285 76 l 2,16,17
 250 108 250 108 213 141 c 128,-1,18
 176 174 176 174 143 204 c 1,19,-1
 313 354 l 2,20,21
 322 362 322 362 330.5 368 c 128,-1,22
 339 374 339 374 349 379 c 1,23,-1
 350 379 l 1,24,-1
 349 379 l 2,25,26
 354 381 354 381 358.5 382.5 c 128,-1,27
 363 384 363 384 371 384 c 0,28,29
 386 384 386 384 394 376 c 0,30,31
 404 368 404 368 404 355 c 0,32,33
 404 333 404 333 360 316 c 0,34,35
 340 310 340 310 324.5 302 c 128,-1,36
 309 294 309 294 298 286 c 2,37,-1
 206 210 l 1,0,1
88 508 m 2,38,39
 88 521 88 521 85 525.5 c 128,-1,40
 82 530 82 530 74 532 c 2,41,-1
 51 536 l 2,42,43
 50 536 50 536 49.5 536.5 c 128,-1,44
 49 537 49 537 48 537 c 0,45,46
 33 537 33 537 33 549 c 0,47,48
 33 557 33 557 48 567 c 1,49,-1
 52 568 l 1,50,-1
 51 568 l 1,51,52
 71 576 71 576 91 583.5 c 128,-1,53
 111 591 111 591 132 598 c 2,54,-1
 136 600 l 1,55,-1
 142 601 l 2,56,57
 159 601 159 601 159 583 c 0,58,59
 159 579 159 579 147 567 c 0,60,61
 140 557 140 557 140 542 c 2,62,-1
 140 90 l 2,63,64
 140 62 140 62 145 52 c 1,65,66
 156 43 156 43 176 37 c 0,67,68
 179 37 179 37 181 36.5 c 128,-1,69
 183 36 183 36 185 35 c 2,70,-1
 193 33 l 1,71,-1
 196 33 l 1,72,73
 216 27 216 27 216 11 c 256,74,75
 216 -5 216 -5 200 -5 c 0,76,77
 190 -5 190 -5 163 2 c 0,78,79
 150 7 150 7 139 8 c 128,-1,80
 128 9 128 9 120 9 c 0,81,82
 103 9 103 9 78 2 c 0,83,84
 50 -5 50 -5 34 -5 c 0,85,86
 19 -5 19 -5 19 12 c 0,87,88
 19 27 19 27 37 32 c 2,89,-1
 42 33 l 1,90,-1
 41 33 l 1,91,-1
 49 35 l 2,92,93
 55 37 55 37 59 37 c 0,94,95
 73 41 73 41 80.5 53 c 128,-1,96
 88 65 88 65 88 88 c 2,97,-1
 88 508 l 2,38,39
EndSplineSet
EndChar

StartChar: l
Encoding: 108 108 79
Width: 234
GlyphClass: 2
Flags: W
LayerCount: 2
Fore
SplineSet
86 508 m 2,0,1
 86 522 86 522 84 526 c 128,-1,2
 82 530 82 530 74 532 c 2,3,-1
 51 536 l 2,4,5
 50 536 50 536 49.5 536.5 c 128,-1,6
 49 537 49 537 47 537 c 0,7,8
 32 537 32 537 32 549 c 0,9,10
 32 560 32 560 48 567 c 2,11,-1
 52 568 l 1,12,-1
 51 568 l 1,13,-1
 131 598 l 1,14,-1
 136 600 l 1,15,-1
 142 601 l 2,16,17
 159 601 159 601 159 583 c 0,18,19
 159 579 159 579 146 566 c 0,20,21
 137 557 137 557 137 541 c 2,22,-1
 137 90 l 2,23,24
 137 76 137 76 138.5 66.5 c 128,-1,25
 140 57 140 57 142 52 c 2,26,-1
 142 53 l 2,27,28
 145 49 145 49 154.5 45.5 c 128,-1,29
 164 42 164 42 175 37 c 0,30,31
 177 37 177 37 178.5 36 c 128,-1,32
 180 35 180 35 182 35 c 0,33,34
 183 34 183 34 185 34 c 256,35,36
 187 34 187 34 188 33.5 c 128,-1,37
 189 33 189 33 191 33 c 2,38,-1
 195 32 l 2,39,40
 210 29 210 29 210 11 c 0,41,42
 210 1 210 1 207 -2 c 128,-1,43
 204 -5 204 -5 195 -5 c 0,44,45
 185 -5 185 -5 161 2 c 0,46,47
 149 6 149 6 138.5 7.5 c 128,-1,48
 128 9 128 9 120 9 c 0,49,50
 103 9 103 9 74 2 c 256,51,52
 45 -5 45 -5 28 -5 c 0,53,54
 20 -5 20 -5 17.5 -2 c 128,-1,55
 15 1 15 1 15 12 c 0,56,57
 15 24 15 24 17.5 27 c 128,-1,58
 20 30 20 30 34 33 c 2,59,-1
 60 37 l 2,60,61
 73 41 73 41 79.5 53 c 128,-1,62
 86 65 86 65 86 88 c 2,63,-1
 86 508 l 2,0,1
EndSplineSet
EndChar

StartChar: m
Encoding: 109 109 80
Width: 771
GlyphClass: 2
Flags: W
LayerCount: 2
Fore
SplineSet
99 313 m 1,0,1
 88 314 88 314 79 315.5 c 128,-1,2
 70 317 70 317 60 318 c 0,3,4
 59 318 59 318 58 318.5 c 128,-1,5
 57 319 57 319 56 319 c 0,6,7
 41 321 41 321 41 334 c 0,8,9
 41 343 41 343 52 350 c 1,10,-1
 58 351 l 1,11,-1
 115 377 l 1,12,-1
 125 381 l 1,13,-1
 138 383 l 2,14,15
 158 383 158 383 158 367 c 0,16,17
 158 362 158 362 154 352 c 0,18,19
 152 347 152 347 151 342.5 c 128,-1,20
 150 338 150 338 150 334 c 2,21,-1
 150 318 l 1,22,23
 166 330 166 330 185 342.5 c 128,-1,24
 204 355 204 355 218 363 c 0,25,26
 250 379 250 379 276 379 c 0,27,28
 361 379 361 379 393 306 c 1,29,30
 437 344 437 344 473.5 361.5 c 128,-1,31
 510 379 510 379 541 379 c 0,32,33
 573 379 573 379 597 366.5 c 128,-1,34
 621 354 621 354 638 331 c 0,35,36
 653 308 653 308 662.5 271.5 c 128,-1,37
 672 235 672 235 672 188 c 2,38,-1
 673 89 l 2,39,40
 673 61 673 61 680 51 c 0,41,42
 684 47 684 47 690 43 c 128,-1,43
 696 39 696 39 704 37 c 2,44,-1
 713 35 l 2,45,46
 715 34 715 34 717.5 34 c 128,-1,47
 720 34 720 34 722 33 c 0,48,49
 724 33 724 33 724.5 32.5 c 128,-1,50
 725 32 725 32 726 32 c 0,51,52
 743 31 743 31 743 11 c 0,53,54
 743 3 743 3 740 -1 c 128,-1,55
 737 -5 737 -5 728 -5 c 0,56,57
 715 -5 715 -5 692 3 c 0,58,59
 667 10 667 10 648 10 c 0,60,61
 641 10 641 10 632.5 9 c 128,-1,62
 624 8 624 8 607 3 c 0,63,64
 591 -2 591 -2 579.5 -3.5 c 128,-1,65
 568 -5 568 -5 560 -5 c 0,66,67
 553 -5 553 -5 549 -1 c 2,68,-1
 546 11 l 2,69,70
 546 27 546 27 564 33 c 1,71,-1
 567 33 l 1,72,-1
 587 38 l 2,73,74
 597 41 597 41 605.5 44.5 c 128,-1,75
 614 48 614 48 616 53 c 2,76,-1
 616 52 l 2,77,78
 618 57 618 57 619.5 65.5 c 128,-1,79
 621 74 621 74 621 88 c 2,80,-1
 620 185 l 2,81,82
 620 263 620 263 597.5 297 c 128,-1,83
 575 331 575 331 523 331 c 0,84,85
 502 331 502 331 475 318 c 0,86,87
 464 313 464 313 446.5 302 c 128,-1,88
 429 291 429 291 406 273 c 1,89,-1
 408 227 l 1,90,-1
 410 185 l 1,91,-1
 412 89 l 2,92,93
 412 63 412 63 420 52.5 c 128,-1,94
 428 42 428 42 443 37 c 2,95,-1
 450 35 l 2,96,97
 453 34 453 34 455.5 34 c 128,-1,98
 458 34 458 34 460 33 c 2,99,-1
 459 33 l 1,100,-1
 462 33 l 2,101,102
 463 32 463 32 465 32 c 0,103,104
 474 30 474 30 478.5 25.5 c 128,-1,105
 483 21 483 21 483 11 c 0,106,107
 483 3 483 3 480 -1 c 128,-1,108
 477 -5 477 -5 466 -5 c 0,109,110
 461 -5 461 -5 452 -3.5 c 128,-1,111
 443 -2 443 -2 429 3 c 0,112,113
 404 10 404 10 387 10 c 0,114,115
 379 10 379 10 371 9 c 128,-1,116
 363 8 363 8 346 3 c 256,117,118
 329 -2 329 -2 318.5 -3.5 c 128,-1,119
 308 -5 308 -5 300 -5 c 0,120,121
 293 -5 293 -5 289.5 -2 c 128,-1,122
 286 1 286 1 286 12 c 0,123,124
 286 21 286 21 290.5 25.5 c 128,-1,125
 295 30 295 30 303 32 c 2,126,-1
 308 33 l 1,127,-1
 307 33 l 1,128,-1
 315 35 l 2,129,130
 317 37 317 37 320.5 37 c 128,-1,131
 324 37 324 37 326 37 c 0,132,133
 337 40 337 40 345 43.5 c 128,-1,134
 353 47 353 47 355 51 c 0,135,136
 361 61 361 61 361 88 c 2,137,-1
 360 185 l 2,138,139
 360 263 360 263 337 297 c 128,-1,140
 314 331 314 331 264 331 c 256,141,142
 214 331 214 331 150 276 c 1,143,-1
 150 90 l 2,144,145
 150 62 150 62 158 52 c 0,146,147
 165 44 165 44 186 37 c 2,148,-1
 196 35 l 2,149,150
 198 34 198 34 200.5 34 c 128,-1,151
 203 34 203 34 205 33 c 2,152,-1
 206 33 l 1,153,154
 227 28 227 28 227 11 c 0,155,156
 227 1 227 1 223.5 -2 c 128,-1,157
 220 -5 220 -5 212 -5 c 0,158,159
 201 -5 201 -5 174 2 c 0,160,161
 149 9 149 9 130 9 c 0,162,163
 117 9 117 9 89 2 c 0,164,165
 62 -5 62 -5 46 -5 c 0,166,167
 29 -5 29 -5 29 12 c 0,168,169
 29 27 29 27 47 32 c 2,170,-1
 52 33 l 1,171,-1
 61 35 l 2,172,173
 64 37 64 37 71 37 c 0,174,175
 83 42 83 42 91 53.5 c 128,-1,176
 99 65 99 65 99 88 c 2,177,-1
 99 313 l 1,0,1
EndSplineSet
EndChar

StartChar: n
Encoding: 110 110 81
Width: 511
GlyphClass: 2
Flags: W
LayerCount: 2
Fore
SplineSet
98 313 m 1,0,1
 88 314 88 314 78.5 315.5 c 128,-1,2
 69 317 69 317 59 318 c 0,3,4
 58 318 58 318 57 318.5 c 128,-1,5
 56 319 56 319 55 319 c 0,6,7
 40 321 40 321 40 334 c 0,8,9
 40 343 40 343 51 350 c 1,10,-1
 57 351 l 1,11,-1
 113 377 l 1,12,-1
 124 381 l 1,13,-1
 137 383 l 2,14,15
 141 383 141 383 145 381.5 c 128,-1,16
 149 380 149 380 152 378 c 0,17,18
 156 374 156 374 156 368 c 0,19,20
 156 360 156 360 152 351 c 0,21,22
 148 343 148 343 148 334 c 2,23,-1
 148 318 l 1,24,25
 168 334 168 334 186 346 c 128,-1,26
 204 358 204 358 218 364 c 0,27,28
 232 371 232 371 248 375 c 128,-1,29
 264 379 264 379 280 379 c 0,30,31
 348 379 348 379 383 332 c 0,32,33
 400 310 400 310 408 272 c 128,-1,34
 416 234 416 234 417 188 c 2,35,-1
 419 89 l 2,36,37
 419 65 419 65 427.5 53.5 c 128,-1,38
 436 42 436 42 448 37 c 2,39,-1
 458 35 l 1,40,-1
 466 33 l 1,41,-1
 472 32 l 2,42,43
 489 29 489 29 489 11 c 0,44,45
 489 3 489 3 486 -0.5 c 128,-1,46
 483 -4 483 -4 474 -5 c 0,47,48
 461 -5 461 -5 436 2 c 256,49,50
 411 9 411 9 394 9 c 0,51,52
 389 9 389 9 377.5 7.5 c 128,-1,53
 366 6 366 6 351 2 c 0,54,55
 324 -5 324 -5 307 -5 c 0,56,57
 298 -5 298 -5 297 -4 c 0,58,59
 293 4 293 4 293 12 c 0,60,61
 293 21 293 21 297 25.5 c 128,-1,62
 301 30 301 30 310 33 c 2,63,-1
 314 33 l 1,64,-1
 313 33 l 1,65,-1
 322 35 l 2,66,67
 324 37 324 37 327 37 c 128,-1,68
 330 37 330 37 332 37 c 0,69,70
 352 43 352 43 361 52 c 0,71,72
 368 64 368 64 368 88 c 2,73,-1
 367 185 l 2,74,75
 367 263 367 263 343 297 c 128,-1,76
 319 331 319 331 266 331 c 0,77,78
 240 331 240 331 211.5 317.5 c 128,-1,79
 183 304 183 304 148 276 c 1,80,-1
 148 90 l 2,81,82
 148 64 148 64 155 52 c 0,83,84
 159 48 159 48 167 44 c 128,-1,85
 175 40 175 40 184 37 c 2,86,-1
 194 35 l 1,87,-1
 201 33 l 1,88,-1
 203 33 l 2,89,90
 204 32 204 32 207 32 c 0,91,92
 216 30 216 30 220.5 25.5 c 128,-1,93
 225 21 225 21 225 11 c 0,94,95
 225 2 225 2 221.5 -1 c 128,-1,96
 218 -4 218 -4 210 -5 c 0,97,98
 199 -5 199 -5 172 2 c 0,99,100
 147 9 147 9 130 9 c 0,101,102
 125 9 125 9 113.5 7.5 c 128,-1,103
 102 6 102 6 88 2 c 0,104,105
 60 -5 60 -5 45 -5 c 0,106,107
 28 -5 28 -5 28 12 c 0,108,109
 28 28 28 28 47 32 c 2,110,-1
 51 33 l 1,111,-1
 59 35 l 2,112,113
 67 37 67 37 69 37 c 0,114,115
 82 42 82 42 90 54 c 128,-1,116
 98 66 98 66 98 88 c 2,117,-1
 98 313 l 1,0,1
EndSplineSet
EndChar

StartChar: o
Encoding: 111 111 82
Width: 460
GlyphClass: 2
Flags: W
LayerCount: 2
Fore
SplineSet
228 339 m 0,0,1
 161 339 161 339 124 299 c 128,-1,2
 87 259 87 259 87 185 c 0,3,4
 87 113 87 113 124 72.5 c 128,-1,5
 161 32 161 32 228 32 c 0,6,7
 293 32 293 32 330 72 c 0,8,9
 349 93 349 93 359 121 c 128,-1,10
 369 149 369 149 369 185 c 0,11,12
 369 257 369 257 330 299 c 0,13,14
 294 339 294 339 228 339 c 0,0,1
228 379 m 0,15,16
 313 379 313 379 370 325 c 0,17,18
 426 272 426 272 426 185 c 0,19,20
 426 99 426 99 370 45 c 0,21,22
 313 -9 313 -9 228 -9 c 0,23,24
 142 -9 142 -9 85 45 c 0,25,26
 30 97 30 97 30 185 c 0,27,28
 30 274 30 274 85 326 c 0,29,30
 141 379 141 379 228 379 c 0,15,16
EndSplineSet
EndChar

StartChar: p
Encoding: 112 112 83
Width: 482
GlyphClass: 2
Flags: W
LayerCount: 2
Fore
SplineSet
149 151 m 2,0,1
 149 93 149 93 176.5 61 c 128,-1,2
 204 29 204 29 252 29 c 0,3,4
 308 29 308 29 351 78 c 0,5,6
 393 129 393 129 393 199 c 0,7,8
 393 262 393 262 365 296 c 0,9,10
 336 331 336 331 286 331 c 0,11,12
 207 331 207 331 149 241 c 1,13,-1
 149 151 l 2,0,1
98 313 m 1,14,-1
 61 317 l 2,15,16
 43 317 43 317 43 333 c 0,17,18
 43 345 43 345 54 351 c 1,19,-1
 57 351 l 1,20,-1
 56 351 l 1,21,-1
 115 377 l 2,22,23
 129 384 129 384 137 384 c 0,24,25
 144 384 144 384 149 378 c 1,26,-1
 149 379 l 1,27,28
 153 374 153 374 153 363 c 2,29,-1
 150 353 l 1,30,-1
 150 351 l 1,31,-1
 149 347 l 1,32,-1
 149 296 l 1,33,34
 218 379 218 379 301 379 c 0,35,36
 369 379 369 379 408 335 c 0,37,38
 447 293 447 293 447 219 c 0,39,40
 447 121 447 121 390 58 c 0,41,42
 333 -7 333 -7 247 -7 c 0,43,44
 221 -7 221 -7 197 0 c 128,-1,45
 173 7 173 7 149 24 c 1,46,-1
 149 -143 l 2,47,48
 149 -166 149 -166 164 -166 c 2,49,-1
 182 -166 l 2,50,51
 193 -166 193 -166 195 -168 c 0,52,53
 198 -173 198 -173 198 -181 c 256,54,55
 198 -189 198 -189 195.5 -192.5 c 128,-1,56
 193 -196 193 -196 185 -198 c 2,57,-1
 99 -217 l 1,58,-1
 94 -218 l 1,59,-1
 90 -218 l 2,60,61
 87 -218 87 -218 82 -213 c 0,62,63
 77 -206 77 -206 77 -200 c 0,64,65
 77 -193 77 -193 83 -187 c 1,66,-1
 85 -187 l 2,67,68
 87 -185 87 -185 89 -183 c 128,-1,69
 91 -181 91 -181 93 -180 c 2,70,-1
 92 -180 l 2,71,72
 94 -178 94 -178 95 -176 c 128,-1,73
 96 -174 96 -174 97 -172 c 0,74,75
 97 -167 97 -167 97.5 -163 c 128,-1,76
 98 -159 98 -159 98 -154 c 2,77,-1
 98 313 l 1,14,-1
EndSplineSet
EndChar

StartChar: q
Encoding: 113 113 84
Width: 470
GlyphClass: 2
Flags: W
LayerCount: 2
Fore
SplineSet
331 292 m 1,0,1
 311 316 311 316 285.5 330 c 128,-1,2
 260 344 260 344 231 344 c 0,3,4
 167 344 167 344 126 297 c 256,5,6
 85 250 85 250 85 175 c 0,7,8
 85 144 85 144 93.5 118.5 c 128,-1,9
 102 93 102 93 116 74 c 0,10,11
 149 38 149 38 202 38 c 0,12,13
 236 38 236 38 267.5 53 c 128,-1,14
 299 68 299 68 331 98 c 1,15,-1
 331 292 l 1,0,1
382 -143 m 2,16,17
 382 -166 382 -166 397 -166 c 2,18,-1
 416 -166 l 2,19,20
 426 -166 426 -166 428 -168.5 c 128,-1,21
 430 -171 430 -171 431 -181 c 0,22,23
 431 -194 431 -194 419 -198 c 2,24,-1
 332 -217 l 1,25,-1
 328 -218 l 1,26,-1
 324 -218 l 2,27,28
 319 -218 319 -218 314 -211 c 0,29,30
 312 -208 312 -208 311 -205 c 128,-1,31
 310 -202 310 -202 310 -200 c 0,32,33
 310 -196 310 -196 312 -193.5 c 128,-1,34
 314 -191 314 -191 317 -187 c 2,35,-1
 326 -180 l 1,36,-1
 330 -172 l 1,37,-1
 330 -173 l 1,38,-1
 331 -154 l 1,39,-1
 331 54 l 1,40,41
 292 24 292 24 258 9 c 0,42,43
 219 -8 219 -8 185 -8 c 0,44,45
 152 -8 152 -8 123.5 4.5 c 128,-1,46
 95 17 95 17 73 40 c 0,47,48
 30 88 30 88 30 163 c 0,49,50
 30 256 30 256 86 316 c 0,51,52
 144 379 144 379 227 379 c 0,53,54
 253 379 253 379 279.5 371 c 128,-1,55
 306 363 306 363 332 346 c 1,56,57
 332 356 332 356 331.5 366.5 c 128,-1,58
 331 377 331 377 331 388 c 1,59,-1
 341 389 l 1,60,61
 362 374 362 374 392 374 c 2,62,-1
 406 374 l 2,63,64
 420 374 420 374 424 369.5 c 128,-1,65
 428 365 428 365 428 354 c 0,66,67
 428 335 428 335 410 335 c 1,68,-1
 407 334 l 1,69,-1
 392 333 l 2,70,71
 382 333 382 333 382 326 c 2,72,-1
 382 -143 l 2,16,17
EndSplineSet
EndChar

StartChar: r
Encoding: 114 114 85
Width: 312
GlyphClass: 2
Flags: W
LayerCount: 2
Fore
SplineSet
133 374 m 1,0,-1
 150 374 l 1,1,-1
 150 303 l 1,2,3
 207 370 207 370 267 370 c 2,4,-1
 278 370 l 1,5,-1
 288 370 l 1,6,-1
 298 367 l 1,7,-1
 298 312 l 1,8,-1
 264 312 l 2,9,10
 210 312 210 312 180 289.5 c 128,-1,11
 150 267 150 267 150 225 c 2,12,-1
 150 90 l 2,13,14
 150 76 150 76 151 67 c 128,-1,15
 152 58 152 58 154 53 c 2,16,-1
 154 54 l 1,17,18
 160 45 160 45 180 41 c 2,19,-1
 210 33 l 1,20,-1
 212 33 l 1,21,-1
 213 32 l 1,22,23
 232 29 232 29 232 11 c 0,24,25
 232 0 232 0 230 -2.5 c 128,-1,26
 228 -5 228 -5 217 -5 c 0,27,28
 212 -5 212 -5 203 -3.5 c 128,-1,29
 194 -2 194 -2 180 3 c 0,30,31
 155 10 155 10 136 10 c 0,32,33
 125 10 125 10 115 9 c 128,-1,34
 105 8 105 8 87 3 c 0,35,36
 70 -2 70 -2 59.5 -3.5 c 128,-1,37
 49 -5 49 -5 44 -5 c 0,38,39
 35 -5 35 -5 31 -2 c 0,40,41
 28 2 28 2 28 12 c 0,42,43
 28 28 28 28 46 32 c 2,44,-1
 50 33 l 1,45,-1
 58 35 l 2,46,47
 66 37 66 37 68 37 c 0,48,49
 81 42 81 42 89 54 c 128,-1,50
 97 66 97 66 97 88 c 2,51,-1
 97 313 l 1,52,-1
 58 316 l 1,53,-1
 56 316 l 1,54,-1
 53 316 l 2,55,56
 39 316 39 316 39 330 c 0,57,58
 39 341 39 341 53 346 c 1,59,-1
 52 346 l 1,60,-1
 57 347 l 1,61,-1
 133 374 l 1,0,-1
EndSplineSet
EndChar

StartChar: s
Encoding: 115 115 86
Width: 344
GlyphClass: 2
Flags: W
LayerCount: 2
Fore
SplineSet
286 286 m 1,0,-1
 286 284 l 2,1,2
 286 264 286 264 264 264 c 0,3,4
 257 264 257 264 247 273 c 0,5,6
 245 273 245 273 244 281 c 2,7,-1
 239 315 l 2,8,9
 239 329 239 329 225 334 c 128,-1,10
 211 339 211 339 179 339 c 0,11,12
 141 339 141 339 118.5 322 c 128,-1,13
 96 305 96 305 96 278 c 0,14,15
 96 267 96 267 100 259 c 128,-1,16
 104 251 104 251 111 243 c 0,17,18
 119 237 119 237 138.5 229.5 c 128,-1,19
 158 222 158 222 189 214 c 0,20,21
 255 194 255 194 280 171 c 0,22,23
 306 147 306 147 306 107 c 0,24,25
 306 55 306 55 266 24 c 0,26,27
 225 -9 225 -9 161 -9 c 0,28,29
 149 -9 149 -9 137 -8 c 128,-1,30
 125 -7 125 -7 118 -5 c 2,31,-1
 77 -2 l 2,32,33
 65 -2 65 -2 60 1.5 c 128,-1,34
 55 5 55 5 53 20 c 2,35,-1
 43 98 l 1,36,-1
 43 101 l 2,37,38
 43 119 43 119 67 119 c 0,39,40
 78 119 78 119 83 114 c 0,41,42
 87 108 87 108 91 91 c 2,43,-1
 94 71 l 2,44,45
 99 51 99 51 116 41 c 128,-1,46
 133 31 133 31 165 31 c 0,47,48
 204 31 204 31 230 52 c 0,49,50
 254 72 254 72 254 102 c 0,51,52
 254 143 254 143 166 167 c 2,53,-1
 134 177 l 2,54,55
 92 191 92 191 70 214 c 128,-1,56
 48 237 48 237 48 273 c 0,57,58
 48 297 48 297 58 316.5 c 128,-1,59
 68 336 68 336 85 351 c 0,60,61
 123 379 123 379 181 379 c 0,62,63
 189 379 189 379 198.5 378.5 c 128,-1,64
 208 378 208 378 216 377 c 2,65,-1
 229 375 l 2,66,67
 232 375 232 375 235 374.5 c 128,-1,68
 238 374 238 374 241 374 c 2,69,-1
 262 374 l 2,70,71
 272 374 272 374 275.5 370 c 128,-1,72
 279 366 279 366 281 355 c 2,73,-1
 286 286 l 1,0,-1
EndSplineSet
EndChar

StartChar: t
Encoding: 116 116 87
Width: 341
GlyphClass: 2
Flags: W
LayerCount: 2
Fore
SplineSet
287 72 m 2,0,1
 287 73 287 73 286 72 c 2,2,-1
 287 72 l 2,0,1
89 315 m 1,3,-1
 57 317 l 2,4,5
 46 317 46 317 40 323 c 0,6,7
 37 327 37 327 37 337 c 0,8,9
 37 348 37 348 62 356 c 0,10,11
 83 366 83 366 89 394 c 2,12,-1
 96 429 l 1,13,-1
 96 428 l 1,14,-1
 97 431 l 2,15,16
 100 450 100 450 129 450 c 0,17,18
 139 450 139 450 141 448 c 128,-1,19
 143 446 143 446 144 439 c 2,20,-1
 144 370 l 2,21,22
 144 360 144 360 158 360 c 2,23,-1
 264 360 l 2,24,25
 280 360 280 360 284.5 356 c 128,-1,26
 289 352 289 352 289 341 c 0,27,28
 289 323 289 323 268 322 c 2,29,-1
 148 317 l 2,30,31
 143 317 143 317 141 313 c 2,32,-1
 141 116 l 2,33,34
 141 77 141 77 156 59.5 c 128,-1,35
 171 42 171 42 203 42 c 0,36,37
 217 42 217 42 231 45.5 c 128,-1,38
 245 49 245 49 256 57 c 0,39,40
 262 60 262 60 268 63 c 128,-1,41
 274 66 274 66 277 68 c 2,42,-1
 278 68 l 2,43,44
 280 69 280 69 282.5 70 c 128,-1,45
 285 71 285 71 287 72 c 0,46,47
 293 72 293 72 298 67 c 0,48,49
 304 61 304 61 304 54 c 0,50,51
 304 40 304 40 263 16 c 0,52,53
 224 -9 224 -9 186 -9 c 0,54,55
 136 -9 136 -9 112.5 20.5 c 128,-1,56
 89 50 89 50 89 113 c 2,57,-1
 89 315 l 1,3,-1
EndSplineSet
EndChar

StartChar: u
Encoding: 117 117 88
Width: 499
GlyphClass: 2
Flags: W
LayerCount: 2
Fore
SplineSet
349 55 m 1,0,1
 306 23 306 23 275.5 9.5 c 128,-1,2
 245 -4 245 -4 216 -4 c 0,3,4
 153 -4 153 -4 121 33 c 128,-1,5
 89 70 89 70 89 142 c 2,6,-1
 89 312 l 1,7,8
 84 313 84 313 79 313 c 128,-1,9
 74 313 74 313 69 315 c 2,10,-1
 51 318 l 2,11,12
 50 318 50 318 49.5 318.5 c 128,-1,13
 49 319 49 319 48 319 c 2,14,-1
 47 319 l 2,15,16
 33 321 33 321 33 333 c 0,17,18
 33 343 33 343 50 352 c 2,19,-1
 123 377 l 1,20,-1
 124 380 l 1,21,-1
 129 380 l 1,22,-1
 136 380 l 2,23,24
 136 379 136 379 135 379 c 2,25,-1
 138 379 l 2,26,27
 145 377 145 377 149 373 c 1,28,-1
 149 371 l 2,29,30
 149 370 149 370 150 370 c 2,31,-1
 152 365 l 2,32,33
 152 361 152 361 148 355 c 1,34,-1
 148 356 l 1,35,-1
 146 351 l 2,36,37
 141 346 141 346 141 338 c 2,38,-1
 141 126 l 2,39,40
 141 85 141 85 161.5 63 c 128,-1,41
 182 41 182 41 220 41 c 0,42,43
 247 41 247 41 279.5 55.5 c 128,-1,44
 312 70 312 70 346 97 c 1,45,-1
 346 317 l 1,46,-1
 320 322 l 1,47,-1
 317 322 l 2,48,49
 301 324 301 324 301 338 c 0,50,51
 301 351 301 351 323 356 c 2,52,-1
 343 360 l 2,53,54
 350 362 350 362 359.5 365 c 128,-1,55
 369 368 369 368 377 370 c 0,56,57
 385 373 385 373 392 375.5 c 128,-1,58
 399 378 399 378 403 379 c 0,59,60
 410 379 410 379 415 374 c 128,-1,61
 420 369 420 369 422 363 c 0,62,63
 422 358 422 358 408 346 c 0,64,65
 396 338 396 338 396 323 c 2,66,-1
 396 71 l 2,67,68
 396 61 396 61 403 60 c 0,69,70
 404 60 404 60 405 61 c 2,71,-1
 407 61 l 1,72,-1
 414 64 l 1,73,-1
 427 69 l 1,74,-1
 433 71 l 1,75,-1
 437 71 l 2,76,77
 450 71 450 71 452 54 c 0,78,79
 452 49 452 49 447 46 c 2,80,-1
 449 46 l 1,81,-1
 367 -5 l 1,82,-1
 363 -7 l 1,83,-1
 357 -8 l 2,84,85
 353 -8 353 -8 345 -1 c 0,86,87
 342 4 342 4 339 12 c 1,88,-1
 344 24 l 2,89,90
 349 32 349 32 349 41 c 2,91,-1
 349 55 l 1,0,1
EndSplineSet
EndChar

StartChar: v
Encoding: 118 118 89
Width: 448
GlyphClass: 2
Flags: W
LayerCount: 2
Fore
SplineSet
338 303 m 2,0,1
 339 305 339 305 339.5 307 c 128,-1,2
 340 309 340 309 341 311 c 2,3,-1
 341 310 l 1,4,-1
 343 316 l 1,5,6
 342 327 342 327 331 332 c 2,7,-1
 300 344 l 1,8,-1
 301 344 l 2,9,10
 299 345 299 345 299 345 c 2,11,12
 288 350 288 350 287 355 c 0,13,14
 287 364 287 364 292 371.5 c 128,-1,15
 297 379 297 379 302 379 c 0,16,17
 305 379 305 379 308 378 c 128,-1,18
 311 377 311 377 316 375 c 0,19,20
 333 368 333 368 352.5 364.5 c 128,-1,21
 372 361 372 361 389 361 c 2,22,-1
 408 362 l 1,23,-1
 407 362 l 1,24,-1
 417 364 l 2,25,26
 424 364 424 364 427 359 c 2,27,-1
 427 357 l 2,28,29
 427 355 427 355 427.5 352.5 c 128,-1,30
 428 350 428 350 428 348 c 0,31,32
 428 335 428 335 421 332 c 2,33,-1
 417 332 l 1,34,-1
 412 329 l 2,35,36
 405 327 405 327 398 319 c 128,-1,37
 391 311 391 311 381 291 c 2,38,-1
 229 -9 l 1,39,-1
 230 -9 l 2,40,41
 228 -11 228 -11 227.5 -12.5 c 128,-1,42
 227 -14 227 -14 225 -14 c 0,43,44
 221 -16 221 -16 216 -16 c 0,45,46
 206 -16 206 -16 203 -6 c 2,47,-1
 203 -7 l 1,48,-1
 47 306 l 2,49,50
 38 323 38 323 28 326 c 2,51,-1
 20 328 l 2,52,53
 13 328 13 328 9 334 c 2,54,-1
 8 343 l 2,55,56
 8 353 8 353 10 355.5 c 128,-1,57
 12 358 12 358 23 358 c 2,58,-1
 47 358 l 1,59,-1
 66 358 l 2,60,61
 86 358 86 358 108 369 c 0,62,63
 120 374 120 374 127 376.5 c 128,-1,64
 134 379 134 379 136 379 c 0,65,66
 139 379 139 379 145.5 371 c 128,-1,67
 152 363 152 363 152 357 c 0,68,69
 152 352 152 352 151 352 c 2,70,-1
 142 346 l 1,71,-1
 128 341 l 2,72,73
 117 337 117 337 110.5 331 c 128,-1,74
 104 325 104 325 104 317 c 2,75,-1
 105 310 l 1,76,-1
 105 311 l 1,77,-1
 108 301 l 1,78,-1
 107 301 l 1,79,-1
 113 292 l 2,80,81
 118 279 118 279 127.5 256.5 c 128,-1,82
 137 234 137 234 151 205 c 2,83,-1
 159 192 l 1,84,-1
 158 192 l 1,85,86
 174 160 174 160 188 131.5 c 128,-1,87
 202 103 202 103 224 65 c 1,88,-1
 338 303 l 2,0,1
EndSplineSet
EndChar

StartChar: w
Encoding: 119 119 90
Width: 732
GlyphClass: 2
Flags: W
LayerCount: 2
Fore
SplineSet
367 249 m 1,0,1
 332 183 332 183 298 118 c 128,-1,2
 264 53 264 53 229 -12 c 1,3,-1
 227 -14 l 1,4,-1
 222 -16 l 2,5,6
 214 -16 214 -16 211 -13 c 2,7,-1
 209 -9 l 1,8,-1
 47 305 l 2,9,10
 42 316 42 316 37 320.5 c 128,-1,11
 32 325 32 325 26 327 c 2,12,-1
 18 328 l 2,13,14
 12 330 12 330 9 334 c 2,15,-1
 7 343 l 2,16,17
 7 353 7 353 9.5 355.5 c 128,-1,18
 12 358 12 358 23 358 c 2,19,-1
 28 358 l 2,20,21
 88 358 88 358 126 377 c 1,22,-1
 133 379 l 2,23,24
 138 379 138 379 144.5 372.5 c 128,-1,25
 151 366 151 366 152 358 c 2,26,-1
 151 353 l 1,27,-1
 142 349 l 1,28,-1
 124 341 l 2,29,30
 103 333 103 333 103 314 c 0,31,32
 103 308 103 308 104 306 c 2,33,-1
 104 307 l 1,34,-1
 106 298 l 1,35,-1
 105 298 l 1,36,-1
 223 62 l 1,37,38
 251 114 251 114 278 165 c 128,-1,39
 305 216 305 216 333 269 c 0,40,41
 333 272 333 272 336 274 c 0,42,43
 338 278 338 278 340.5 286 c 128,-1,44
 343 294 343 294 343 305 c 0,45,46
 343 319 343 319 335 326.5 c 128,-1,47
 327 334 327 334 313 338 c 2,48,-1
 305 339 l 2,49,50
 302 340 302 340 298 340 c 2,51,-1
 296 340 l 2,52,53
 294 341 294 341 294 341 c 1,54,55
 283 342 283 342 278 348 c 128,-1,56
 273 354 273 354 273 363 c 256,57,58
 273 372 273 372 276.5 375.5 c 128,-1,59
 280 379 280 379 291 379 c 0,60,61
 297 379 297 379 305 377 c 128,-1,62
 313 375 313 375 325 372 c 0,63,64
 347 366 347 366 359 366 c 0,65,66
 365 366 365 366 374.5 368 c 128,-1,67
 384 370 384 370 397 372 c 0,68,69
 424 380 424 380 437 380 c 0,70,71
 453 380 453 380 453 361 c 0,72,73
 453 347 453 347 438 342 c 2,74,-1
 432 341 l 1,75,-1
 423 338 l 2,76,77
 420 337 420 337 417.5 336.5 c 128,-1,78
 415 336 415 336 412 336 c 0,79,80
 409 334 409 334 405 332 c 128,-1,81
 401 330 401 330 399 328 c 2,82,-1
 399 329 l 1,83,84
 395 323 395 323 395 314 c 0,85,86
 395 312 395 312 397 306 c 0,87,88
 397 299 397 299 401 294 c 2,89,-1
 500 66 l 1,90,-1
 625 296 l 2,91,92
 626 298 626 298 627 302 c 128,-1,93
 628 306 628 306 630 309 c 0,94,95
 630 310 630 310 631 312 c 2,96,-1
 631 311 l 1,97,-1
 632 316 l 2,98,99
 632 330 632 330 613 336 c 1,100,-1
 614 336 l 2,101,102
 607 338 607 338 600.5 340.5 c 128,-1,103
 594 343 594 343 588 345 c 0,104,105
 579 348 579 348 579 357 c 0,106,107
 579 371 579 371 582 375.5 c 128,-1,108
 585 380 585 380 593 380 c 0,109,110
 597 380 597 380 604.5 377.5 c 128,-1,111
 612 375 612 375 619 372 c 0,112,113
 628 370 628 370 635.5 368 c 128,-1,114
 643 366 643 366 648 366 c 0,115,116
 656 366 656 366 666 368 c 128,-1,117
 676 370 676 370 687 373 c 2,118,-1
 712 381 l 2,119,120
 717 381 717 381 722.5 373.5 c 128,-1,121
 728 366 728 366 728 359 c 0,122,123
 728 355 728 355 725 352 c 2,124,-1
 719 349 l 1,125,-1
 710 342 l 2,126,127
 701 338 701 338 694.5 330.5 c 128,-1,128
 688 323 688 323 682 312 c 2,129,-1
 500 -7 l 1,130,-1
 501 -6 l 1,131,132
 499 -14 499 -14 494 -14 c 2,133,-1
 490 -16 l 2,134,135
 485 -16 485 -16 483 -14 c 128,-1,136
 481 -12 481 -12 479 -8 c 2,137,-1
 367 249 l 1,0,1
EndSplineSet
EndChar

StartChar: x
Encoding: 120 120 91
Width: 464
GlyphClass: 2
Flags: W
LayerCount: 2
Fore
SplineSet
204 194 m 1,0,-1
 104 303 l 1,1,-1
 104 302 l 1,2,-1
 97 310 l 2,3,4
 89 321 89 321 75 328.5 c 128,-1,5
 61 336 61 336 47 341 c 1,6,-1
 48 341 l 1,7,-1
 41 343 l 2,8,9
 24 344 24 344 24 368 c 0,10,11
 24 374 24 374 29 378 c 2,12,-1
 39 379 l 2,13,14
 43 379 43 379 48 377.5 c 128,-1,15
 53 376 53 376 63 373 c 0,16,17
 71 371 71 371 79 370 c 128,-1,18
 87 369 87 369 92 369 c 0,19,20
 106 369 106 369 126 373 c 0,21,22
 148 379 148 379 156 379 c 0,23,24
 160 379 160 379 164 375 c 2,25,-1
 165 364 l 2,26,27
 165 352 165 352 141 339 c 1,28,-1
 141 333 l 1,29,-1
 141 328 l 1,30,-1
 142 326 l 1,31,-1
 142 327 l 1,32,-1
 143 324 l 1,33,-1
 236 223 l 1,34,-1
 307 317 l 1,35,-1
 314 327 l 2,36,37
 314 328 314 328 314.5 329 c 128,-1,38
 315 330 315 330 315 332 c 0,39,40
 315 333 315 333 313 337 c 2,41,-1
 302 341 l 1,42,-1
 300 341 l 2,43,44
 299 341 299 341 299 342 c 0,45,46
 288 348 288 348 288 363 c 0,47,48
 288 373 288 373 289.5 375 c 128,-1,49
 291 377 291 377 299 379 c 0,50,51
 310 379 310 379 328 373 c 1,52,-1
 327 373 l 1,53,54
 349 368 349 368 358 368 c 0,55,56
 365 368 365 368 371.5 369 c 128,-1,57
 378 370 378 370 389 373 c 0,58,59
 410 379 410 379 419 379 c 0,60,61
 424 379 424 379 426 376 c 128,-1,62
 428 373 428 373 428 363 c 0,63,64
 428 349 428 349 416 346 c 2,65,-1
 405 341 l 1,66,-1
 402 340 l 1,67,-1
 403 340 l 1,68,69
 381 334 381 334 373 320 c 2,70,-1
 264 190 l 1,71,72
 290 162 290 162 315.5 135.5 c 128,-1,73
 341 109 341 109 368 80 c 1,74,-1
 368 81 l 1,75,-1
 372 75 l 2,76,77
 385 61 385 61 397.5 52.5 c 128,-1,78
 410 44 410 44 421 40 c 0,79,80
 423 40 423 40 423.5 39.5 c 128,-1,81
 424 39 424 39 426 39 c 2,82,-1
 430 37 l 1,83,84
 447 36 447 36 447 16 c 0,85,86
 447 2 447 2 445 -0.5 c 128,-1,87
 443 -3 443 -3 435 -3 c 0,88,89
 430 -3 430 -3 424 -1 c 128,-1,90
 418 1 418 1 408 4 c 0,91,92
 390 11 390 11 376 11 c 256,93,94
 362 11 362 11 342 4 c 1,95,-1
 339 4 l 1,96,97
 325 -2 325 -2 315 -3 c 0,98,99
 308 -3 308 -3 304 1 c 0,100,101
 304 2 304 2 303.5 5 c 128,-1,102
 303 8 303 8 303 13 c 0,103,104
 303 21 303 21 304.5 25 c 128,-1,105
 306 29 306 29 315 33 c 2,106,-1
 326 39 l 1,107,108
 326 39 326 39 327 40 c 2,109,-1
 327 42 l 2,110,111
 329 46 329 46 329 47 c 0,112,113
 328 50 328 50 324.5 57 c 128,-1,114
 321 64 321 64 315 71 c 0,115,116
 295 93 295 93 274 116 c 128,-1,117
 253 139 253 139 233 161 c 1,118,-1
 153 63 l 2,119,120
 142 51 142 51 142 44 c 0,121,122
 142 38 142 38 148 34 c 2,123,-1
 147 35 l 1,124,125
 161 29 161 29 161 16 c 0,126,127
 161 2 161 2 158.5 -0.5 c 128,-1,128
 156 -3 156 -3 148 -3 c 0,129,130
 142 -3 142 -3 124 3 c 0,131,132
 102 8 102 8 94 8 c 0,133,134
 88 8 88 8 79.5 6.5 c 128,-1,135
 71 5 71 5 60 3 c 0,136,137
 54 1 54 1 44 -1 c 128,-1,138
 34 -3 34 -3 31 -3 c 0,139,140
 24 -3 24 -3 20.5 0 c 128,-1,141
 17 3 17 3 17 12 c 0,142,143
 17 31 17 31 35 34 c 2,144,-1
 42 35 l 2,145,146
 54 40 54 40 70 49 c 128,-1,147
 86 58 86 58 95 68 c 2,148,-1
 204 194 l 1,0,-1
EndSplineSet
EndChar

StartChar: y
Encoding: 121 121 92
Width: 472
GlyphClass: 2
Flags: W
LayerCount: 2
Fore
SplineSet
138 343 m 1,0,-1
 109 333 l 2,1,2
 104 332 104 332 102 326 c 0,3,4
 100 325 100 325 100 320 c 2,5,-1
 101 316 l 1,6,-1
 104 309 l 1,7,-1
 103 309 l 1,8,-1
 236 56 l 1,9,10
 241 67 241 67 247 78 c 128,-1,11
 253 89 253 89 259 100 c 0,12,13
 285 147 285 147 312.5 195 c 128,-1,14
 340 243 340 243 365 290 c 1,15,-1
 370 304 l 2,16,17
 373 311 373 311 373 314 c 0,18,19
 373 324 373 324 369.5 329 c 128,-1,20
 366 334 366 334 353 339 c 2,21,-1
 341 345 l 1,22,-1
 338 347 l 2,23,24
 327 353 327 353 326 358 c 0,25,26
 326 368 326 368 329.5 372.5 c 128,-1,27
 333 377 333 377 338 378 c 2,28,-1
 348 375 l 2,29,30
 380 367 380 367 399 367 c 0,31,32
 407 367 407 367 430 372 c 0,33,34
 451 379 451 379 463 379 c 0,35,36
 466 379 466 379 470 373 c 128,-1,37
 474 367 474 367 474 356 c 0,38,39
 474 350 474 350 465 346 c 2,40,-1
 453 341 l 1,41,-1
 454 342 l 2,42,43
 447 339 447 339 434 318 c 1,44,-1
 435 319 l 1,45,-1
 430 310 l 1,46,-1
 426 302 l 2,47,48
 418 291 418 291 412 281 c 128,-1,49
 406 271 406 271 399 260 c 1,50,-1
 399 261 l 1,51,-1
 365 201 l 1,52,-1
 318 121 l 2,53,54
 299 87 299 87 281 55 c 128,-1,55
 263 23 263 23 249 0 c 0,56,57
 233 -26 233 -26 218.5 -50 c 128,-1,58
 204 -74 204 -74 191 -93 c 0,59,60
 171 -126 171 -126 151 -151 c 128,-1,61
 131 -176 131 -176 114 -188 c 0,62,63
 80 -213 80 -213 37 -213 c 0,64,65
 19 -213 19 -213 16 -197 c 2,66,-1
 13 -174 l 1,67,-1
 13 -170 l 2,68,69
 13 -155 13 -155 39 -155 c 0,70,71
 54 -155 54 -155 65 -152 c 0,72,73
 96 -146 96 -146 121 -118 c 0,74,75
 135 -104 135 -104 156 -71 c 128,-1,76
 177 -38 177 -38 208 14 c 1,77,-1
 53 297 l 2,78,79
 33 334 33 334 5 342 c 0,80,81
 -6 345 -6 345 -6 351 c 0,82,83
 -6 366 -6 366 -3.5 372 c 128,-1,84
 -1 378 -1 378 3 379 c 0,85,86
 8 379 8 379 17 377.5 c 128,-1,87
 26 376 26 376 40 372 c 0,88,89
 52 370 52 370 62 368.5 c 128,-1,90
 72 367 72 367 80 367 c 0,91,92
 90 367 90 367 99 368 c 128,-1,93
 108 369 108 369 119 372 c 2,94,-1
 139 378 l 2,95,96
 144 378 144 378 148.5 371 c 128,-1,97
 153 364 153 364 153 355 c 0,98,99
 153 350 153 350 140 343 c 1,100,-1
 140 344 l 1,101,-1
 138 343 l 1,0,-1
EndSplineSet
EndChar

StartChar: z
Encoding: 122 122 93
Width: 442
GlyphClass: 2
Flags: W
LayerCount: 2
Fore
SplineSet
105 44 m 1,0,-1
 276 44 l 2,1,2
 293 44 293 44 304 44 c 128,-1,3
 315 44 315 44 322 45 c 2,4,-1
 354 47 l 2,5,6
 371 49 371 49 389 51.5 c 128,-1,7
 407 54 407 54 427 59 c 1,8,-1
 432 52 l 1,9,-1
 423 12 l 2,10,11
 420 -3 420 -3 399 -3 c 2,12,-1
 374 -2 l 1,13,-1
 331 0 l 1,14,-1
 135 0 l 2,15,16
 110 0 110 0 85 -3 c 2,17,-1
 55 -5 l 2,18,19
 47 -5 47 -5 40 3 c 0,20,21
 37 7 37 7 35 11 c 128,-1,22
 33 15 33 15 33 21 c 256,23,24
 33 27 33 27 40 33 c 2,25,-1
 45 36 l 1,26,-1
 44 36 l 1,27,-1
 326 329 l 1,28,-1
 159 329 l 2,29,30
 125 329 125 329 97 324 c 0,31,32
 83 321 83 321 70.5 317.5 c 128,-1,33
 58 314 58 314 43 309 c 1,34,-1
 34 314 l 1,35,-1
 45 359 l 2,36,37
 48 375 48 375 66 375 c 2,38,-1
 72 375 l 2,39,40
 77 375 77 375 83 375 c 128,-1,41
 89 375 89 375 97 374 c 2,42,-1
 103 374 l 1,43,-1
 109 374 l 2,44,45
 112 374 112 374 115 373.5 c 128,-1,46
 118 373 118 373 121 373 c 2,47,-1
 127 373 l 1,48,-1
 137 373 l 1,49,-1
 302 373 l 2,50,51
 340 373 340 373 373 376 c 2,52,-1
 379 376 l 2,53,54
 396 376 396 376 396 358 c 0,55,56
 396 346 396 346 388 337 c 2,57,-1
 105 44 l 1,0,-1
EndSplineSet
EndChar

StartChar: braceleft
Encoding: 123 123 94
Width: 334
GlyphClass: 2
Flags: W
LayerCount: 2
Fore
SplineSet
311 -210 m 1,0,-1
 283 -210 l 2,1,2
 230 -210 230 -210 213 -202 c 0,3,4
 190 -196 190 -196 164 -167 c 0,5,6
 155 -157 155 -157 135 -103 c 1,7,8
 129 -64 129 -64 129 24 c 0,9,10
 129 123 129 123 121 146 c 0,11,12
 109 213 109 213 28 219 c 1,13,-1
 28 299 l 1,14,15
 102 299 102 299 121 372 c 1,16,-1
 126 427 l 1,17,-1
 129 487 l 2,18,19
 129 517 129 517 132 600 c 0,20,21
 134 658 134 658 174 698 c 0,22,23
 186 710 186 710 223 723 c 1,24,-1
 258 727 l 1,25,-1
 283 728 l 1,26,-1
 311 728 l 1,27,-1
 311 651 l 1,28,-1
 295 651 l 2,29,30
 247 651 247 651 227 632 c 0,31,32
 211 613 211 613 211 551 c 2,33,-1
 210 412 l 2,34,35
 210 396 210 396 206 390 c 0,36,37
 197 341 197 341 174 312 c 0,38,39
 155 287 155 287 109 259 c 1,40,41
 175 235 175 235 196 169 c 0,42,43
 209 128 209 128 211 39 c 2,44,-1
 213 -74 l 2,45,46
 214 -104 214 -104 233 -121 c 1,47,-1
 253 -129 l 1,48,49
 278 -134 278 -134 295 -134 c 2,50,-1
 311 -134 l 1,51,-1
 311 -210 l 1,0,-1
EndSplineSet
EndChar

StartChar: bar
Encoding: 124 124 95
Width: 260
GlyphClass: 2
Flags: W
LayerCount: 2
Fore
SplineSet
168 -210 m 1,0,-1
 92 -210 l 1,1,-1
 92 728 l 1,2,-1
 168 728 l 1,3,-1
 168 -210 l 1,0,-1
EndSplineSet
EndChar

StartChar: braceright
Encoding: 125 125 96
Width: 334
GlyphClass: 2
Flags: W
LayerCount: 2
Fore
SplineSet
306 219 m 1,0,1
 231 219 231 219 212 145 c 1,2,-1
 207 100 l 1,3,-1
 205 -17 l 2,4,5
 205 -43 205 -43 202 -77 c 0,6,7
 200 -117 200 -117 186.5 -141 c 128,-1,8
 173 -165 173 -165 156 -182 c 1,9,-1
 138 -193 l 1,10,-1
 111 -205 l 1,11,-1
 88 -209 l 1,12,-1
 50 -210 l 1,13,-1
 23 -210 l 1,14,-1
 23 -134 l 1,15,-1
 38 -134 l 2,16,17
 91 -134 91 -134 108 -109 c 0,18,19
 121 -90 121 -90 122 -33 c 2,20,-1
 123 62 l 1,21,-1
 126 122 l 2,22,23
 128 169 128 169 158 208 c 0,24,25
 183 242 183 242 224 259 c 1,26,27
 160 287 160 287 137 349 c 0,28,29
 122 390 122 390 122 479 c 2,30,-1
 122 539 l 1,31,-1
 119 600 l 2,32,33
 116 651 116 651 38 651 c 2,34,-1
 23 651 l 1,35,-1
 23 728 l 1,36,-1
 50 728 l 2,37,38
 102 728 102 728 125 718 c 0,39,40
 173 703 173 703 198 620 c 1,41,-1
 203 569 l 1,42,-1
 205 494 l 2,43,44
 206 448 206 448 212 369 c 0,45,46
 219 326 219 326 272 304 c 1,47,-1
 288 300 l 1,48,-1
 306 299 l 1,49,-1
 306 219 l 1,0,1
EndSplineSet
EndChar

StartChar: asciitilde
Encoding: 126 126 97
Width: 584
GlyphClass: 2
Flags: W
LayerCount: 2
Fore
SplineSet
542 329 m 1,0,1
 512 302 512 302 480 286 c 1,2,3
 431 272 431 272 407 273 c 2,4,-1
 379 274 l 1,5,-1
 363 274 l 1,6,-1
 352 278 l 2,7,8
 333 283 333 283 262 314 c 0,9,10
 208 338 208 338 170 338 c 0,11,12
 138 338 138 338 111 325 c 2,13,-1
 81 306 l 1,14,-1
 68 296 l 1,15,-1
 42 272 l 1,16,-1
 42 372 l 1,17,18
 93 428 93 428 178 431 c 0,19,20
 190 431 190 431 240 422 c 0,21,22
 253 416 253 416 332 388 c 2,23,-1
 382 370 l 1,24,-1
 403 365 l 1,25,-1
 416 365 l 2,26,27
 474 365 474 365 542 432 c 1,28,-1
 542 329 l 1,0,1
EndSplineSet
EndChar

StartChar: Oslash
Encoding: 216 216 98
Width: 778
GlyphClass: 2
Flags: W
LayerCount: 2
Fore
SplineSet
733 357 m 0,0,1
 733 254 733 254 694 171 c 0,2,3
 651 78 651 78 567.5 33 c 128,-1,4
 484 -12 484 -12 391 -12 c 0,5,6
 346 -12 346 -12 305 -2 c 1,7,-1
 286 -66 l 1,8,-1
 212 -66 l 1,9,-1
 238 21 l 1,10,11
 138 69 138 69 90 167 c 0,12,13
 48 252 48 252 48 348 c 0,14,15
 48 515 48 515 135 618 c 0,16,17
 227 729 227 729 391 729 c 0,18,19
 421 729 421 729 448 725 c 1,20,-1
 479 825 l 1,21,-1
 552 825 l 1,22,-1
 516 708 l 1,23,24
 624 669 624 669 681 569 c 0,25,26
 733 478 733 478 733 357 c 0,0,1
653 357 m 0,27,28
 654 575 654 575 497 644 c 1,29,-1
 323 59 l 1,30,31
 354 51 354 51 390 51 c 0,32,33
 518 50 518 50 589 142 c 0,34,35
 652 224 652 224 653 357 c 0,27,28
430 662 m 1,36,37
 411 665 411 665 392 665 c 0,38,39
 258 666 258 666 189 570 c 0,40,41
 129 487 129 487 128 347 c 0,42,43
 127 222 127 222 195 139 c 0,44,45
 222 106 222 106 257 85 c 1,46,-1
 430 662 l 1,36,37
EndSplineSet
EndChar

StartChar: ellipsis
Encoding: 8230 8230 99
Width: 823
GlyphClass: 2
Flags: W
LayerCount: 2
Fore
SplineSet
728 60 m 0,0,1
 728 40 728 40 713 25 c 128,-1,2
 698 10 698 10 677 10 c 256,3,4
 656 10 656 10 641.5 25 c 128,-1,5
 627 40 627 40 627 60 c 0,6,7
 627 81 627 81 641.5 96 c 128,-1,8
 656 111 656 111 677 111 c 256,9,10
 698 111 698 111 713 96 c 128,-1,11
 728 81 728 81 728 60 c 0,0,1
468 60 m 0,12,13
 468 40 468 40 453 25 c 128,-1,14
 438 10 438 10 417 10 c 256,15,16
 396 10 396 10 381.5 25 c 128,-1,17
 367 40 367 40 367 60 c 0,18,19
 367 81 367 81 381.5 96 c 128,-1,20
 396 111 396 111 417 111 c 256,21,22
 438 111 438 111 453 96 c 128,-1,23
 468 81 468 81 468 60 c 0,12,13
208 60 m 0,24,25
 208 40 208 40 193 25 c 128,-1,26
 178 10 178 10 157 10 c 256,27,28
 136 10 136 10 121.5 25 c 128,-1,29
 107 40 107 40 107 60 c 0,30,31
 107 81 107 81 121.5 96 c 128,-1,32
 136 111 136 111 157 111 c 256,33,34
 178 111 178 111 193 96 c 128,-1,35
 208 81 208 81 208 60 c 0,24,25
EndSplineSet
EndChar

StartChar: endash
Encoding: 8211 8211 100
Width: 400
GlyphClass: 2
Flags: W
LayerCount: 2
Fore
SplineSet
375 250 m 1,0,-1
 365 200 l 1,1,-1
 37 200 l 1,2,-1
 47 250 l 1,3,-1
 375 250 l 1,0,-1
EndSplineSet
EndChar

StartChar: emdash
Encoding: 8212 8212 101
Width: 1000
GlyphClass: 2
Flags: W
LayerCount: 2
Fore
SplineSet
966 250 m 1,0,-1
 956 200 l 1,1,-1
 40 200 l 1,2,-1
 50 250 l 1,3,-1
 966 250 l 1,0,-1
EndSplineSet
EndChar

StartChar: quotedblleft
Encoding: 8220 8220 102
Width: 384
GlyphClass: 2
Flags: W
LayerCount: 2
Fore
SplineSet
331 553 m 2,0,1
 331 547 331 547 319 535 c 0,2,3
 244 484 244 484 229 400 c 1,4,5
 253 403 253 403 271 381 c 128,-1,6
 289 359 289 359 289 335 c 256,7,8
 289 311 289 311 276 287 c 0,9,10
 261 260 261 260 239 260 c 0,11,12
 226 260 226 260 207 282 c 1,13,-1
 200 298 l 2,14,15
 194 312 194 312 194 335 c 0,16,17
 194 470 194 470 304 565 c 1,18,-1
 313 569 l 1,19,-1
 324 565 l 1,20,-1
 331 553 l 2,0,1
191 553 m 2,21,22
 191 547 191 547 179 535 c 0,23,24
 104 484 104 484 89 400 c 1,25,26
 113 403 113 403 131 381 c 128,-1,27
 149 359 149 359 149 335 c 256,28,29
 149 311 149 311 136 287 c 0,30,31
 121 260 121 260 99 260 c 0,32,33
 86 260 86 260 67 282 c 1,34,-1
 60 298 l 2,35,36
 54 312 54 312 54 335 c 0,37,38
 54 470 54 470 164 565 c 1,39,-1
 173 569 l 1,40,-1
 184 565 l 1,41,-1
 191 553 l 2,21,22
EndSplineSet
EndChar

StartChar: quotedblright
Encoding: 8221 8221 103
Width: 388
GlyphClass: 2
Flags: W
LayerCount: 2
Fore
SplineSet
332 465 m 0,0,1
 332 387 332 387 303 323.5 c 128,-1,2
 274 260 274 260 222 230 c 0,3,4
 214 225 214 225 202 235 c 0,5,6
 196 238 196 238 196 247 c 0,7,8
 196 259 196 259 207 265 c 0,9,10
 281 306 281 306 297 400 c 1,11,-1
 292 400 l 2,12,13
 271 400 271 400 253 419 c 1,14,-1
 244 433 l 1,15,16
 239 449 239 449 237 465 c 0,17,18
 237 490 237 490 250 512.5 c 128,-1,19
 263 535 263 535 287 535 c 0,20,21
 299 535 299 535 319 514 c 1,22,-1
 327 495 l 2,23,24
 332 483 332 483 332 465 c 0,0,1
192 465 m 0,25,26
 192 387 192 387 163 323.5 c 128,-1,27
 134 260 134 260 82 230 c 0,28,29
 74 225 74 225 62 235 c 0,30,31
 56 238 56 238 56 247 c 0,32,33
 56 259 56 259 67 265 c 0,34,35
 141 306 141 306 157 400 c 1,36,-1
 152 400 l 2,37,38
 131 400 131 400 113 419 c 1,39,-1
 104 433 l 1,40,41
 99 449 99 449 97 465 c 0,42,43
 97 490 97 490 110 512.5 c 128,-1,44
 123 535 123 535 147 535 c 0,45,46
 159 535 159 535 179 514 c 1,47,-1
 187 495 l 2,48,49
 192 483 192 483 192 465 c 0,25,26
EndSplineSet
EndChar

StartChar: quoteleft
Encoding: 8216 8216 104
Width: 242
GlyphClass: 2
Flags: W
LayerCount: 2
Fore
SplineSet
191 553 m 2,0,1
 191 547 191 547 179 535 c 0,2,3
 104 484 104 484 89 400 c 1,4,5
 113 403 113 403 131 381 c 128,-1,6
 149 359 149 359 149 335 c 256,7,8
 149 311 149 311 136 287 c 0,9,10
 121 260 121 260 99 260 c 0,11,12
 86 260 86 260 67 282 c 1,13,-1
 60 298 l 2,14,15
 54 312 54 312 54 335 c 0,16,17
 54 470 54 470 164 565 c 1,18,-1
 173 569 l 1,19,-1
 184 565 l 1,20,-1
 191 553 l 2,0,1
EndSplineSet
EndChar

StartChar: quoteright
Encoding: 8217 8217 105
Width: 246
GlyphClass: 2
Flags: W
LayerCount: 2
Fore
SplineSet
192 465 m 0,0,1
 192 387 192 387 163 323.5 c 128,-1,2
 134 260 134 260 82 230 c 0,3,4
 74 225 74 225 62 235 c 0,5,6
 56 238 56 238 56 247 c 0,7,8
 56 259 56 259 67 265 c 0,9,10
 141 306 141 306 157 400 c 1,11,-1
 152 400 l 2,12,13
 131 400 131 400 113 419 c 1,14,-1
 104 433 l 1,15,16
 99 449 99 449 97 465 c 0,17,18
 97 490 97 490 110 512.5 c 128,-1,19
 123 535 123 535 147 535 c 0,20,21
 159 535 159 535 179 514 c 1,22,-1
 187 495 l 2,23,24
 192 483 192 483 192 465 c 0,0,1
EndSplineSet
EndChar

StartChar: divide
Encoding: 247 247 106
Width: 611
GlyphClass: 2
Flags: W
LayerCount: 2
Fore
SplineSet
370 493 m 0,0,1
 370 471 370 471 355.5 454.5 c 128,-1,2
 341 438 341 438 320 438 c 0,3,4
 296 438 296 438 278 451.5 c 128,-1,5
 260 465 260 465 260 488 c 256,6,7
 260 511 260 511 276 527 c 128,-1,8
 292 543 292 543 315 543 c 0,9,10
 337 543 337 543 353.5 528.5 c 128,-1,11
 370 514 370 514 370 493 c 0,0,1
526 315 m 1,12,-1
 107 315 l 1,13,-1
 107 377 l 1,14,-1
 526 377 l 1,15,-1
 526 315 l 1,12,-1
370 204 m 0,16,17
 370 182 370 182 355.5 165.5 c 128,-1,18
 341 149 341 149 320 149 c 0,19,20
 296 149 296 149 278 162.5 c 128,-1,21
 260 176 260 176 260 199 c 256,22,23
 260 222 260 222 276 238 c 128,-1,24
 292 254 292 254 315 254 c 0,25,26
 337 254 337 254 353.5 239.5 c 128,-1,27
 370 225 370 225 370 204 c 0,16,17
EndSplineSet
EndChar

StartChar: minus
Encoding: 173 173 107
Width: 380
GlyphClass: 2
Flags: W
LayerCount: 2
Fore
SplineSet
340 250 m 1,0,-1
 330 200 l 1,1,-1
 40 200 l 1,2,-1
 50 250 l 1,3,-1
 340 250 l 1,0,-1
EndSplineSet
EndChar

StartChar: multiply
Encoding: 215 215 108
Width: 621
GlyphClass: 2
Flags: W
LayerCount: 2
Fore
SplineSet
506 200 m 1,0,-1
 463 157 l 1,1,-1
 315 304 l 1,2,-1
 167 157 l 1,3,-1
 124 200 l 1,4,-1
 271 348 l 1,5,-1
 124 495 l 1,6,-1
 168 539 l 1,7,-1
 315 392 l 1,8,-1
 462 539 l 1,9,-1
 506 495 l 1,10,-1
 359 348 l 1,11,-1
 506 200 l 1,0,-1
EndSplineSet
EndChar

StartChar: onehalf
Encoding: 189 189 109
Width: 568
GlyphClass: 2
Flags: W
LayerCount: 2
Fore
SplineSet
378 690 m 1,0,-1
 145 3 l 1,1,-1
 108 3 l 1,2,-1
 342 690 l 1,3,-1
 378 690 l 1,0,-1
523 1 m 1,4,-1
 281 1 l 1,5,6
 281 65 281 65 334 112 c 1,7,-1
 433 174 l 2,8,9
 487 208 487 208 487 243 c 0,10,11
 487 273 487 273 459.5 299 c 128,-1,12
 432 325 432 325 402 325 c 0,13,14
 373 325 373 325 350.5 301.5 c 128,-1,15
 328 278 328 278 328 249 c 0,16,17
 328 233 328 233 330 231 c 2,18,-1
 294 231 l 1,19,-1
 292 250 l 1,20,21
 292 292 292 292 326 322 c 128,-1,22
 360 352 360 352 402 352 c 0,23,24
 452 352 452 352 487.5 322 c 128,-1,25
 523 292 523 292 523 243 c 0,26,27
 523 192 523 192 473 164 c 2,28,-1
 378 111 l 2,29,30
 323 80 323 80 323 37 c 1,31,-1
 523 37 l 1,32,-1
 523 1 l 1,4,-1
155 298 m 1,33,-1
 119 298 l 1,34,-1
 119 552 l 1,35,-1
 34 552 l 1,36,-1
 34 577 l 1,37,-1
 59 577 l 2,38,39
 88 577 88 577 109.5 594.5 c 128,-1,40
 131 612 131 612 131 637 c 2,41,-1
 131 649 l 1,42,-1
 155 649 l 1,43,-1
 155 298 l 1,33,-1
EndSplineSet
EndChar

StartChar: onequarter
Encoding: 186 186 110
Width: 508
GlyphClass: 2
Flags: W
LayerCount: 2
Fore
SplineSet
378 690 m 1,0,-1
 145 3 l 1,1,-1
 108 3 l 1,2,-1
 342 690 l 1,3,-1
 378 690 l 1,0,-1
155 298 m 1,4,-1
 119 298 l 1,5,-1
 119 552 l 1,6,-1
 34 552 l 1,7,-1
 34 577 l 1,8,-1
 59 577 l 2,9,10
 88 577 88 577 109.5 594.5 c 128,-1,11
 131 612 131 612 131 637 c 2,12,-1
 131 649 l 1,13,-1
 155 649 l 1,14,-1
 155 298 l 1,4,-1
481 94 m 1,15,-1
 432 94 l 1,16,-1
 432 6 l 1,17,-1
 396 6 l 1,18,-1
 396 94 l 1,19,-1
 239 94 l 1,20,-1
 239 139 l 1,21,-1
 396 345 l 1,22,-1
 432 345 l 1,23,-1
 432 127 l 1,24,-1
 481 127 l 1,25,-1
 481 94 l 1,15,-1
396 127 m 1,26,-1
 396 302 l 1,27,-1
 275 139 l 1,28,-1
 275 127 l 1,29,-1
 396 127 l 1,26,-1
EndSplineSet
EndChar

StartChar: threequarters
Encoding: 190 190 111
Width: 592
GlyphClass: 2
Flags: W
LayerCount: 2
Fore
SplineSet
448 690 m 1,0,-1
 215 3 l 1,1,-1
 178 3 l 1,2,-1
 412 690 l 1,3,-1
 448 690 l 1,0,-1
271 416 m 0,4,5
 271 372 271 372 233 340.5 c 128,-1,6
 195 309 195 309 150 309 c 0,7,8
 102 309 102 309 67 342 c 128,-1,9
 32 375 32 375 32 419 c 1,10,-1
 59 419 l 1,11,-1
 60 402 l 2,12,13
 61 393 61 393 68 381 c 0,14,15
 74 366 74 366 90 356 c 0,16,17
 116 335 116 335 150 335 c 0,18,19
 181 335 181 335 206.5 358.5 c 128,-1,20
 232 382 232 382 232 413 c 0,21,22
 232 440 232 440 214 464 c 0,23,24
 199 484 199 484 172 489 c 1,25,-1
 129 489 l 1,26,-1
 129 515 l 1,27,-1
 175 515 l 1,28,29
 223 535 223 535 223 577 c 0,30,31
 223 605 223 605 200.5 625 c 128,-1,32
 178 645 178 645 150 645 c 0,33,34
 91 645 91 645 68 560 c 1,35,-1
 38 560 l 1,36,37
 38 580 38 580 47 604 c 2,38,-1
 58 624 l 1,39,-1
 73 640 l 2,40,41
 105 674 105 674 150 674 c 256,42,43
 195 674 195 674 227 646 c 128,-1,44
 259 618 259 618 259 579 c 0,45,46
 259 537 259 537 211 504 c 1,47,48
 223 501 223 501 234 490 c 2,49,-1
 254 469 l 1,50,51
 271 444 271 444 271 416 c 0,4,5
551 94 m 1,52,-1
 502 94 l 1,53,-1
 502 6 l 1,54,-1
 466 6 l 1,55,-1
 466 94 l 1,56,-1
 309 94 l 1,57,-1
 309 139 l 1,58,-1
 466 345 l 1,59,-1
 502 345 l 1,60,-1
 502 127 l 1,61,-1
 551 127 l 1,62,-1
 551 94 l 1,52,-1
466 127 m 1,63,-1
 466 302 l 1,64,-1
 345 139 l 1,65,-1
 345 127 l 1,66,-1
 466 127 l 1,63,-1
EndSplineSet
EndChar

StartChar: zeronojoin
Encoding: 8204 8204 112
Width: 0
GlyphClass: 2
Flags: W
LayerCount: 2
Fore
SplineSet
180 700 m 1,0,-1
 -19 -295 l 1,1,-1
 -59 -295 l 1,2,-1
 140 700 l 1,3,-1
 180 700 l 1,0,-1
EndSplineSet
EndChar

StartChar: circledash
Encoding: 9676 9676 113
Width: 667
GlyphClass: 2
Flags: W
LayerCount: 2
Fore
SplineSet
512 385 m 256,0,1
 512 372 512 372 502.5 362 c 128,-1,2
 493 352 493 352 480 352 c 0,3,4
 447 352 447 352 447 385 c 0,5,6
 447 396 447 396 456 407 c 0,7,8
 464 415 464 415 480 417 c 0,9,10
 493 417 493 417 502.5 407.5 c 128,-1,11
 512 398 512 398 512 385 c 256,0,1
588 307 m 0,12,13
 588 295 588 295 578 285 c 128,-1,14
 568 275 568 275 556 275 c 0,15,16
 545 275 545 275 534.5 284 c 128,-1,17
 524 293 524 293 524 307 c 0,18,19
 524 319 524 319 533 329 c 128,-1,20
 542 339 542 339 556 340 c 0,21,22
 568 340 568 340 578 330 c 128,-1,23
 588 320 588 320 588 307 c 0,12,13
407 413 m 0,24,25
 407 399 407 399 397.5 389.5 c 128,-1,26
 388 380 388 380 374 380 c 0,27,28
 363 380 363 380 352.5 389 c 128,-1,29
 342 398 342 398 342 413 c 0,30,31
 342 424 342 424 351.5 434.5 c 128,-1,32
 361 445 361 445 374 445 c 256,33,34
 387 445 387 445 397 435.5 c 128,-1,35
 407 426 407 426 407 413 c 0,24,25
617 202 m 0,36,37
 617 190 617 190 607 180 c 128,-1,38
 597 170 597 170 585 170 c 0,39,40
 552 170 552 170 552 202 c 0,41,42
 552 213 552 213 561 224 c 0,43,44
 569 232 569 232 585 234 c 0,45,46
 616 234 616 234 617 202 c 0,36,37
301 385 m 256,47,48
 301 372 301 372 291.5 362 c 128,-1,49
 282 352 282 352 269 352 c 0,50,51
 258 352 258 352 247.5 361 c 128,-1,52
 237 370 237 370 237 385 c 0,53,54
 237 396 237 396 246 406 c 128,-1,55
 255 416 255 416 269 417 c 0,56,57
 282 417 282 417 291.5 407.5 c 128,-1,58
 301 398 301 398 301 385 c 256,47,48
588 97 m 256,59,60
 588 84 588 84 578.5 74 c 128,-1,61
 569 64 569 64 556 64 c 0,62,63
 545 64 545 64 534.5 73 c 128,-1,64
 524 82 524 82 524 97 c 0,65,66
 524 108 524 108 533 118 c 128,-1,67
 542 128 542 128 556 129 c 0,68,69
 569 129 569 129 578.5 119.5 c 128,-1,70
 588 110 588 110 588 97 c 256,59,60
512 19 m 0,71,72
 512 6 512 6 502.5 -3.5 c 128,-1,73
 493 -13 493 -13 480 -13 c 256,74,75
 467 -13 467 -13 457 -3.5 c 128,-1,76
 447 6 447 6 447 19 c 256,77,78
 447 32 447 32 456 43 c 0,79,80
 464 51 464 51 480 53 c 0,81,82
 508 53 508 53 512 19 c 0,71,72
224 307 m 0,83,84
 224 295 224 295 214 285 c 128,-1,85
 204 275 204 275 192 275 c 0,86,87
 159 275 159 275 159 307 c 0,88,89
 159 319 159 319 168 330 c 0,90,91
 176 338 176 338 192 340 c 0,92,93
 205 340 205 340 214.5 330 c 128,-1,94
 224 320 224 320 224 307 c 0,83,84
407 -9 m 0,95,96
 407 -21 407 -21 397 -31 c 128,-1,97
 387 -41 387 -41 374 -41 c 0,98,99
 362 -41 362 -41 352 -31 c 128,-1,100
 342 -21 342 -21 342 -9 c 256,101,102
 342 3 342 3 351.5 13.5 c 128,-1,103
 361 24 361 24 374 24 c 256,104,105
 387 24 387 24 396.5 14 c 128,-1,106
 406 4 406 4 407 -9 c 0,95,96
196 202 m 0,107,108
 196 190 196 190 186 180 c 128,-1,109
 176 170 176 170 164 170 c 0,110,111
 131 170 131 170 131 202 c 0,112,113
 131 213 131 213 140 224 c 0,114,115
 148 232 148 232 164 234 c 0,116,117
 195 234 195 234 196 202 c 0,107,108
301 19 m 0,118,119
 301 -12 301 -12 269 -13 c 0,120,121
 257 -13 257 -13 247 -3 c 128,-1,122
 237 7 237 7 237 19 c 0,123,124
 237 32 237 32 246 42 c 128,-1,125
 255 52 255 52 269 53 c 0,126,127
 297 54 297 54 301 19 c 0,118,119
224 97 m 256,128,129
 224 84 224 84 214.5 74 c 128,-1,130
 205 64 205 64 192 64 c 0,131,132
 159 64 159 64 159 97 c 0,133,134
 159 108 159 108 168 119 c 0,135,136
 176 127 176 127 192 129 c 0,137,138
 205 129 205 129 214.5 119.5 c 128,-1,139
 224 110 224 110 224 97 c 256,128,129
EndSplineSet
EndChar

StartChar: u0B82
Encoding: 2946 2946 114
Width: 247
GlyphClass: 2
Flags: W
LayerCount: 2
Fore
SplineSet
216 437 m 256,0,1
 216 400 216 400 189.5 374 c 128,-1,2
 163 348 163 348 126 348 c 0,3,4
 88 348 88 348 61.5 373.5 c 128,-1,5
 35 399 35 399 35 437 c 256,6,7
 35 475 35 475 61.5 500.5 c 128,-1,8
 88 526 88 526 126 526 c 0,9,10
 163 526 163 526 189.5 500 c 128,-1,11
 216 474 216 474 216 437 c 256,0,1
184 437 m 256,12,13
 184 462 184 462 167 478.5 c 128,-1,14
 150 495 150 495 125 495 c 0,15,16
 101 495 101 495 84 478 c 128,-1,17
 67 461 67 461 67 437 c 256,18,19
 67 413 67 413 84 396 c 128,-1,20
 101 379 101 379 125 379 c 0,21,22
 150 379 150 379 167 395.5 c 128,-1,23
 184 412 184 412 184 437 c 256,12,13
EndSplineSet
EndChar

StartChar: u0B83
Encoding: 2947 2947 115
Width: 698
GlyphClass: 2
Flags: W
LayerCount: 2
Fore
SplineSet
448 480 m 2,0,1
 448 446 448 446 422.5 423 c 128,-1,2
 397 400 397 400 363 400 c 2,3,-1
 333 400 l 2,4,5
 298 400 298 400 273 424 c 128,-1,6
 248 448 248 448 248 480 c 2,7,-1
 248 620 l 2,8,9
 248 653 248 653 274 676.5 c 128,-1,10
 300 700 300 700 333 700 c 2,11,-1
 368 700 l 2,12,13
 399 700 399 700 423.5 675.5 c 128,-1,14
 448 651 448 651 448 620 c 2,15,-1
 448 480 l 2,0,1
658 80 m 2,16,17
 658 46 658 46 632.5 23 c 128,-1,18
 607 0 607 0 573 0 c 2,19,-1
 543 0 l 2,20,21
 508 0 508 0 483 24 c 128,-1,22
 458 48 458 48 458 80 c 2,23,-1
 458 220 l 2,24,25
 458 253 458 253 484 276.5 c 128,-1,26
 510 300 510 300 543 300 c 2,27,-1
 578 300 l 2,28,29
 609 300 609 300 633.5 275.5 c 128,-1,30
 658 251 658 251 658 220 c 2,31,-1
 658 80 l 2,16,17
238 80 m 2,32,33
 238 46 238 46 212.5 23 c 128,-1,34
 187 0 187 0 153 0 c 2,35,-1
 123 0 l 2,36,37
 88 0 88 0 63 24 c 128,-1,38
 38 48 38 48 38 80 c 2,39,-1
 38 220 l 2,40,41
 38 253 38 253 64 276.5 c 128,-1,42
 90 300 90 300 123 300 c 2,43,-1
 158 300 l 2,44,45
 189 300 189 300 213.5 275.5 c 128,-1,46
 238 251 238 251 238 220 c 2,47,-1
 238 80 l 2,32,33
408 480 m 2,48,-1
 408 620 l 2,49,50
 408 634 408 634 395 647 c 128,-1,51
 382 660 382 660 368 660 c 2,52,-1
 333 660 l 2,53,54
 317 660 317 660 302.5 647.5 c 128,-1,55
 288 635 288 635 288 620 c 2,56,-1
 288 480 l 2,57,58
 288 465 288 465 301 452.5 c 128,-1,59
 314 440 314 440 333 440 c 2,60,-1
 363 440 l 2,61,62
 381 440 381 440 394.5 452 c 128,-1,63
 408 464 408 464 408 480 c 2,48,-1
618 80 m 2,64,-1
 618 220 l 2,65,66
 618 234 618 234 605 247 c 128,-1,67
 592 260 592 260 578 260 c 2,68,-1
 543 260 l 2,69,70
 527 260 527 260 512.5 247.5 c 128,-1,71
 498 235 498 235 498 220 c 2,72,-1
 498 80 l 2,73,74
 498 65 498 65 511 52.5 c 128,-1,75
 524 40 524 40 543 40 c 2,76,-1
 573 40 l 2,77,78
 591 40 591 40 604.5 52 c 128,-1,79
 618 64 618 64 618 80 c 2,64,-1
198 80 m 2,80,-1
 198 220 l 2,81,82
 198 234 198 234 185 247 c 128,-1,83
 172 260 172 260 158 260 c 2,84,-1
 123 260 l 2,85,86
 107 260 107 260 92.5 247.5 c 128,-1,87
 78 235 78 235 78 220 c 2,88,-1
 78 80 l 2,89,90
 78 65 78 65 91 52.5 c 128,-1,91
 104 40 104 40 123 40 c 2,92,-1
 153 40 l 2,93,94
 171 40 171 40 184.5 52 c 128,-1,95
 198 64 198 64 198 80 c 2,80,-1
EndSplineSet
EndChar

StartChar: u0B85
Encoding: 2949 2949 116
Width: 666
GlyphClass: 2
Flags: W
LayerCount: 2
Fore
SplineSet
661 -20 m 0,0,1
 661 -35 661 -35 646 -40 c 1,2,-1
 635 -39 l 1,3,-1
 618 -32 l 1,4,-1
 591 -25 l 1,5,-1
 581 -26 l 1,6,-1
 563 -32 l 1,7,-1
 536 -40 l 1,8,9
 521 -40 521 -40 521 -20 c 256,10,11
 521 0 521 0 541 0 c 0,12,13
 571 0 571 0 571 20 c 2,14,-1
 571 120 l 1,15,-1
 501 120 l 1,16,-1
 501 90 l 2,17,18
 501 36 501 36 465 -2 c 128,-1,19
 429 -40 429 -40 376 -40 c 2,20,-1
 96 -40 l 2,21,22
 68 -40 68 -40 44.5 -18.5 c 128,-1,23
 21 3 21 3 21 30 c 2,24,-1
 21 90 l 2,25,26
 21 118 21 118 44.5 139 c 128,-1,27
 68 160 68 160 96 160 c 2,28,-1
 461 160 l 1,29,-1
 461 330 l 2,30,31
 461 360 461 360 431 360 c 2,32,-1
 321 360 l 1,33,-1
 321 250 l 2,34,35
 321 223 321 223 299.5 201.5 c 128,-1,36
 278 180 278 180 251 180 c 2,37,-1
 241 180 l 2,38,39
 211 180 211 180 191 200 c 128,-1,40
 171 220 171 220 171 250 c 2,41,-1
 171 330 l 2,42,43
 171 358 171 358 194.5 379 c 128,-1,44
 218 400 218 400 246 400 c 2,45,-1
 431 400 l 2,46,47
 457 400 457 400 479 378 c 128,-1,48
 501 356 501 356 501 330 c 2,49,-1
 501 160 l 1,50,-1
 571 160 l 1,51,-1
 571 340 l 2,52,53
 571 360 571 360 541 360 c 0,54,55
 521 360 521 360 521 380 c 0,56,57
 521 395 521 395 536 400 c 1,58,-1
 547 399 l 1,59,-1
 564 392 l 1,60,-1
 591 385 l 1,61,-1
 601 386 l 1,62,-1
 619 392 l 1,63,-1
 646 400 l 1,64,65
 661 400 661 400 661 380 c 256,66,67
 661 360 661 360 641 360 c 0,68,69
 611 360 611 360 611 340 c 2,70,-1
 611 20 l 2,71,72
 611 0 611 0 641 0 c 0,73,74
 661 0 661 0 661 -20 c 0,0,1
281 250 m 1,75,-1
 281 360 l 1,76,-1
 246 360 l 2,77,78
 211 360 211 360 211 330 c 2,79,-1
 211 250 l 2,80,81
 211 220 211 220 246 220 c 0,82,83
 274 220 274 220 281 250 c 1,75,-1
461 90 m 2,84,-1
 461 120 l 1,85,-1
 96 120 l 2,86,87
 61 120 61 120 61 90 c 2,88,-1
 61 30 l 2,89,90
 61 0 61 0 96 0 c 2,91,-1
 376 0 l 2,92,93
 410 0 410 0 435.5 28 c 128,-1,94
 461 56 461 56 461 90 c 2,84,-1
EndSplineSet
EndChar

StartChar: u0B86
Encoding: 2950 2950 117
Width: 723
GlyphClass: 2
Flags: W
LayerCount: 2
Fore
SplineSet
791 -150 m 2,0,1
 791 -195 791 -195 756 -227.5 c 128,-1,2
 721 -260 721 -260 676 -260 c 2,3,-1
 286 -260 l 2,4,5
 260 -260 260 -260 237 -243 c 0,6,7
 211 -225 211 -225 211 -200 c 2,8,-1
 211 -170 l 2,9,10
 211 -146 211 -146 232 -128 c 128,-1,11
 253 -110 253 -110 281 -110 c 2,12,-1
 361 -110 l 2,13,14
 415 -110 415 -110 451 -80 c 0,15,16
 453 -78 453 -78 456 -78 c 0,17,18
 463 -78 463 -78 471 -90 c 1,19,-1
 474 -100 l 2,20,21
 474 -106 474 -106 461 -120 c 0,22,23
 423 -150 423 -150 361 -150 c 2,24,-1
 281 -150 l 2,25,26
 251 -150 251 -150 251 -170 c 2,27,-1
 251 -200 l 2,28,29
 251 -220 251 -220 286 -220 c 2,30,-1
 676 -220 l 2,31,32
 705 -220 705 -220 728 -199 c 128,-1,33
 751 -178 751 -178 751 -150 c 2,34,-1
 751 -70 l 2,35,36
 751 -40 751 -40 721 -40 c 2,37,-1
 651 -40 l 2,38,39
 611 -40 611 -40 611 -70 c 2,40,-1
 611 -90 l 2,41,42
 611 -110 611 -110 641 -110 c 0,43,44
 661 -110 661 -110 661 -130 c 0,45,46
 661 -145 661 -145 646 -150 c 1,47,-1
 635 -149 l 1,48,-1
 618 -142 l 1,49,-1
 591 -135 l 1,50,-1
 581 -136 l 1,51,-1
 563 -142 l 1,52,-1
 536 -150 l 1,53,54
 521 -150 521 -150 521 -130 c 256,55,56
 521 -110 521 -110 541 -110 c 0,57,58
 571 -110 571 -110 571 -90 c 2,59,-1
 571 120 l 1,60,-1
 501 120 l 1,61,-1
 501 80 l 2,62,63
 501 31 501 31 468 -4.5 c 128,-1,64
 435 -40 435 -40 386 -40 c 2,65,-1
 96 -40 l 2,66,67
 68 -40 68 -40 44.5 -18.5 c 128,-1,68
 21 3 21 3 21 30 c 2,69,-1
 21 90 l 2,70,71
 21 118 21 118 44.5 139 c 128,-1,72
 68 160 68 160 96 160 c 2,73,-1
 461 160 l 1,74,-1
 461 330 l 2,75,76
 461 360 461 360 431 360 c 2,77,-1
 321 360 l 1,78,-1
 321 250 l 2,79,80
 321 221 321 221 300 200.5 c 128,-1,81
 279 180 279 180 246 180 c 0,82,83
 214 180 214 180 192.5 200.5 c 128,-1,84
 171 221 171 221 171 250 c 2,85,-1
 171 330 l 2,86,87
 171 358 171 358 194.5 379 c 128,-1,88
 218 400 218 400 246 400 c 2,89,-1
 431 400 l 2,90,91
 457 400 457 400 479 378 c 128,-1,92
 501 356 501 356 501 330 c 2,93,-1
 501 160 l 1,94,-1
 571 160 l 1,95,-1
 571 340 l 2,96,97
 571 360 571 360 541 360 c 0,98,99
 521 360 521 360 521 380 c 0,100,101
 521 395 521 395 536 400 c 1,102,-1
 547 399 l 1,103,-1
 564 392 l 1,104,-1
 591 385 l 1,105,-1
 601 386 l 1,106,-1
 619 392 l 1,107,-1
 646 400 l 1,108,109
 661 400 661 400 661 380 c 256,110,111
 661 360 661 360 641 360 c 0,112,113
 611 360 611 360 611 340 c 2,114,-1
 611 -10 l 1,115,116
 624 0 624 0 651 0 c 2,117,-1
 721 0 l 2,118,119
 750 0 750 0 770.5 -20.5 c 128,-1,120
 791 -41 791 -41 791 -70 c 2,121,-1
 791 -150 l 2,0,1
281 250 m 1,122,-1
 281 360 l 1,123,-1
 246 360 l 2,124,125
 211 360 211 360 211 330 c 2,126,-1
 211 250 l 2,127,128
 211 220 211 220 246 220 c 0,129,130
 274 220 274 220 281 250 c 1,122,-1
461 80 m 2,131,-1
 461 120 l 1,132,-1
 96 120 l 2,133,134
 61 120 61 120 61 90 c 2,135,-1
 61 30 l 2,136,137
 61 0 61 0 96 0 c 2,138,-1
 386 0 l 2,139,140
 417 0 417 0 439 23 c 128,-1,141
 461 46 461 46 461 80 c 2,131,-1
EndSplineSet
EndChar

StartChar: u0B87
Encoding: 2951 2951 118
Width: 715
GlyphClass: 2
Flags: W
LayerCount: 2
Fore
SplineSet
690 -70 m 2,0,1
 690 -115 690 -115 655 -147.5 c 128,-1,2
 620 -180 620 -180 575 -180 c 2,3,-1
 515 -180 l 2,4,5
 472 -180 472 -180 440 -150 c 2,6,-1
 360 -75 l 1,7,-1
 320 -150 l 2,8,9
 304 -180 304 -180 245 -180 c 2,10,-1
 155 -180 l 2,11,12
 105 -180 105 -180 69 -150 c 0,13,14
 30 -119 30 -119 30 -70 c 2,15,-1
 30 90 l 2,16,17
 30 121 30 121 54.5 140.5 c 128,-1,18
 79 160 79 160 110 160 c 1,19,-1
 70 200 l 1,20,-1
 70 470 l 2,21,22
 70 499 70 499 90.5 519.5 c 128,-1,23
 111 540 111 540 140 540 c 2,24,-1
 550 540 l 2,25,26
 576 540 576 540 598 518 c 128,-1,27
 620 496 620 496 620 470 c 2,28,-1
 620 270 l 2,29,30
 620 250 620 250 650 250 c 0,31,32
 670 250 670 250 670 230 c 256,33,34
 670 210 670 210 650 210 c 1,35,-1
 627 216 l 1,36,-1
 600 225 l 1,37,-1
 590 224 l 1,38,-1
 575 217 l 1,39,-1
 550 210 l 1,40,41
 530 210 530 210 530 230 c 256,42,43
 530 250 530 250 550 250 c 0,44,45
 580 250 580 250 580 270 c 2,46,-1
 580 470 l 2,47,48
 580 500 580 500 550 500 c 2,49,-1
 140 500 l 2,50,51
 110 500 110 500 110 470 c 2,52,-1
 110 215 l 1,53,-1
 170 160 l 1,54,-1
 450 160 l 1,55,-1
 460 175 l 1,56,-1
 460 330 l 2,57,58
 460 360 460 360 430 360 c 2,59,-1
 380 360 l 1,60,-1
 380 250 l 2,61,62
 380 221 380 221 359 200.5 c 128,-1,63
 338 180 338 180 305 180 c 0,64,65
 273 180 273 180 251.5 200.5 c 128,-1,66
 230 221 230 221 230 250 c 2,67,-1
 230 330 l 2,68,69
 230 358 230 358 253.5 379 c 128,-1,70
 277 400 277 400 305 400 c 2,71,-1
 430 400 l 2,72,73
 456 400 456 400 478 378 c 128,-1,74
 500 356 500 356 500 330 c 2,75,-1
 500 160 l 1,76,-1
 620 160 l 2,77,78
 646 160 646 160 668 138 c 128,-1,79
 690 116 690 116 690 90 c 2,80,-1
 690 -70 l 2,0,1
340 250 m 1,81,-1
 340 360 l 1,82,-1
 305 360 l 2,83,84
 270 360 270 360 270 330 c 2,85,-1
 270 250 l 2,86,87
 270 220 270 220 305 220 c 0,88,89
 333 220 333 220 340 250 c 1,81,-1
650 -70 m 2,90,-1
 650 90 l 2,91,92
 650 120 650 120 620 120 c 2,93,-1
 475 120 l 1,94,-1
 380 -40 l 1,95,-1
 465 -120 l 2,96,97
 486 -140 486 -140 515 -140 c 2,98,-1
 575 -140 l 2,99,100
 604 -140 604 -140 627 -119 c 128,-1,101
 650 -98 650 -98 650 -70 c 2,90,-1
430 120 m 1,102,-1
 210 120 l 1,103,-1
 355 -5 l 1,104,-1
 430 120 l 1,102,-1
330 -50 m 1,105,-1
 150 120 l 1,106,-1
 105 120 l 2,107,108
 70 120 70 120 70 90 c 2,109,-1
 70 -70 l 2,110,111
 70 -93 70 -93 94 -119 c 0,112,113
 118 -140 118 -140 155 -140 c 2,114,-1
 245 -140 l 2,115,116
 279 -140 279 -140 290 -120 c 2,117,-1
 330 -50 l 1,105,-1
EndSplineSet
EndChar

StartChar: u0B88
Encoding: 2952 2952 119
Width: 460
GlyphClass: 2
Flags: W
LayerCount: 2
Fore
SplineSet
440 210 m 2,0,1
 440 191 440 191 429.5 175.5 c 128,-1,2
 419 160 419 160 400 160 c 2,3,-1
 390 160 l 2,4,5
 375 160 375 160 362.5 175 c 128,-1,6
 350 190 350 190 350 210 c 2,7,-1
 350 250 l 2,8,9
 350 268 350 268 358 282 c 0,10,11
 369 300 369 300 385 300 c 2,12,-1
 405 300 l 2,13,14
 419 300 419 300 429.5 282.5 c 128,-1,15
 440 265 440 265 440 250 c 2,16,-1
 440 210 l 2,0,1
230 210 m 2,17,18
 230 191 230 191 219.5 175.5 c 128,-1,19
 209 160 209 160 190 160 c 2,20,-1
 180 160 l 2,21,22
 165 160 165 160 152.5 175 c 128,-1,23
 140 190 140 190 140 210 c 2,24,-1
 140 250 l 2,25,26
 140 268 140 268 148 282 c 0,27,28
 159 300 159 300 175 300 c 2,29,-1
 195 300 l 2,30,31
 209 300 209 300 219.5 282.5 c 128,-1,32
 230 265 230 265 230 250 c 2,33,-1
 230 210 l 2,17,18
380 380 m 256,34,35
 380 360 380 360 360 360 c 2,36,-1
 310 360 l 1,37,-1
 310 60 l 2,38,39
 310 40 310 40 340 40 c 0,40,41
 360 40 360 40 360 20 c 0,42,43
 360 5 360 5 345 0 c 1,44,-1
 335 1 l 1,45,-1
 317 7 l 1,46,-1
 290 15 l 1,47,-1
 279 14 l 1,48,-1
 262 7 l 1,49,-1
 235 0 l 2,50,51
 220 0 220 0 220 20 c 256,52,53
 220 40 220 40 240 40 c 0,54,55
 270 40 270 40 270 60 c 2,56,-1
 270 360 l 1,57,-1
 130 360 l 2,58,59
 100 360 100 360 100 330 c 2,60,-1
 100 60 l 2,61,62
 100 40 100 40 135 40 c 0,63,64
 155 40 155 40 155 20 c 256,65,66
 155 0 155 0 135 0 c 2,67,-1
 125 1 l 1,68,-1
 107 7 l 1,69,-1
 80 15 l 1,70,-1
 69 14 l 1,71,-1
 52 7 l 1,72,-1
 25 0 l 2,73,74
 10 0 10 0 10 20 c 0,75,76
 10 30 10 30 35 40 c 1,77,78
 60 43 60 43 60 60 c 2,79,-1
 60 330 l 2,80,81
 60 359 60 359 80.5 379.5 c 128,-1,82
 101 400 101 400 130 400 c 2,83,-1
 365 400 l 2,84,85
 380 400 380 400 380 380 c 256,34,35
EndSplineSet
EndChar

StartChar: u0B89
Encoding: 2953 2953 120
Width: 767
GlyphClass: 2
Flags: W
LayerCount: 2
Fore
SplineSet
762 20 m 256,0,1
 762 0 762 0 732 0 c 2,2,-1
 107 0 l 2,3,4
 84 0 84 0 60 18 c 0,5,6
 42 36 42 36 42 60 c 2,7,-1
 42 90 l 2,8,9
 42 125 42 125 77 140 c 1,10,-1
 232 180 l 2,11,12
 262 188 262 188 262 210 c 2,13,-1
 262 330 l 2,14,15
 262 360 262 360 232 360 c 2,16,-1
 192 360 l 1,17,-1
 192 250 l 2,18,19
 192 221 192 221 171 200.5 c 128,-1,20
 150 180 150 180 117 180 c 0,21,22
 85 180 85 180 63.5 200.5 c 128,-1,23
 42 221 42 221 42 250 c 2,24,-1
 42 330 l 2,25,26
 42 358 42 358 65.5 379 c 128,-1,27
 89 400 89 400 117 400 c 2,28,-1
 232 400 l 2,29,30
 258 400 258 400 280 378 c 128,-1,31
 302 356 302 356 302 330 c 2,32,-1
 302 210 l 2,33,34
 302 184 302 184 280.5 165 c 128,-1,35
 259 146 259 146 232 140 c 2,36,-1
 102 110 l 2,37,38
 88 107 88 107 82 90 c 1,39,-1
 82 60 l 2,40,41
 82 40 82 40 107 40 c 2,42,-1
 732 40 l 2,43,44
 762 40 762 40 762 20 c 256,0,1
152 250 m 1,45,-1
 152 360 l 1,46,-1
 117 360 l 2,47,48
 82 360 82 360 82 330 c 2,49,-1
 82 250 l 2,50,51
 82 220 82 220 117 220 c 0,52,53
 145 220 145 220 152 250 c 1,45,-1
EndSplineSet
EndChar

StartChar: u0B8A
Encoding: 2954 2954 121
Width: 844
GlyphClass: 2
Flags: W
LayerCount: 2
Fore
SplineSet
847 380 m 256,0,1
 847 360 847 360 827 360 c 2,2,-1
 772 360 l 1,3,-1
 772 130 l 2,4,5
 772 110 772 110 797 110 c 2,6,-1
 807 110 l 2,7,8
 822 110 822 110 822 90 c 0,9,10
 822 75 822 75 807 70 c 1,11,-1
 797 71 l 1,12,-1
 779 77 l 1,13,-1
 752 85 l 1,14,15
 737 85 737 85 722 77 c 1,16,-1
 692 70 l 1,17,-1
 682 70 l 1,18,-1
 654 76 l 1,19,-1
 622 85 l 1,20,-1
 611 84 l 1,21,-1
 594 77 l 1,22,-1
 567 70 l 1,23,24
 542 70 542 70 542 90 c 256,25,26
 542 110 542 110 567 110 c 2,27,-1
 577 110 l 2,28,29
 602 110 602 110 602 130 c 2,30,-1
 602 320 l 2,31,32
 602 335 602 335 584.5 347.5 c 128,-1,33
 567 360 567 360 552 360 c 2,34,-1
 442 360 l 2,35,36
 412 360 412 360 412 330 c 2,37,-1
 412 300 l 1,38,39
 420 310 420 310 447 310 c 0,40,41
 479 310 479 310 500.5 289.5 c 128,-1,42
 522 269 522 269 522 240 c 2,43,-1
 522 140 l 2,44,45
 522 111 522 111 501 90.5 c 128,-1,46
 480 70 480 70 447 70 c 0,47,48
 415 70 415 70 393.5 90.5 c 128,-1,49
 372 111 372 111 372 140 c 2,50,-1
 372 330 l 2,51,52
 372 359 372 359 392.5 379.5 c 128,-1,53
 413 400 413 400 442 400 c 2,54,-1
 552 400 l 2,55,56
 599 400 599 400 622 370 c 1,57,58
 637 400 637 400 687 400 c 2,59,-1
 832 400 l 2,60,61
 847 400 847 400 847 380 c 256,0,1
832 20 m 256,62,63
 832 0 832 0 812 0 c 2,64,-1
 112 0 l 2,65,66
 85 0 85 0 63.5 16.5 c 128,-1,67
 42 33 42 33 42 60 c 2,68,-1
 42 90 l 2,69,70
 42 124 42 124 82 140 c 1,71,-1
 232 180 l 2,72,73
 262 188 262 188 262 210 c 2,74,-1
 262 330 l 2,75,76
 262 360 262 360 232 360 c 2,77,-1
 192 360 l 1,78,-1
 192 250 l 2,79,80
 192 221 192 221 171 200.5 c 128,-1,81
 150 180 150 180 117 180 c 0,82,83
 85 180 85 180 63.5 200.5 c 128,-1,84
 42 221 42 221 42 250 c 2,85,-1
 42 330 l 2,86,87
 42 359 42 359 62.5 379.5 c 128,-1,88
 83 400 83 400 112 400 c 2,89,-1
 232 400 l 2,90,91
 258 400 258 400 280 378 c 128,-1,92
 302 356 302 356 302 330 c 2,93,-1
 302 210 l 2,94,95
 302 184 302 184 280.5 165 c 128,-1,96
 259 146 259 146 232 140 c 2,97,-1
 102 110 l 2,98,99
 88 107 88 107 82 90 c 1,100,-1
 82 60 l 2,101,102
 82 40 82 40 112 40 c 2,103,-1
 817 40 l 2,104,105
 832 40 832 40 832 20 c 256,62,63
732 130 m 2,106,-1
 732 360 l 1,107,-1
 687 360 l 2,108,109
 671 360 671 360 656.5 347.5 c 128,-1,110
 642 335 642 335 642 320 c 2,111,-1
 642 130 l 2,112,113
 642 110 642 110 677 110 c 2,114,-1
 697 110 l 2,115,116
 732 110 732 110 732 130 c 2,106,-1
482 140 m 1,117,-1
 482 240 l 2,118,119
 482 270 482 270 447 270 c 0,120,121
 434 270 434 270 425 263 c 128,-1,122
 416 256 416 256 412 240 c 1,123,-1
 412 140 l 2,124,125
 412 110 412 110 447 110 c 0,126,127
 475 110 475 110 482 140 c 1,117,-1
152 250 m 1,128,-1
 152 360 l 1,129,-1
 112 360 l 2,130,131
 82 360 82 360 82 330 c 2,132,-1
 82 250 l 2,133,134
 82 220 82 220 117 220 c 0,135,136
 145 220 145 220 152 250 c 1,128,-1
EndSplineSet
EndChar

StartChar: uni0B8E
Encoding: 2958 2958 122
Width: 405
GlyphClass: 2
Flags: W
LayerCount: 2
Fore
SplineSet
413 380 m 256,0,1
 413 360 413 360 393 360 c 2,2,-1
 343 360 l 1,3,-1
 343 60 l 2,4,5
 343 40 343 40 373 40 c 0,6,7
 393 40 393 40 393 20 c 256,8,9
 393 0 393 0 373 0 c 1,10,-1
 350 6 l 1,11,-1
 323 15 l 1,12,-1
 313 14 l 1,13,-1
 298 7 l 1,14,-1
 273 0 l 1,15,16
 253 0 253 0 253 20 c 256,17,18
 253 40 253 40 273 40 c 0,19,20
 303 40 303 40 303 60 c 2,21,-1
 303 360 l 1,22,-1
 123 360 l 2,23,24
 93 360 93 360 93 330 c 2,25,-1
 93 230 l 1,26,-1
 118 240 l 1,27,-1
 138 240 l 2,28,29
 163 240 163 240 183 217.5 c 128,-1,30
 203 195 203 195 203 170 c 2,31,-1
 203 70 l 2,32,33
 203 42 203 42 184.5 21 c 128,-1,34
 166 0 166 0 138 0 c 2,35,-1
 118 0 l 2,36,37
 95 0 95 0 72 21 c 0,38,39
 53 43 53 43 53 70 c 2,40,-1
 53 330 l 2,41,42
 53 359 53 359 73.5 379.5 c 128,-1,43
 94 400 94 400 123 400 c 2,44,-1
 398 400 l 2,45,46
 413 400 413 400 413 380 c 256,0,1
163 70 m 1,47,-1
 163 170 l 2,48,49
 163 200 163 200 128 200 c 0,50,51
 115 200 115 200 106 193 c 128,-1,52
 97 186 97 186 93 170 c 1,53,-1
 93 70 l 2,54,55
 93 40 93 40 128 40 c 0,56,57
 156 40 156 40 163 70 c 1,47,-1
EndSplineSet
EndChar

StartChar: u0B8F
Encoding: 2959 2959 123
Width: 399
GlyphClass: 2
Flags: W
LayerCount: 2
Fore
SplineSet
423 380 m 256,0,1
 423 360 423 360 403 360 c 2,2,-1
 343 360 l 1,3,-1
 343 50 l 2,4,5
 343 6 343 6 323 -10 c 2,6,-1
 163 -135 l 2,7,8
 157 -141 157 -141 146 -142 c 2,9,-1
 138 -140 l 2,10,11
 132 -135 132 -135 132 -126 c 0,12,13
 132 -114 132 -114 143 -105 c 2,14,-1
 283 5 l 2,15,16
 303 21 303 21 303 50 c 2,17,-1
 303 360 l 1,18,-1
 123 360 l 2,19,20
 93 360 93 360 93 330 c 2,21,-1
 93 230 l 1,22,23
 101 240 101 240 123 240 c 2,24,-1
 133 240 l 2,25,26
 159 240 159 240 181 218 c 128,-1,27
 203 196 203 196 203 170 c 2,28,-1
 203 70 l 2,29,30
 203 43 203 43 181.5 21.5 c 128,-1,31
 160 0 160 0 133 0 c 2,32,-1
 123 0 l 2,33,34
 93 0 93 0 73 20 c 128,-1,35
 53 40 53 40 53 70 c 2,36,-1
 53 330 l 2,37,38
 53 359 53 359 73.5 379.5 c 128,-1,39
 94 400 94 400 123 400 c 2,40,-1
 408 400 l 2,41,42
 423 400 423 400 423 380 c 256,0,1
163 70 m 1,43,-1
 163 170 l 2,44,45
 163 200 163 200 128 200 c 0,46,47
 115 200 115 200 106 193 c 128,-1,48
 97 186 97 186 93 170 c 1,49,-1
 93 70 l 2,50,51
 93 40 93 40 128 40 c 0,52,53
 156 40 156 40 163 70 c 1,43,-1
EndSplineSet
EndChar

StartChar: u0B90
Encoding: 2960 2960 124
Width: 494
GlyphClass: 2
Flags: W
LayerCount: 2
Fore
SplineSet
442 -230 m 2,0,1
 442 -259 442 -259 419 -279.5 c 128,-1,2
 396 -300 396 -300 367 -300 c 2,3,-1
 307 -300 l 2,4,5
 263 -300 263 -300 242 -275 c 1,6,7
 223 -300 223 -300 187 -300 c 2,8,-1
 117 -300 l 2,9,10
 89 -300 89 -300 65.5 -278.5 c 128,-1,11
 42 -257 42 -257 42 -230 c 2,12,-1
 42 -40 l 2,13,14
 42 -11 42 -11 62.5 9.5 c 128,-1,15
 83 30 83 30 112 30 c 2,16,-1
 347 30 l 2,17,18
 369 30 369 30 385.5 49 c 128,-1,19
 402 68 402 68 402 90 c 2,20,-1
 402 330 l 2,21,22
 402 360 402 360 372 360 c 2,23,-1
 332 360 l 2,24,25
 302 360 302 360 302 330 c 2,26,-1
 302 130 l 2,27,28
 302 110 302 110 332 110 c 0,29,30
 352 110 352 110 352 90 c 0,31,32
 352 75 352 75 337 70 c 1,33,-1
 327 71 l 1,34,-1
 309 77 l 1,35,-1
 282 85 l 1,36,-1
 271 84 l 1,37,-1
 254 77 l 1,38,-1
 227 70 l 2,39,40
 212 70 212 70 212 90 c 256,41,42
 212 110 212 110 232 110 c 0,43,44
 262 110 262 110 262 130 c 2,45,-1
 262 330 l 2,46,47
 262 360 262 360 232 360 c 2,48,-1
 122 360 l 2,49,50
 82 360 82 360 82 330 c 2,51,-1
 82 305 l 1,52,53
 87 310 87 310 112 310 c 2,54,-1
 122 310 l 2,55,56
 148 310 148 310 170 288 c 128,-1,57
 192 266 192 266 192 240 c 2,58,-1
 192 140 l 2,59,60
 192 113 192 113 170.5 91.5 c 128,-1,61
 149 70 149 70 122 70 c 2,62,-1
 112 70 l 2,63,64
 82 70 82 70 62 90 c 128,-1,65
 42 110 42 110 42 140 c 2,66,-1
 42 330 l 2,67,68
 42 361 42 361 66.5 380.5 c 128,-1,69
 91 400 91 400 122 400 c 2,70,-1
 232 400 l 2,71,72
 259 400 259 400 282 370 c 1,73,74
 294 400 294 400 332 400 c 2,75,-1
 372 400 l 2,76,77
 398 400 398 400 420 378 c 128,-1,78
 442 356 442 356 442 330 c 2,79,-1
 442 90 l 2,80,81
 442 50 442 50 414.5 20 c 128,-1,82
 387 -10 387 -10 347 -10 c 2,83,-1
 112 -10 l 2,84,85
 82 -10 82 -10 82 -40 c 2,86,-1
 82 -230 l 2,87,88
 82 -260 82 -260 117 -260 c 2,89,-1
 187 -260 l 2,90,91
 222 -260 222 -260 222 -230 c 2,92,-1
 222 -60 l 2,93,94
 222 -35 222 -35 242 -35 c 256,95,96
 262 -35 262 -35 262 -60 c 2,97,-1
 262 -230 l 2,98,99
 262 -260 262 -260 307 -260 c 2,100,-1
 367 -260 l 2,101,102
 402 -260 402 -260 402 -230 c 2,103,-1
 402 -90 l 2,104,105
 402 -70 402 -70 372 -70 c 0,106,107
 352 -70 352 -70 352 -50 c 0,108,109
 352 -36 352 -36 367 -30 c 1,110,-1
 397 -30 l 2,111,112
 415 -30 415 -30 429 -47 c 1,113,-1
 437 -65 l 2,114,115
 440 -71 440 -71 442 -90 c 2,116,-1
 442 -230 l 2,0,1
152 140 m 1,117,-1
 152 240 l 2,118,119
 152 253 152 253 142 261.5 c 128,-1,120
 132 270 132 270 117 270 c 0,121,122
 93 270 93 270 82 240 c 1,123,-1
 82 140 l 2,124,125
 82 110 82 110 117 110 c 0,126,127
 145 110 145 110 152 140 c 1,117,-1
EndSplineSet
EndChar

StartChar: u0B92
Encoding: 2962 2962 125
Width: 484
GlyphClass: 2
Flags: W
LayerCount: 2
Fore
SplineSet
503 -70 m 0,0,1
 503 -84 503 -84 488 -90 c 1,2,3
 449 -90 449 -90 443 -125 c 1,4,-1
 443 -160 l 2,5,6
 443 -198 443 -198 414.5 -224 c 128,-1,7
 386 -250 386 -250 348 -250 c 2,8,-1
 128 -250 l 2,9,10
 100 -250 100 -250 76.5 -228.5 c 128,-1,11
 53 -207 53 -207 53 -180 c 2,12,-1
 53 -120 l 2,13,14
 53 -100 53 -100 73 -100 c 256,15,16
 93 -100 93 -100 93 -120 c 2,17,-1
 93 -180 l 2,18,19
 93 -210 93 -210 128 -210 c 2,20,-1
 348 -210 l 2,21,22
 368 -210 368 -210 385.5 -194.5 c 128,-1,23
 403 -179 403 -179 403 -160 c 2,24,-1
 403 -125 l 2,25,26
 403 -104 403 -104 418 -90 c 1,27,-1
 383 -90 l 2,28,29
 342 -90 342 -90 312.5 -60 c 128,-1,30
 283 -30 283 -30 283 15 c 2,31,-1
 283 170 l 2,32,33
 283 197 283 197 302 218.5 c 128,-1,34
 321 240 321 240 348 240 c 0,35,36
 368 240 368 240 368 220 c 256,37,38
 368 200 368 200 348 200 c 0,39,40
 323 200 323 200 323 170 c 2,41,-1
 323 70 l 2,42,43
 323 40 323 40 358 40 c 0,44,45
 386 40 386 40 393 70 c 1,46,-1
 393 330 l 2,47,48
 393 360 393 360 363 360 c 2,49,-1
 123 360 l 2,50,51
 93 360 93 360 93 330 c 2,52,-1
 93 225 l 1,53,54
 114 240 114 240 128 240 c 0,55,56
 160 240 160 240 181.5 219.5 c 128,-1,57
 203 199 203 199 203 170 c 2,58,-1
 203 70 l 2,59,60
 203 41 203 41 182 20.5 c 128,-1,61
 161 0 161 0 128 0 c 0,62,63
 96 0 96 0 74.5 20.5 c 128,-1,64
 53 41 53 41 53 70 c 2,65,-1
 53 330 l 2,66,67
 53 359 53 359 73.5 379.5 c 128,-1,68
 94 400 94 400 123 400 c 2,69,-1
 363 400 l 2,70,71
 389 400 389 400 411 378 c 128,-1,72
 433 356 433 356 433 330 c 2,73,-1
 433 70 l 2,74,75
 433 43 433 43 411.5 21.5 c 128,-1,76
 390 0 390 0 363 0 c 2,77,-1
 353 0 l 2,78,79
 344 0 344 0 323 15 c 1,80,81
 323 -9 323 -9 341 -29.5 c 128,-1,82
 359 -50 359 -50 383 -50 c 2,83,-1
 488 -50 l 2,84,85
 503 -50 503 -50 503 -70 c 0,0,1
163 70 m 1,86,-1
 163 170 l 2,87,88
 163 200 163 200 128 200 c 0,89,90
 115 200 115 200 106 193 c 128,-1,91
 97 186 97 186 93 170 c 1,92,-1
 93 70 l 2,93,94
 93 40 93 40 128 40 c 0,95,96
 156 40 156 40 163 70 c 1,86,-1
EndSplineSet
EndChar

StartChar: u0B93
Encoding: 2963 2963 126
Width: 484
GlyphClass: 2
Flags: W
LayerCount: 2
Fore
SplineSet
503 -70 m 256,0,1
 503 -90 503 -90 483 -90 c 2,2,-1
 463 -90 l 2,3,4
 443 -90 443 -90 443 -110 c 2,5,-1
 443 -160 l 2,6,7
 443 -198 443 -198 414.5 -224 c 128,-1,8
 386 -250 386 -250 348 -250 c 2,9,-1
 128 -250 l 2,10,11
 102 -250 102 -250 79 -233 c 0,12,13
 53 -215 53 -215 53 -190 c 2,14,-1
 53 -170 l 2,15,16
 53 -142 53 -142 76 -126 c 128,-1,17
 99 -110 99 -110 128 -110 c 2,18,-1
 183 -110 l 2,19,20
 212 -110 212 -110 232.5 -130.5 c 128,-1,21
 253 -151 253 -151 253 -180 c 2,22,-1
 253 -210 l 1,23,-1
 348 -210 l 2,24,25
 368 -210 368 -210 385.5 -194.5 c 128,-1,26
 403 -179 403 -179 403 -160 c 2,27,-1
 403 -110 l 2,28,29
 403 -101 403 -101 413 -90 c 1,30,-1
 373 -90 l 2,31,32
 342 -90 342 -90 309 -60 c 0,33,34
 283 -31 283 -31 283 10 c 2,35,-1
 283 180 l 2,36,37
 283 203 283 203 296.5 221.5 c 128,-1,38
 310 240 310 240 333 240 c 2,39,-1
 348 240 l 2,40,41
 368 240 368 240 368 220 c 256,42,43
 368 200 368 200 348 200 c 0,44,45
 323 200 323 200 323 180 c 2,46,-1
 323 70 l 2,47,48
 323 40 323 40 358 40 c 0,49,50
 386 40 386 40 393 70 c 1,51,-1
 393 330 l 2,52,53
 393 360 393 360 363 360 c 2,54,-1
 123 360 l 2,55,56
 93 360 93 360 93 330 c 2,57,-1
 93 230 l 1,58,59
 106 240 106 240 128 240 c 0,60,61
 160 240 160 240 181.5 219.5 c 128,-1,62
 203 199 203 199 203 170 c 2,63,-1
 203 70 l 2,64,65
 203 39 203 39 182.5 19.5 c 128,-1,66
 162 0 162 0 128 0 c 0,67,68
 93 0 93 0 73 19 c 128,-1,69
 53 38 53 38 53 70 c 2,70,-1
 53 330 l 2,71,72
 53 359 53 359 73.5 379.5 c 128,-1,73
 94 400 94 400 123 400 c 2,74,-1
 363 400 l 2,75,76
 389 400 389 400 411 378 c 128,-1,77
 433 356 433 356 433 330 c 2,78,-1
 433 70 l 2,79,80
 433 42 433 42 409.5 21 c 128,-1,81
 386 0 386 0 358 0 c 0,82,83
 337 0 337 0 323 10 c 1,84,85
 323 -13 323 -13 336.5 -31.5 c 128,-1,86
 350 -50 350 -50 373 -50 c 2,87,-1
 488 -50 l 2,88,89
 503 -50 503 -50 503 -70 c 256,0,1
163 70 m 1,90,-1
 163 170 l 2,91,92
 163 200 163 200 128 200 c 0,93,94
 115 200 115 200 106 193 c 128,-1,95
 97 186 97 186 93 170 c 1,96,-1
 93 70 l 2,97,98
 93 40 93 40 128 40 c 0,99,100
 156 40 156 40 163 70 c 1,90,-1
213 -210 m 1,101,-1
 213 -180 l 2,102,103
 213 -150 213 -150 183 -150 c 2,104,-1
 128 -150 l 2,105,106
 114 -150 114 -150 103 -158 c 1,107,-1
 93 -180 l 1,108,109
 93 -210 93 -210 128 -210 c 2,110,-1
 213 -210 l 1,101,-1
EndSplineSet
EndChar

StartChar: u0B94
Encoding: 2964 2964 127
Width: 1025
GlyphClass: 2
Flags: W
LayerCount: 2
Fore
SplineSet
1001 380 m 256,0,1
 1001 360 1001 360 976 360 c 2,2,-1
 926 360 l 1,3,-1
 926 60 l 2,4,5
 926 40 926 40 956 40 c 0,6,7
 976 40 976 40 976 20 c 256,8,9
 976 0 976 0 956 0 c 1,10,-1
 933 6 l 1,11,-1
 906 15 l 1,12,-1
 896 14 l 1,13,-1
 881 7 l 1,14,-1
 856 0 l 1,15,16
 836 0 836 0 836 20 c 256,17,18
 836 40 836 40 856 40 c 0,19,20
 886 40 886 40 886 60 c 2,21,-1
 886 360 l 1,22,-1
 796 360 l 2,23,24
 766 360 766 360 766 330 c 2,25,-1
 766 60 l 2,26,27
 766 40 766 40 796 40 c 0,28,29
 816 40 816 40 816 20 c 256,30,31
 816 0 816 0 796 0 c 1,32,-1
 773 6 l 1,33,-1
 746 15 l 1,34,-1
 736 14 l 1,35,-1
 721 7 l 1,36,-1
 696 0 l 1,37,38
 676 0 676 0 676 20 c 256,39,40
 676 40 676 40 696 40 c 0,41,42
 726 40 726 40 726 60 c 2,43,-1
 726 325 l 2,44,45
 726 333 726 333 714 348 c 0,46,47
 703 357 703 357 686 360 c 2,48,-1
 571 360 l 2,49,50
 541 360 541 360 541 330 c 2,51,-1
 541 230 l 1,52,53
 551 240 551 240 566 240 c 2,54,-1
 586 240 l 2,55,56
 611 240 611 240 631 217.5 c 128,-1,57
 651 195 651 195 651 170 c 2,58,-1
 651 70 l 2,59,60
 651 43 651 43 629.5 21.5 c 128,-1,61
 608 0 608 0 581 0 c 2,62,-1
 571 0 l 2,63,64
 541 0 541 0 521 20 c 128,-1,65
 501 40 501 40 501 70 c 2,66,-1
 501 330 l 2,67,68
 501 359 501 359 521.5 379.5 c 128,-1,69
 542 400 542 400 571 400 c 2,70,-1
 686 400 l 2,71,72
 728 400 728 400 746 370 c 1,73,74
 763 400 763 400 796 400 c 2,75,-1
 976 400 l 2,76,77
 1001 400 1001 400 1001 380 c 256,0,1
503 -70 m 0,78,79
 503 -84 503 -84 488 -90 c 1,80,81
 449 -90 449 -90 443 -125 c 1,82,-1
 443 -160 l 2,83,84
 443 -198 443 -198 414.5 -224 c 128,-1,85
 386 -250 386 -250 348 -250 c 2,86,-1
 128 -250 l 2,87,88
 100 -250 100 -250 76.5 -228.5 c 128,-1,89
 53 -207 53 -207 53 -180 c 2,90,-1
 53 -120 l 2,91,92
 53 -100 53 -100 73 -100 c 256,93,94
 93 -100 93 -100 93 -120 c 2,95,-1
 93 -180 l 2,96,97
 93 -210 93 -210 128 -210 c 2,98,-1
 348 -210 l 2,99,100
 368 -210 368 -210 385.5 -194.5 c 128,-1,101
 403 -179 403 -179 403 -160 c 2,102,-1
 403 -125 l 2,103,104
 403 -104 403 -104 418 -90 c 1,105,-1
 383 -90 l 2,106,107
 342 -90 342 -90 312.5 -60 c 128,-1,108
 283 -30 283 -30 283 15 c 2,109,-1
 283 170 l 2,110,111
 283 197 283 197 302 218.5 c 128,-1,112
 321 240 321 240 348 240 c 0,113,114
 368 240 368 240 368 220 c 256,115,116
 368 200 368 200 348 200 c 0,117,118
 323 200 323 200 323 170 c 2,119,-1
 323 70 l 2,120,121
 323 40 323 40 358 40 c 0,122,123
 386 40 386 40 393 70 c 1,124,-1
 393 330 l 2,125,126
 393 360 393 360 363 360 c 2,127,-1
 123 360 l 2,128,129
 93 360 93 360 93 330 c 2,130,-1
 93 225 l 1,131,132
 114 240 114 240 128 240 c 0,133,134
 160 240 160 240 181.5 219.5 c 128,-1,135
 203 199 203 199 203 170 c 2,136,-1
 203 70 l 2,137,138
 203 41 203 41 182 20.5 c 128,-1,139
 161 0 161 0 128 0 c 0,140,141
 96 0 96 0 74.5 20.5 c 128,-1,142
 53 41 53 41 53 70 c 2,143,-1
 53 330 l 2,144,145
 53 359 53 359 73.5 379.5 c 128,-1,146
 94 400 94 400 123 400 c 2,147,-1
 363 400 l 2,148,149
 389 400 389 400 411 378 c 128,-1,150
 433 356 433 356 433 330 c 2,151,-1
 433 70 l 2,152,153
 433 43 433 43 411.5 21.5 c 128,-1,154
 390 0 390 0 363 0 c 2,155,-1
 353 0 l 2,156,157
 344 0 344 0 323 15 c 1,158,159
 323 -9 323 -9 341 -29.5 c 128,-1,160
 359 -50 359 -50 383 -50 c 2,161,-1
 488 -50 l 2,162,163
 503 -50 503 -50 503 -70 c 0,78,79
611 70 m 1,164,-1
 611 170 l 2,165,166
 611 200 611 200 576 200 c 0,167,168
 563 200 563 200 554 193 c 128,-1,169
 545 186 545 186 541 170 c 1,170,-1
 541 70 l 2,171,172
 541 40 541 40 576 40 c 0,173,174
 604 40 604 40 611 70 c 1,164,-1
163 70 m 1,175,-1
 163 170 l 2,176,177
 163 200 163 200 128 200 c 0,178,179
 115 200 115 200 106 193 c 128,-1,180
 97 186 97 186 93 170 c 1,181,-1
 93 70 l 2,182,183
 93 40 93 40 128 40 c 0,184,185
 156 40 156 40 163 70 c 1,175,-1
EndSplineSet
EndChar

StartChar: u0B95
Encoding: 2965 2965 128
Width: 378
GlyphClass: 2
Flags: W
LayerCount: 2
Fore
SplineSet
340 60 m 2,0,1
 340 38 340 38 321 19 c 128,-1,2
 302 0 302 0 280 0 c 2,3,-1
 260 0 l 2,4,5
 235 0 235 0 235 20 c 256,6,7
 235 40 235 40 260 40 c 2,8,-1
 280 40 l 2,9,10
 300 40 300 40 300 60 c 2,11,-1
 300 210 l 2,12,13
 300 240 300 240 270 240 c 2,14,-1
 220 240 l 1,15,-1
 220 70 l 2,16,17
 220 41 220 41 199 20.5 c 128,-1,18
 178 0 178 0 145 0 c 2,19,-1
 115 0 l 2,20,21
 83 0 83 0 61.5 20.5 c 128,-1,22
 40 41 40 41 40 70 c 2,23,-1
 40 210 l 2,24,25
 40 266 40 266 90 280 c 1,26,-1
 90 340 l 2,27,28
 90 366 90 366 109 383 c 128,-1,29
 128 400 128 400 155 400 c 2,30,-1
 295 400 l 2,31,32
 315 400 315 400 315 380 c 256,33,34
 315 360 315 360 295 360 c 2,35,-1
 220 360 l 1,36,-1
 220 280 l 1,37,-1
 270 280 l 2,38,39
 296 280 296 280 318 258 c 128,-1,40
 340 236 340 236 340 210 c 2,41,-1
 340 60 l 2,0,1
180 280 m 1,42,-1
 180 360 l 1,43,-1
 155 360 l 2,44,45
 130 360 130 360 130 340 c 2,46,-1
 130 280 l 1,47,-1
 180 280 l 1,42,-1
180 70 m 2,48,-1
 180 240 l 1,49,-1
 115 240 l 2,50,51
 80 240 80 240 80 210 c 2,52,-1
 80 70 l 2,53,54
 80 40 80 40 115 40 c 2,55,-1
 145 40 l 2,56,57
 180 40 180 40 180 70 c 2,48,-1
EndSplineSet
EndChar

StartChar: u0B99
Encoding: 2969 2969 129
Width: 562
GlyphClass: 2
Flags: W
LayerCount: 2
Fore
SplineSet
552 20 m 256,0,1
 552 0 552 0 527 0 c 2,2,-1
 212 0 l 2,3,4
 192 0 192 0 192 20 c 256,5,6
 192 40 192 40 212 40 c 2,7,-1
 277 40 l 2,8,9
 295 40 295 40 308.5 52 c 128,-1,10
 322 64 322 64 322 80 c 2,11,-1
 322 200 l 2,12,13
 322 240 322 240 292 240 c 2,14,-1
 262 240 l 2,15,16
 232 240 232 240 232 215 c 2,17,-1
 232 150 l 2,18,19
 232 125 232 125 212 125 c 256,20,21
 192 125 192 125 192 150 c 2,22,-1
 192 360 l 1,23,-1
 132 360 l 2,24,25
 102 360 102 360 102 330 c 2,26,-1
 102 60 l 2,27,28
 102 40 102 40 132 40 c 0,29,30
 152 40 152 40 152 20 c 256,31,32
 152 0 152 0 132 0 c 1,33,-1
 109 6 l 1,34,-1
 82 15 l 1,35,-1
 72 14 l 1,36,-1
 57 7 l 1,37,-1
 32 0 l 1,38,39
 12 0 12 0 12 20 c 256,40,41
 12 40 12 40 32 40 c 0,42,43
 62 40 62 40 62 60 c 2,44,-1
 62 330 l 2,45,46
 62 359 62 359 82.5 379.5 c 128,-1,47
 103 400 103 400 132 400 c 2,48,-1
 282 400 l 2,49,50
 302 400 302 400 302 380 c 256,51,52
 302 360 302 360 282 360 c 2,53,-1
 232 360 l 1,54,-1
 232 270 l 1,55,56
 245 280 245 280 262 280 c 2,57,-1
 292 280 l 2,58,59
 316 280 316 280 340 256 c 1,60,61
 362 228 362 228 362 200 c 2,62,-1
 362 80 l 2,63,64
 362 53 362 53 342 40 c 1,65,-1
 437 40 l 2,66,67
 462 40 462 40 462 60 c 2,68,-1
 462 340 l 2,69,70
 462 360 462 360 432 360 c 0,71,72
 412 360 412 360 412 380 c 256,73,74
 412 400 412 400 432 400 c 0,75,76
 445 400 445 400 456 392 c 1,77,-1
 482 385 l 1,78,-1
 505 391 l 1,79,-1
 532 400 l 1,80,81
 552 400 552 400 552 380 c 256,82,83
 552 360 552 360 532 360 c 0,84,85
 502 360 502 360 502 340 c 2,86,-1
 502 60 l 2,87,88
 502 40 502 40 532 40 c 0,89,90
 552 40 552 40 552 20 c 256,0,1
EndSplineSet
EndChar

StartChar: u0B9A
Encoding: 2970 2970 130
Width: 309
GlyphClass: 2
Flags: W
LayerCount: 2
Fore
SplineSet
314 380 m 256,0,1
 314 360 314 360 289 360 c 2,2,-1
 219 360 l 1,3,-1
 219 280 l 1,4,-1
 284 280 l 2,5,6
 304 280 304 280 304 260 c 256,7,8
 304 240 304 240 284 240 c 2,9,-1
 219 240 l 1,10,-1
 219 70 l 2,11,12
 219 43 219 43 197.5 21.5 c 128,-1,13
 176 0 176 0 149 0 c 2,14,-1
 109 0 l 2,15,16
 79 0 79 0 59 20 c 128,-1,17
 39 40 39 40 39 70 c 2,18,-1
 39 210 l 2,19,20
 39 261 39 261 89 280 c 1,21,-1
 89 340 l 2,22,23
 89 366 89 366 108 383 c 128,-1,24
 127 400 127 400 154 400 c 2,25,-1
 289 400 l 2,26,27
 314 400 314 400 314 380 c 256,0,1
179 280 m 1,28,-1
 179 360 l 1,29,-1
 154 360 l 2,30,31
 129 360 129 360 129 340 c 2,32,-1
 129 280 l 1,33,-1
 179 280 l 1,28,-1
179 70 m 2,34,-1
 179 240 l 1,35,-1
 114 240 l 2,36,37
 79 240 79 240 79 210 c 2,38,-1
 79 70 l 2,39,40
 79 40 79 40 114 40 c 2,41,-1
 144 40 l 2,42,43
 179 40 179 40 179 70 c 2,34,-1
EndSplineSet
EndChar

StartChar: u0B9C
Encoding: 2972 2972 131
Width: 493
GlyphClass: 2
Flags: W
LayerCount: 2
Fore
SplineSet
442 -230 m 2,0,1
 442 -259 442 -259 419 -279.5 c 128,-1,2
 396 -300 396 -300 367 -300 c 0,3,4
 339 -300 339 -300 315.5 -278.5 c 128,-1,5
 292 -257 292 -257 292 -230 c 2,6,-1
 292 -145 l 2,7,8
 292 -120 292 -120 312 -120 c 256,9,10
 332 -120 332 -120 332 -145 c 2,11,-1
 332 -230 l 2,12,13
 332 -260 332 -260 367 -260 c 0,14,15
 380 -260 380 -260 389 -253 c 128,-1,16
 398 -246 398 -246 402 -230 c 1,17,-1
 402 -120 l 2,18,19
 402 -100 402 -100 382 -100 c 2,20,-1
 272 -100 l 2,21,22
 255 -100 255 -100 237 -130 c 1,23,-1
 187 -260 l 2,24,25
 172 -300 172 -300 137 -300 c 2,26,-1
 117 -300 l 2,27,28
 89 -300 89 -300 65.5 -278.5 c 128,-1,29
 42 -257 42 -257 42 -230 c 2,30,-1
 42 -40 l 2,31,32
 42 -11 42 -11 62.5 9.5 c 128,-1,33
 83 30 83 30 112 30 c 2,34,-1
 337 30 l 2,35,36
 361 30 361 30 381.5 48 c 128,-1,37
 402 66 402 66 402 90 c 2,38,-1
 402 330 l 2,39,40
 402 360 402 360 372 360 c 2,41,-1
 332 360 l 2,42,43
 302 360 302 360 302 330 c 2,44,-1
 302 130 l 2,45,46
 302 110 302 110 332 110 c 0,47,48
 352 110 352 110 352 90 c 256,49,50
 352 70 352 70 332 70 c 0,51,52
 324 70 324 70 307.5 79 c 128,-1,53
 291 88 291 88 282 90 c 0,54,55
 280 90 280 90 259 81 c 2,56,-1
 243 74 l 1,57,-1
 232 70 l 1,58,59
 212 70 212 70 212 90 c 256,60,61
 212 110 212 110 232 110 c 0,62,63
 262 110 262 110 262 130 c 2,64,-1
 262 330 l 2,65,66
 262 360 262 360 222 360 c 2,67,-1
 112 360 l 2,68,69
 82 360 82 360 82 330 c 2,70,-1
 82 300 l 1,71,72
 89 310 89 310 117 310 c 0,73,74
 149 310 149 310 170.5 289.5 c 128,-1,75
 192 269 192 269 192 240 c 2,76,-1
 192 140 l 2,77,78
 192 111 192 111 171 90.5 c 128,-1,79
 150 70 150 70 117 70 c 0,80,81
 85 70 85 70 63.5 90.5 c 128,-1,82
 42 111 42 111 42 140 c 2,83,-1
 42 330 l 2,84,85
 42 359 42 359 62.5 379.5 c 128,-1,86
 83 400 83 400 112 400 c 2,87,-1
 222 400 l 2,88,89
 255 400 255 400 282 370 c 1,90,91
 306 400 306 400 332 400 c 2,92,-1
 372 400 l 2,93,94
 398 400 398 400 420 378 c 128,-1,95
 442 356 442 356 442 330 c 2,96,-1
 442 90 l 2,97,98
 442 49 442 49 412 19.5 c 128,-1,99
 382 -10 382 -10 337 -10 c 2,100,-1
 112 -10 l 2,101,102
 82 -10 82 -10 82 -40 c 2,103,-1
 82 -230 l 2,104,105
 82 -260 82 -260 117 -260 c 2,106,-1
 137 -260 l 2,107,108
 145 -260 145 -260 162 -230 c 1,109,-1
 202 -120 l 2,110,111
 224 -60 224 -60 272 -60 c 2,112,-1
 382 -60 l 2,113,114
 407 -60 407 -60 424.5 -77.5 c 128,-1,115
 442 -95 442 -95 442 -120 c 2,116,-1
 442 -230 l 2,0,1
152 140 m 1,117,-1
 152 240 l 2,118,119
 152 270 152 270 117 270 c 0,120,121
 104 270 104 270 95 263 c 128,-1,122
 86 256 86 256 82 240 c 1,123,-1
 82 140 l 2,124,125
 82 110 82 110 117 110 c 0,126,127
 145 110 145 110 152 140 c 1,117,-1
EndSplineSet
EndChar

StartChar: u0B9E
Encoding: 2974 2974 132
Width: 646
GlyphClass: 2
Flags: W
LayerCount: 2
Fore
SplineSet
605 -20 m 2,0,1
 605 -70 605 -70 570 -105 c 128,-1,2
 535 -140 535 -140 485 -140 c 2,3,-1
 185 -140 l 2,4,5
 132 -140 132 -140 93.5 -106 c 128,-1,6
 55 -72 55 -72 55 -20 c 2,7,-1
 55 340 l 2,8,9
 55 365 55 365 72.5 382.5 c 128,-1,10
 90 400 90 400 115 400 c 2,11,-1
 135 400 l 2,12,13
 155 400 155 400 155 380 c 256,14,15
 155 360 155 360 135 360 c 2,16,-1
 115 360 l 2,17,18
 95 360 95 360 95 340 c 2,19,-1
 95 -20 l 2,20,21
 95 -55 95 -55 122.5 -77.5 c 128,-1,22
 150 -100 150 -100 185 -100 c 2,23,-1
 485 -100 l 2,24,25
 516 -100 516 -100 540.5 -75.5 c 128,-1,26
 565 -51 565 -51 565 -20 c 2,27,-1
 565 210 l 2,28,29
 565 240 565 240 535 240 c 2,30,-1
 505 240 l 2,31,32
 475 240 475 240 475 210 c 2,33,-1
 475 60 l 2,34,35
 475 40 475 40 505 40 c 0,36,37
 525 40 525 40 525 20 c 256,38,39
 525 0 525 0 505 0 c 1,40,-1
 482 6 l 1,41,-1
 455 15 l 2,42,43
 445 15 445 15 432 7 c 2,44,-1
 410 0 l 1,45,46
 385 0 385 0 385 20 c 0,47,48
 385 30 385 30 410 40 c 1,49,50
 435 43 435 43 435 60 c 2,51,-1
 435 360 l 1,52,-1
 255 360 l 2,53,54
 225 360 225 360 225 330 c 2,55,-1
 225 230 l 1,56,57
 233 240 233 240 255 240 c 2,58,-1
 265 240 l 2,59,60
 291 240 291 240 313 218 c 128,-1,61
 335 196 335 196 335 170 c 2,62,-1
 335 70 l 2,63,64
 335 43 335 43 313.5 21.5 c 128,-1,65
 292 0 292 0 265 0 c 2,66,-1
 255 0 l 2,67,68
 225 0 225 0 205 20 c 128,-1,69
 185 40 185 40 185 70 c 2,70,-1
 185 330 l 2,71,72
 185 359 185 359 205.5 379.5 c 128,-1,73
 226 400 226 400 255 400 c 2,74,-1
 580 400 l 2,75,76
 595 400 595 400 595 380 c 256,77,78
 595 360 595 360 575 360 c 2,79,-1
 475 360 l 1,80,-1
 475 270 l 1,81,82
 480 280 480 280 500 280 c 2,83,-1
 540 280 l 2,84,85
 565 280 565 280 585 257.5 c 128,-1,86
 605 235 605 235 605 210 c 2,87,-1
 605 -20 l 2,0,1
295 70 m 1,88,-1
 295 170 l 2,89,90
 295 200 295 200 260 200 c 0,91,92
 247 200 247 200 238 193 c 128,-1,93
 229 186 229 186 225 170 c 1,94,-1
 225 70 l 2,95,96
 225 40 225 40 260 40 c 0,97,98
 288 40 288 40 295 70 c 1,88,-1
EndSplineSet
EndChar

StartChar: u0B9F
Encoding: 2975 2975 133
Width: 650
GlyphClass: 2
Flags: W
LayerCount: 2
Fore
SplineSet
643 20 m 256,0,1
 643 0 643 0 623 0 c 2,2,-1
 133 0 l 2,3,4
 101 0 101 0 77 19.5 c 128,-1,5
 53 39 53 39 53 70 c 2,6,-1
 53 340 l 2,7,8
 53 360 53 360 23 360 c 0,9,10
 3 360 3 360 3 380 c 0,11,12
 3 395 3 395 18 400 c 1,13,-1
 29 399 l 1,14,-1
 46 392 l 1,15,-1
 73 385 l 1,16,-1
 83 386 l 1,17,-1
 101 392 l 1,18,-1
 128 400 l 1,19,20
 143 400 143 400 143 380 c 256,21,22
 143 360 143 360 123 360 c 0,23,24
 93 360 93 360 93 340 c 2,25,-1
 93 80 l 2,26,27
 93 65 93 65 106 52.5 c 128,-1,28
 119 40 119 40 138 40 c 2,29,-1
 628 40 l 2,30,31
 643 40 643 40 643 20 c 256,0,1
EndSplineSet
EndChar

StartChar: u0BA3
Encoding: 2979 2979 134
Width: 865
GlyphClass: 2
Flags: W
LayerCount: 2
Fore
SplineSet
903 380 m 256,0,1
 903 360 903 360 883 360 c 2,2,-1
 803 360 l 1,3,-1
 803 60 l 2,4,5
 803 40 803 40 833 40 c 0,6,7
 853 40 853 40 853 20 c 256,8,9
 853 0 853 0 833 0 c 1,10,-1
 810 6 l 1,11,-1
 783 15 l 1,12,-1
 773 14 l 1,13,-1
 758 7 l 1,14,-1
 733 0 l 1,15,16
 713 0 713 0 713 20 c 256,17,18
 713 40 713 40 733 40 c 0,19,20
 763 40 763 40 763 60 c 2,21,-1
 763 360 l 1,22,-1
 713 360 l 2,23,24
 641 360 641 360 618 340 c 1,25,26
 657 307 657 307 663 270 c 1,27,-1
 663 70 l 2,28,29
 663 43 663 43 641.5 21.5 c 128,-1,30
 620 0 620 0 593 0 c 2,31,-1
 568 0 l 2,32,33
 536 0 536 0 514.5 20.5 c 128,-1,34
 493 41 493 41 493 70 c 2,35,-1
 493 270 l 2,36,37
 493 298 493 298 538 340 c 1,38,39
 504 360 504 360 458 360 c 256,40,41
 412 360 412 360 378 340 c 1,42,43
 423 301 423 301 423 270 c 2,44,-1
 423 70 l 2,45,46
 423 41 423 41 402 20.5 c 128,-1,47
 381 0 381 0 348 0 c 2,48,-1
 328 0 l 2,49,50
 296 0 296 0 274.5 20.5 c 128,-1,51
 253 41 253 41 253 70 c 2,52,-1
 253 270 l 2,53,54
 253 298 253 298 298 340 c 1,55,56
 261 360 261 360 223 360 c 2,57,-1
 143 360 l 2,58,59
 122 360 122 360 107.5 345.5 c 128,-1,60
 93 331 93 331 93 310 c 2,61,-1
 93 230 l 1,62,-1
 123 240 l 1,63,-1
 133 240 l 2,64,65
 159 240 159 240 181 218 c 128,-1,66
 203 196 203 196 203 170 c 2,67,-1
 203 70 l 2,68,69
 203 43 203 43 181.5 21.5 c 128,-1,70
 160 0 160 0 133 0 c 2,71,-1
 123 0 l 2,72,73
 93 0 93 0 73 20 c 128,-1,74
 53 40 53 40 53 70 c 2,75,-1
 53 310 l 2,76,77
 53 349 53 349 81 374.5 c 128,-1,78
 109 400 109 400 148 400 c 2,79,-1
 218 400 l 2,80,81
 286 400 286 400 343 370 c 1,82,83
 388 400 388 400 458 400 c 0,84,85
 533 400 533 400 578 370 c 1,86,87
 616 400 616 400 718 400 c 2,88,-1
 888 400 l 2,89,90
 903 400 903 400 903 380 c 256,0,1
623 70 m 2,91,-1
 623 260 l 2,92,93
 623 288 623 288 578 330 c 1,94,95
 533 291 533 291 533 260 c 2,96,-1
 533 70 l 2,97,98
 533 40 533 40 568 40 c 2,99,-1
 593 40 l 2,100,101
 623 40 623 40 623 70 c 2,91,-1
383 70 m 2,102,-1
 383 260 l 2,103,104
 383 288 383 288 338 330 c 1,105,106
 293 291 293 291 293 260 c 2,107,-1
 293 70 l 2,108,109
 293 40 293 40 328 40 c 2,110,-1
 348 40 l 2,111,112
 383 40 383 40 383 70 c 2,102,-1
163 70 m 1,113,-1
 163 170 l 2,114,115
 163 200 163 200 128 200 c 0,116,117
 115 200 115 200 106 193 c 128,-1,118
 97 186 97 186 93 170 c 1,119,-1
 93 70 l 2,120,121
 93 40 93 40 128 40 c 0,122,123
 156 40 156 40 163 70 c 1,113,-1
EndSplineSet
EndChar

StartChar: u0BA4
Encoding: 2980 2980 135
Width: 384
GlyphClass: 2
Flags: W
LayerCount: 2
Fore
SplineSet
343 20 m 2,0,1
 343 -25 343 -25 313 -57.5 c 128,-1,2
 283 -90 283 -90 238 -90 c 2,3,-1
 118 -90 l 2,4,5
 83 -90 83 -90 83 -120 c 2,6,-1
 83 -180 l 2,7,8
 83 -200 83 -200 63 -200 c 256,9,10
 43 -200 43 -200 43 -180 c 2,11,-1
 43 -120 l 2,12,13
 43 -91 43 -91 64 -70.5 c 128,-1,14
 85 -50 85 -50 118 -50 c 2,15,-1
 238 -50 l 2,16,17
 263 -50 263 -50 283 -27.5 c 128,-1,18
 303 -5 303 -5 303 20 c 2,19,-1
 303 210 l 2,20,21
 303 240 303 240 273 240 c 2,22,-1
 223 240 l 1,23,-1
 223 70 l 2,24,25
 223 42 223 42 204.5 21 c 128,-1,26
 186 0 186 0 158 0 c 2,27,-1
 108 0 l 2,28,29
 85 0 85 0 62 21 c 0,30,31
 43 43 43 43 43 70 c 2,32,-1
 43 220 l 2,33,34
 43 273 43 273 83 280 c 1,35,-1
 83 340 l 2,36,37
 83 366 83 366 102 383 c 128,-1,38
 121 400 121 400 148 400 c 2,39,-1
 283 400 l 2,40,41
 303 400 303 400 303 380 c 256,42,43
 303 360 303 360 283 360 c 2,44,-1
 223 360 l 1,45,-1
 223 280 l 1,46,-1
 273 280 l 2,47,48
 299 280 299 280 321 258 c 128,-1,49
 343 236 343 236 343 210 c 2,50,-1
 343 20 l 2,0,1
183 280 m 1,51,-1
 183 360 l 1,52,-1
 148 360 l 2,53,54
 123 360 123 360 123 340 c 2,55,-1
 123 280 l 1,56,-1
 183 280 l 1,51,-1
183 70 m 2,57,-1
 183 240 l 1,58,-1
 108 240 l 2,59,60
 83 240 83 240 83 220 c 2,61,-1
 83 70 l 2,62,63
 83 40 83 40 118 40 c 2,64,-1
 148 40 l 2,65,66
 183 40 183 40 183 70 c 2,57,-1
EndSplineSet
EndChar

StartChar: u0BA8
Encoding: 2984 2984 136
Width: 422
GlyphClass: 2
Flags: W
LayerCount: 2
Fore
SplineSet
382 20 m 2,0,1
 382 -29 382 -29 342.5 -59.5 c 128,-1,2
 303 -90 303 -90 252 -90 c 2,3,-1
 152 -90 l 2,4,5
 122 -90 122 -90 122 -120 c 2,6,-1
 122 -180 l 2,7,8
 122 -205 122 -205 102 -205 c 256,9,10
 82 -205 82 -205 82 -180 c 2,11,-1
 82 -120 l 2,12,13
 82 -91 82 -91 103 -70.5 c 128,-1,14
 124 -50 124 -50 157 -50 c 2,15,-1
 257 -50 l 2,16,17
 287 -50 287 -50 314.5 -29.5 c 128,-1,18
 342 -9 342 -9 342 20 c 2,19,-1
 342 210 l 2,20,21
 342 240 342 240 312 240 c 2,22,-1
 282 240 l 2,23,24
 252 240 252 240 252 210 c 2,25,-1
 252 60 l 2,26,27
 252 40 252 40 282 40 c 0,28,29
 302 40 302 40 302 20 c 256,30,31
 302 0 302 0 282 0 c 1,32,-1
 259 6 l 1,33,-1
 232 15 l 1,34,-1
 222 14 l 1,35,-1
 207 7 l 1,36,-1
 182 0 l 1,37,38
 162 0 162 0 162 20 c 256,39,40
 162 40 162 40 182 40 c 0,41,42
 212 40 212 40 212 60 c 2,43,-1
 212 360 l 1,44,-1
 132 360 l 2,45,46
 102 360 102 360 102 330 c 2,47,-1
 102 60 l 2,48,49
 102 40 102 40 132 40 c 0,50,51
 152 40 152 40 152 20 c 256,52,53
 152 0 152 0 132 0 c 1,54,-1
 109 6 l 1,55,-1
 82 15 l 1,56,-1
 72 14 l 1,57,-1
 57 7 l 1,58,-1
 32 0 l 1,59,60
 12 0 12 0 12 20 c 256,61,62
 12 40 12 40 32 40 c 0,63,64
 62 40 62 40 62 60 c 2,65,-1
 62 330 l 2,66,67
 62 358 62 358 85.5 379 c 128,-1,68
 109 400 109 400 137 400 c 2,69,-1
 357 400 l 2,70,71
 372 400 372 400 372 380 c 256,72,73
 372 360 372 360 352 360 c 2,74,-1
 252 360 l 1,75,-1
 252 270 l 1,76,-1
 277 280 l 1,77,-1
 317 280 l 2,78,79
 342 280 342 280 362 257.5 c 128,-1,80
 382 235 382 235 382 210 c 2,81,-1
 382 20 l 2,0,1
EndSplineSet
EndChar

StartChar: u0BA9
Encoding: 2985 2985 137
Width: 625
GlyphClass: 2
Flags: W
LayerCount: 2
Fore
SplineSet
643 380 m 256,0,1
 643 360 643 360 623 360 c 2,2,-1
 563 360 l 1,3,-1
 563 60 l 2,4,5
 563 40 563 40 593 40 c 0,6,7
 613 40 613 40 613 20 c 256,8,9
 613 0 613 0 593 0 c 1,10,-1
 570 6 l 1,11,-1
 543 15 l 1,12,-1
 533 14 l 1,13,-1
 518 7 l 1,14,-1
 493 0 l 1,15,16
 473 0 473 0 473 20 c 256,17,18
 473 40 473 40 493 40 c 0,19,20
 523 40 523 40 523 60 c 2,21,-1
 523 360 l 1,22,-1
 453 360 l 2,23,24
 407 360 407 360 373 340 c 1,25,26
 423 299 423 299 423 245 c 2,27,-1
 423 70 l 2,28,29
 423 42 423 42 404.5 21 c 128,-1,30
 386 0 386 0 358 0 c 2,31,-1
 318 0 l 2,32,33
 295 0 295 0 272 21 c 0,34,35
 253 43 253 43 253 70 c 2,36,-1
 253 245 l 2,37,38
 253 296 253 296 298 340 c 1,39,40
 240 360 240 360 223 360 c 2,41,-1
 143 360 l 2,42,43
 122 360 122 360 107.5 345.5 c 128,-1,44
 93 331 93 331 93 310 c 2,45,-1
 93 230 l 1,46,47
 100 240 100 240 118 240 c 2,48,-1
 138 240 l 2,49,50
 163 240 163 240 183 217.5 c 128,-1,51
 203 195 203 195 203 170 c 2,52,-1
 203 70 l 2,53,54
 203 42 203 42 184.5 21 c 128,-1,55
 166 0 166 0 138 0 c 2,56,-1
 118 0 l 2,57,58
 95 0 95 0 72 21 c 0,59,60
 53 43 53 43 53 70 c 2,61,-1
 53 310 l 2,62,63
 53 346 53 346 80 373 c 128,-1,64
 107 400 107 400 143 400 c 2,65,-1
 223 400 l 2,66,67
 278 400 278 400 338 365 c 1,68,69
 388 400 388 400 453 400 c 2,70,-1
 623 400 l 2,71,72
 643 400 643 400 643 380 c 256,0,1
383 70 m 2,73,-1
 383 245 l 2,74,75
 383 281 383 281 338 325 c 1,76,77
 293 289 293 289 293 245 c 2,78,-1
 293 70 l 2,79,80
 293 40 293 40 328 40 c 2,81,-1
 348 40 l 2,82,83
 383 40 383 40 383 70 c 2,73,-1
163 70 m 1,84,-1
 163 170 l 2,85,86
 163 200 163 200 128 200 c 0,87,88
 115 200 115 200 106 193 c 128,-1,89
 97 186 97 186 93 170 c 1,90,-1
 93 70 l 2,91,92
 93 40 93 40 128 40 c 0,93,94
 156 40 156 40 163 70 c 1,84,-1
EndSplineSet
EndChar

StartChar: u0BAA
Encoding: 2986 2986 138
Width: 396
GlyphClass: 2
Flags: W
LayerCount: 2
Fore
SplineSet
393 380 m 256,0,1
 393 360 393 360 373 360 c 0,2,3
 343 360 343 360 343 340 c 2,4,-1
 343 70 l 2,5,6
 343 47 343 47 319 20 c 0,7,8
 296 0 296 0 263 0 c 2,9,-1
 133 0 l 2,10,11
 101 0 101 0 77 19.5 c 128,-1,12
 53 39 53 39 53 70 c 2,13,-1
 53 340 l 2,14,15
 53 360 53 360 23 360 c 0,16,17
 3 360 3 360 3 380 c 256,18,19
 3 400 3 400 23 400 c 0,20,21
 33 400 33 400 46 392 c 2,22,-1
 68 385 l 1,23,-1
 78 386 l 1,24,-1
 96 392 l 1,25,-1
 123 400 l 1,26,27
 143 400 143 400 143 380 c 256,28,29
 143 360 143 360 123 360 c 0,30,31
 93 360 93 360 93 340 c 2,32,-1
 93 70 l 2,33,34
 93 40 93 40 128 40 c 2,35,-1
 268 40 l 2,36,37
 303 40 303 40 303 70 c 2,38,-1
 303 340 l 2,39,40
 303 360 303 360 273 360 c 0,41,42
 253 360 253 360 253 380 c 256,43,44
 253 400 253 400 273 400 c 0,45,46
 286 400 286 400 297 392 c 1,47,-1
 323 385 l 1,48,-1
 346 391 l 1,49,-1
 373 400 l 1,50,51
 393 400 393 400 393 380 c 256,0,1
EndSplineSet
EndChar

StartChar: u0BAE
Encoding: 2990 2990 139
Width: 425
GlyphClass: 2
Flags: W
LayerCount: 2
Fore
SplineSet
413 20 m 256,0,1
 413 0 413 0 388 0 c 2,2,-1
 133 0 l 2,3,4
 101 0 101 0 77 19.5 c 128,-1,5
 53 39 53 39 53 70 c 2,6,-1
 53 340 l 2,7,8
 53 360 53 360 23 360 c 0,9,10
 3 360 3 360 3 380 c 256,11,12
 3 400 3 400 23 400 c 0,13,14
 36 400 36 400 47 392 c 1,15,-1
 73 385 l 1,16,-1
 96 391 l 1,17,-1
 123 400 l 1,18,19
 143 400 143 400 143 380 c 256,20,21
 143 360 143 360 123 360 c 0,22,23
 93 360 93 360 93 340 c 2,24,-1
 93 70 l 2,25,26
 93 40 93 40 128 40 c 2,27,-1
 193 40 l 1,28,-1
 193 330 l 2,29,30
 193 357 193 357 212 378.5 c 128,-1,31
 231 400 231 400 258 400 c 2,32,-1
 298 400 l 2,33,34
 323 400 323 400 343 377.5 c 128,-1,35
 363 355 363 355 363 330 c 2,36,-1
 363 70 l 2,37,38
 363 40 363 40 393 40 c 0,39,40
 413 40 413 40 413 20 c 256,0,1
323 70 m 2,41,-1
 323 330 l 2,42,43
 323 360 323 360 293 360 c 2,44,-1
 268 360 l 2,45,46
 233 360 233 360 233 330 c 2,47,-1
 233 40 l 1,48,-1
 298 40 l 2,49,50
 323 40 323 40 323 70 c 2,41,-1
EndSplineSet
EndChar

